<ttFont>
    <TTGlyph name="A" xMin="23" yMin="-42" xMax="534" yMax="519">
      <contour>
        <pt x="499" y="519" on="1"/>
        <pt x="497" y="465" on="0"/>
        <pt x="497" y="327" on="0"/>
        <pt x="512" y="144" on="0"/>
        <pt x="523" y="108" on="1"/>
        <pt x="534" y="73" on="1"/>
        <pt x="467" y="20" on="0"/>
        <pt x="347" y="-42" on="1"/>
        <pt x="348" y="-6" on="0"/>
        <pt x="348" y="64" on="0"/>
        <pt x="347" y="97" on="1"/>
        <pt x="307" y="90" on="0"/>
        <pt x="232" y="90" on="0"/>
        <pt x="208" y="91" on="1"/>
        <pt x="194" y="51" on="0"/>
        <pt x="169" y="-31" on="1"/>
        <pt x="133" y="-13" on="0"/>
        <pt x="47" y="62" on="0"/>
        <pt x="23" y="99" on="1"/>
        <pt x="54" y="130" on="0"/>
        <pt x="80" y="187" on="1"/>
        <pt x="136" y="306" on="0"/>
        <pt x="182" y="469" on="1"/>
        <pt x="398" y="485" on="0"/>
      </contour>
      <contour>
        <pt x="326" y="363" on="1"/>
        <pt x="288" y="306" on="0"/>
        <pt x="234" y="164" on="1"/>
        <pt x="255" y="163" on="0"/>
        <pt x="344" y="163" on="1"/>
        <pt x="338" y="267" on="0"/>
        <pt x="329" y="339" on="1"/>
      </contour>
    </TTGlyph>
    <TTGlyph name="AE" xMin="25" yMin="-64" xMax="835" yMax="539">
      <contour>
        <pt x="345" y="-64" on="1"/>
        <pt x="349" y="61" on="1"/>
        <pt x="349" y="71" on="0"/>
        <pt x="349" y="78" on="1"/>
        <pt x="205" y="82" on="1"/>
        <pt x="199" y="66" on="0"/>
        <pt x="194" y="48" on="1"/>
        <pt x="181" y="3" on="0"/>
        <pt x="171" y="-31" on="1"/>
        <pt x="135" y="-13" on="0"/>
        <pt x="49" y="62" on="0"/>
        <pt x="25" y="99" on="1"/>
        <pt x="56" y="130" on="0"/>
        <pt x="82" y="187" on="1"/>
        <pt x="138" y="306" on="0"/>
        <pt x="184" y="469" on="1"/>
        <pt x="357" y="469" on="0"/>
        <pt x="610" y="495" on="0"/>
        <pt x="768" y="539" on="1"/>
        <pt x="835" y="315" on="1"/>
        <pt x="778" y="329" on="0"/>
        <pt x="597" y="329" on="0"/>
        <pt x="520" y="324" on="1"/>
        <pt x="520" y="302" on="0"/>
        <pt x="556" y="275" on="0"/>
        <pt x="584" y="270" on="1"/>
        <pt x="642" y="261" on="0"/>
        <pt x="732" y="261" on="0"/>
        <pt x="776" y="265" on="1"/>
        <pt x="776" y="251" on="0"/>
        <pt x="753" y="216" on="0"/>
        <pt x="718" y="191" on="0"/>
        <pt x="642" y="170" on="0"/>
        <pt x="604" y="170" on="1"/>
        <pt x="541" y="170" on="0"/>
        <pt x="514" y="180" on="1"/>
        <pt x="504" y="183" on="1"/>
        <pt x="501" y="178" on="0"/>
        <pt x="501" y="163" on="0"/>
        <pt x="518" y="137" on="0"/>
        <pt x="574" y="113" on="0"/>
        <pt x="657" y="113" on="0"/>
        <pt x="759" y="138" on="0"/>
        <pt x="786" y="150" on="1"/>
        <pt x="814" y="162" on="1"/>
        <pt x="805" y="95" on="0"/>
        <pt x="649" y="-24" on="0"/>
        <pt x="531" y="-24" on="1"/>
        <pt x="483" y="-24" on="0"/>
        <pt x="443" y="-4" on="1"/>
        <pt x="395" y="-39" on="0"/>
      </contour>
      <contour>
        <pt x="328" y="363" on="1"/>
        <pt x="290" y="306" on="0"/>
        <pt x="236" y="164" on="1"/>
        <pt x="257" y="163" on="0"/>
        <pt x="346" y="163" on="1"/>
        <pt x="340" y="267" on="0"/>
        <pt x="331" y="339" on="1"/>
      </contour>
    </TTGlyph>
    <TTGlyph name="Aacute" xMin="23" yMin="-42" xMax="534" yMax="684">
      <contour>
        <pt x="499" y="519" on="1"/>
        <pt x="497" y="465" on="0"/>
        <pt x="497" y="327" on="0"/>
        <pt x="512" y="144" on="0"/>
        <pt x="523" y="108" on="1"/>
        <pt x="534" y="73" on="1"/>
        <pt x="467" y="20" on="0"/>
        <pt x="347" y="-42" on="1"/>
        <pt x="348" y="-6" on="0"/>
        <pt x="348" y="64" on="0"/>
        <pt x="347" y="97" on="1"/>
        <pt x="307" y="90" on="0"/>
        <pt x="232" y="90" on="0"/>
        <pt x="208" y="91" on="1"/>
        <pt x="194" y="51" on="0"/>
        <pt x="169" y="-31" on="1"/>
        <pt x="133" y="-13" on="0"/>
        <pt x="47" y="62" on="0"/>
        <pt x="23" y="99" on="1"/>
        <pt x="54" y="130" on="0"/>
        <pt x="80" y="187" on="1"/>
        <pt x="136" y="306" on="0"/>
        <pt x="182" y="469" on="1"/>
        <pt x="398" y="485" on="0"/>
      </contour>
      <contour>
        <pt x="326" y="363" on="1"/>
        <pt x="288" y="306" on="0"/>
        <pt x="234" y="164" on="1"/>
        <pt x="255" y="163" on="0"/>
        <pt x="344" y="163" on="1"/>
        <pt x="338" y="267" on="0"/>
        <pt x="329" y="339" on="1"/>
      </contour>
      <contour>
        <pt x="452" y="552" on="1"/>
        <pt x="364" y="519" on="0"/>
        <pt x="296" y="519" on="1"/>
        <pt x="221" y="519" on="0"/>
        <pt x="184" y="553" on="1"/>
        <pt x="421" y="684" on="1"/>
      </contour>
    </TTGlyph>
    <TTGlyph name="Acircumflex" xMin="26" yMin="-42" xMax="537" yMax="669">
      <contour>
        <pt x="502" y="519" on="1"/>
        <pt x="500" y="465" on="0"/>
        <pt x="500" y="327" on="0"/>
        <pt x="515" y="144" on="0"/>
        <pt x="526" y="108" on="1"/>
        <pt x="537" y="73" on="1"/>
        <pt x="470" y="20" on="0"/>
        <pt x="350" y="-42" on="1"/>
        <pt x="351" y="-6" on="0"/>
        <pt x="351" y="64" on="0"/>
        <pt x="350" y="97" on="1"/>
        <pt x="310" y="90" on="0"/>
        <pt x="235" y="90" on="0"/>
        <pt x="211" y="91" on="1"/>
        <pt x="197" y="51" on="0"/>
        <pt x="172" y="-31" on="1"/>
        <pt x="136" y="-13" on="0"/>
        <pt x="50" y="62" on="0"/>
        <pt x="26" y="99" on="1"/>
        <pt x="57" y="130" on="0"/>
        <pt x="83" y="187" on="1"/>
        <pt x="139" y="306" on="0"/>
        <pt x="185" y="469" on="1"/>
        <pt x="401" y="485" on="0"/>
      </contour>
      <contour>
        <pt x="329" y="363" on="1"/>
        <pt x="291" y="306" on="0"/>
        <pt x="237" y="164" on="1"/>
        <pt x="258" y="163" on="0"/>
        <pt x="347" y="163" on="1"/>
        <pt x="341" y="267" on="0"/>
        <pt x="332" y="339" on="1"/>
      </contour>
      <contour>
        <pt x="140" y="466" on="1"/>
        <pt x="133" y="456" on="1"/>
        <pt x="133" y="520" on="0"/>
        <pt x="174" y="584" on="1"/>
        <pt x="227" y="669" on="0"/>
        <pt x="340" y="669" on="1"/>
        <pt x="401" y="669" on="0"/>
        <pt x="430" y="640" on="1"/>
        <pt x="462" y="608" on="0"/>
        <pt x="462" y="556" on="1"/>
        <pt x="462" y="543" on="0"/>
        <pt x="459" y="527" on="1"/>
        <pt x="415" y="556" on="0"/>
        <pt x="260" y="556" on="0"/>
        <pt x="157" y="490" on="0"/>
      </contour>
    </TTGlyph>
    <TTGlyph name="Adieresis" xMin="23" yMin="-42" xMax="539" yMax="709">
      <component glyphName="A" x="0" y="0" flags="0x1004"/>
      <component glyphName="dieresis" x="95" y="-33" flags="0x1004"/>
    </TTGlyph>
    <TTGlyph name="Agrave" xMin="23" yMin="-42" xMax="534" yMax="683">
      <component glyphName="A" x="0" y="0" flags="0x1004"/>
      <component glyphName="grave" x="113" y="-50" flags="0x1004"/>
    </TTGlyph>
    <TTGlyph name="Aring" xMin="23" yMin="-42" xMax="534" yMax="698">
      <component glyphName="A" x="0" y="0" flags="0x1004"/>
      <component glyphName="ring" x="185" y="-44" flags="0x1004"/>
    </TTGlyph>
    <TTGlyph name="Atilde" xMin="23" yMin="-42" xMax="540" yMax="672">
      <contour>
        <pt x="499" y="519" on="1"/>
        <pt x="497" y="465" on="0"/>
        <pt x="497" y="327" on="0"/>
        <pt x="512" y="144" on="0"/>
        <pt x="523" y="108" on="1"/>
        <pt x="534" y="73" on="1"/>
        <pt x="467" y="20" on="0"/>
        <pt x="347" y="-42" on="1"/>
        <pt x="348" y="-6" on="0"/>
        <pt x="348" y="64" on="0"/>
        <pt x="347" y="97" on="1"/>
        <pt x="307" y="90" on="0"/>
        <pt x="232" y="90" on="0"/>
        <pt x="208" y="91" on="1"/>
        <pt x="194" y="51" on="0"/>
        <pt x="169" y="-31" on="1"/>
        <pt x="133" y="-13" on="0"/>
        <pt x="47" y="62" on="0"/>
        <pt x="23" y="99" on="1"/>
        <pt x="54" y="130" on="0"/>
        <pt x="80" y="187" on="1"/>
        <pt x="136" y="306" on="0"/>
        <pt x="182" y="469" on="1"/>
        <pt x="398" y="485" on="0"/>
      </contour>
      <contour>
        <pt x="326" y="363" on="1"/>
        <pt x="288" y="306" on="0"/>
        <pt x="234" y="164" on="1"/>
        <pt x="255" y="163" on="0"/>
        <pt x="344" y="163" on="1"/>
        <pt x="338" y="267" on="0"/>
        <pt x="329" y="339" on="1"/>
      </contour>
      <contour>
        <pt x="211" y="655" on="1"/>
        <pt x="257" y="609" on="0"/>
        <pt x="330" y="609" on="1"/>
        <pt x="342" y="609" on="0"/>
        <pt x="354" y="610" on="1"/>
        <pt x="361" y="617" on="0"/>
        <pt x="385" y="638" on="0"/>
        <pt x="452" y="672" on="0"/>
        <pt x="509" y="672" on="0"/>
        <pt x="538" y="644" on="0"/>
        <pt x="539" y="619" on="0"/>
        <pt x="539" y="609" on="1"/>
        <pt x="539" y="578" on="0"/>
        <pt x="528" y="551" on="1"/>
        <pt x="523" y="537" on="1"/>
        <pt x="519" y="541" on="0"/>
        <pt x="501" y="555" on="0"/>
        <pt x="435" y="574" on="0"/>
        <pt x="393" y="574" on="0"/>
        <pt x="389" y="574" on="1"/>
        <pt x="367" y="552" on="0"/>
        <pt x="298" y="517" on="0"/>
        <pt x="233" y="517" on="0"/>
        <pt x="214" y="531" on="1"/>
        <pt x="191" y="547" on="0"/>
        <pt x="191" y="579" on="1"/>
        <pt x="191" y="613" on="0"/>
        <pt x="204" y="641" on="1"/>
      </contour>
    </TTGlyph>
    <TTGlyph name="B" xMin="51" yMin="-29" xMax="624" yMax="515">
      <contour>
        <pt x="467" y="2" on="0"/>
        <pt x="343" y="-25" on="0"/>
        <pt x="261" y="-29" on="0"/>
        <pt x="192" y="-29" on="0"/>
        <pt x="143" y="-17" on="1"/>
        <pt x="129" y="-10" on="0"/>
        <pt x="111" y="1" on="0"/>
        <pt x="63" y="46" on="0"/>
        <pt x="51" y="71" on="1"/>
        <pt x="81" y="115" on="0"/>
        <pt x="140" y="227" on="0"/>
        <pt x="154" y="262" on="1"/>
        <pt x="169" y="296" on="1"/>
        <pt x="118" y="290" on="0"/>
        <pt x="86" y="272" on="1"/>
        <pt x="76" y="266" on="1"/>
        <pt x="82" y="326" on="0"/>
        <pt x="112" y="427" on="0"/>
        <pt x="124" y="448" on="1"/>
        <pt x="136" y="468" on="1"/>
        <pt x="288" y="515" on="0"/>
        <pt x="459" y="515" on="1"/>
        <pt x="463" y="513" on="0"/>
        <pt x="478" y="507" on="0"/>
        <pt x="522" y="478" on="0"/>
        <pt x="561" y="442" on="0"/>
        <pt x="608" y="374" on="0"/>
        <pt x="624" y="334" on="1"/>
        <pt x="604" y="290" on="0"/>
        <pt x="539" y="214" on="0"/>
        <pt x="516" y="198" on="1"/>
        <pt x="494" y="182" on="1"/>
        <pt x="583" y="124" on="1"/>
        <pt x="566" y="73" on="0"/>
      </contour>
      <contour>
        <pt x="449" y="328" on="0"/>
        <pt x="368" y="328" on="0"/>
        <pt x="323" y="326" on="1"/>
        <pt x="316" y="302" on="0"/>
        <pt x="284" y="212" on="1"/>
        <pt x="330" y="212" on="0"/>
        <pt x="406" y="235" on="0"/>
        <pt x="427" y="252" on="1"/>
        <pt x="470" y="286" on="0"/>
        <pt x="480" y="314" on="1"/>
        <pt x="485" y="326" on="1"/>
      </contour>
      <contour>
        <pt x="419" y="104" on="1"/>
        <pt x="416" y="108" on="0"/>
        <pt x="401" y="120" on="0"/>
        <pt x="336" y="139" on="0"/>
        <pt x="292" y="139" on="1"/>
        <pt x="273" y="96" on="0"/>
        <pt x="246" y="58" on="1"/>
        <pt x="297" y="59" on="0"/>
        <pt x="383" y="82" on="0"/>
        <pt x="401" y="93" on="1"/>
      </contour>
    </TTGlyph>
    <TTGlyph name="C" xMin="43" yMin="-40" xMax="547" yMax="520">
      <contour>
        <pt x="207" y="-40" on="1"/>
        <pt x="86" y="8" on="0"/>
        <pt x="43" y="82" on="1"/>
        <pt x="43" y="192" on="0"/>
        <pt x="173" y="452" on="0"/>
        <pt x="254" y="494" on="1"/>
        <pt x="288" y="494" on="0"/>
        <pt x="330" y="490" on="1"/>
        <pt x="441" y="496" on="0"/>
        <pt x="520" y="514" on="1"/>
        <pt x="547" y="520" on="1"/>
        <pt x="507" y="388" on="0"/>
        <pt x="483" y="239" on="1"/>
        <pt x="395" y="278" on="0"/>
        <pt x="331" y="346" on="1"/>
        <pt x="254" y="233" on="0"/>
        <pt x="238" y="98" on="1"/>
        <pt x="504" y="169" on="1"/>
        <pt x="504" y="149" on="0"/>
        <pt x="465" y="80" on="0"/>
        <pt x="409" y="29" on="0"/>
        <pt x="288" y="-26" on="0"/>
      </contour>
    </TTGlyph>
    <TTGlyph name="Ccedilla" xMin="43" yMin="-142" xMax="547" yMax="520">
      <component glyphName="C" x="0" y="0" flags="0x1004"/>
      <component glyphName="cedilla" x="76" y="0" flags="0x1004"/>
    </TTGlyph>
    <TTGlyph name="D" xMin="77" yMin="4" xMax="585" yMax="531">
      <contour>
        <pt x="443" y="72" on="0"/>
        <pt x="352" y="26" on="0"/>
        <pt x="238" y="5" on="0"/>
        <pt x="159" y="5" on="0"/>
        <pt x="127" y="8" on="1"/>
        <pt x="81" y="89" on="1"/>
        <pt x="81" y="138" on="0"/>
        <pt x="165" y="328" on="1"/>
        <pt x="77" y="312" on="1"/>
        <pt x="93" y="408" on="0"/>
        <pt x="130" y="476" on="1"/>
        <pt x="140" y="482" on="0"/>
        <pt x="181" y="500" on="0"/>
        <pt x="333" y="531" on="0"/>
        <pt x="424" y="531" on="1"/>
        <pt x="429" y="527" on="0"/>
        <pt x="447" y="514" on="0"/>
        <pt x="495" y="468" on="0"/>
        <pt x="535" y="418" on="0"/>
        <pt x="576" y="339" on="0"/>
        <pt x="585" y="299" on="1"/>
        <pt x="582" y="276" on="0"/>
        <pt x="553" y="202" on="0"/>
        <pt x="516" y="143" on="0"/>
      </contour>
      <contour>
        <pt x="435" y="334" on="1"/>
        <pt x="390" y="339" on="0"/>
        <pt x="330" y="339" on="1"/>
        <pt x="315" y="274" on="0"/>
        <pt x="264" y="107" on="1"/>
        <pt x="305" y="129" on="0"/>
        <pt x="371" y="193" on="0"/>
        <pt x="388" y="222" on="1"/>
        <pt x="422" y="278" on="0"/>
        <pt x="432" y="318" on="1"/>
      </contour>
    </TTGlyph>
    <TTGlyph name="Delta" xMin="21" yMin="0" xMax="573" yMax="646">
      <contour>
        <pt x="573" y="0" on="1"/>
        <pt x="21" y="0" on="1"/>
        <pt x="286" y="646" on="1"/>
        <pt x="307" y="646" on="1"/>
      </contour>
      <contour>
        <pt x="89" y="43" on="1"/>
        <pt x="448" y="43" on="1"/>
        <pt x="269" y="485" on="1"/>
      </contour>
    </TTGlyph>
    <TTGlyph name="E" xMin="47" yMin="-24" xMax="555" yMax="539">
      <contour>
        <pt x="240" y="324" on="1"/>
        <pt x="240" y="302" on="0"/>
        <pt x="276" y="275" on="0"/>
        <pt x="304" y="270" on="1"/>
        <pt x="362" y="261" on="0"/>
        <pt x="452" y="261" on="0"/>
        <pt x="496" y="265" on="1"/>
        <pt x="496" y="254" on="0"/>
        <pt x="469" y="216" on="0"/>
        <pt x="431" y="191" on="0"/>
        <pt x="353" y="170" on="0"/>
        <pt x="271" y="170" on="0"/>
        <pt x="247" y="173" on="1"/>
        <pt x="236" y="120" on="1"/>
        <pt x="239" y="115" on="0"/>
        <pt x="341" y="115" on="0"/>
        <pt x="466" y="138" on="0"/>
        <pt x="500" y="150" on="1"/>
        <pt x="534" y="162" on="1"/>
        <pt x="525" y="95" on="0"/>
        <pt x="369" y="-24" on="0"/>
        <pt x="251" y="-24" on="1"/>
        <pt x="174" y="-24" on="0"/>
        <pt x="58" y="58" on="0"/>
        <pt x="47" y="97" on="1"/>
        <pt x="68" y="162" on="0"/>
        <pt x="125" y="227" on="1"/>
        <pt x="83" y="266" on="0"/>
        <pt x="83" y="312" on="1"/>
        <pt x="83" y="417" on="0"/>
        <pt x="299" y="539" on="0"/>
        <pt x="488" y="539" on="1"/>
        <pt x="555" y="315" on="1"/>
        <pt x="498" y="329" on="0"/>
        <pt x="317" y="329" on="0"/>
      </contour>
    </TTGlyph>
    <TTGlyph name="Eacute" xMin="47" yMin="-24" xMax="555" yMax="719">
      <component glyphName="E" x="0" y="0" flags="0x1004"/>
      <component glyphName="acute" x="82" y="-14" flags="0x1004"/>
    </TTGlyph>
    <TTGlyph name="Ecircumflex" xMin="47" yMin="-24" xMax="555" yMax="677">
      <component glyphName="E" x="0" y="0" flags="0x1004"/>
      <component glyphName="circumflex" x="104" y="-65" flags="0x1004"/>
    </TTGlyph>
    <TTGlyph name="Edieresis" xMin="47" yMin="-24" xMax="555" yMax="739">
      <contour>
        <pt x="240" y="324" on="1"/>
        <pt x="240" y="302" on="0"/>
        <pt x="276" y="275" on="0"/>
        <pt x="304" y="270" on="1"/>
        <pt x="362" y="261" on="0"/>
        <pt x="452" y="261" on="0"/>
        <pt x="496" y="265" on="1"/>
        <pt x="496" y="254" on="0"/>
        <pt x="469" y="216" on="0"/>
        <pt x="431" y="191" on="0"/>
        <pt x="353" y="170" on="0"/>
        <pt x="271" y="170" on="0"/>
        <pt x="247" y="173" on="1"/>
        <pt x="236" y="120" on="1"/>
        <pt x="239" y="115" on="0"/>
        <pt x="341" y="115" on="0"/>
        <pt x="466" y="138" on="0"/>
        <pt x="500" y="150" on="1"/>
        <pt x="534" y="162" on="1"/>
        <pt x="525" y="95" on="0"/>
        <pt x="369" y="-24" on="0"/>
        <pt x="251" y="-24" on="1"/>
        <pt x="174" y="-24" on="0"/>
        <pt x="58" y="58" on="0"/>
        <pt x="47" y="97" on="1"/>
        <pt x="68" y="162" on="0"/>
        <pt x="125" y="227" on="1"/>
        <pt x="83" y="266" on="0"/>
        <pt x="83" y="312" on="1"/>
        <pt x="83" y="417" on="0"/>
        <pt x="299" y="539" on="0"/>
        <pt x="488" y="539" on="1"/>
        <pt x="555" y="315" on="1"/>
        <pt x="498" y="329" on="0"/>
        <pt x="317" y="329" on="0"/>
      </contour>
      <contour>
        <pt x="143" y="690" on="0"/>
        <pt x="178" y="707" on="0"/>
        <pt x="222" y="707" on="0"/>
        <pt x="256" y="681" on="0"/>
        <pt x="264" y="662" on="1"/>
        <pt x="279" y="627" on="0"/>
        <pt x="280" y="593" on="1"/>
        <pt x="281" y="580" on="1"/>
        <pt x="201" y="537" on="1"/>
        <pt x="177" y="537" on="0"/>
        <pt x="129" y="582" on="0"/>
        <pt x="117" y="604" on="1"/>
        <pt x="105" y="627" on="1"/>
        <pt x="106" y="630" on="0"/>
        <pt x="109" y="641" on="0"/>
        <pt x="124" y="669" on="0"/>
      </contour>
      <contour>
        <pt x="424" y="566" on="0"/>
        <pt x="377" y="566" on="0"/>
        <pt x="341" y="583" on="0"/>
        <pt x="332" y="594" on="1"/>
        <pt x="313" y="617" on="0"/>
        <pt x="306" y="647" on="1"/>
        <pt x="409" y="739" on="1"/>
        <pt x="442" y="724" on="0"/>
        <pt x="482" y="660" on="0"/>
        <pt x="486" y="636" on="1"/>
        <pt x="490" y="611" on="1"/>
        <pt x="476" y="594" on="0"/>
      </contour>
    </TTGlyph>
    <TTGlyph name="Egrave" xMin="47" yMin="-24" xMax="555" yMax="708">
      <component glyphName="E" x="0" y="0" flags="0x1004"/>
      <component glyphName="grave" x="73" y="-25" flags="0x1004"/>
    </TTGlyph>
    <TTGlyph name="Eth" xMin="39" yMin="4" xMax="586" yMax="531">
      <contour>
        <pt x="444" y="72" on="0"/>
        <pt x="353" y="26" on="0"/>
        <pt x="239" y="5" on="0"/>
        <pt x="160" y="5" on="0"/>
        <pt x="128" y="8" on="1"/>
        <pt x="82" y="89" on="1"/>
        <pt x="82" y="112" on="0"/>
        <pt x="105" y="179" on="1"/>
        <pt x="78" y="176" on="1"/>
        <pt x="39" y="242" on="1"/>
        <pt x="73" y="247" on="0"/>
        <pt x="133" y="252" on="1"/>
        <pt x="166" y="328" on="1"/>
        <pt x="78" y="312" on="1"/>
        <pt x="94" y="408" on="0"/>
        <pt x="131" y="476" on="1"/>
        <pt x="141" y="482" on="0"/>
        <pt x="182" y="500" on="0"/>
        <pt x="334" y="531" on="0"/>
        <pt x="425" y="531" on="1"/>
        <pt x="430" y="527" on="0"/>
        <pt x="448" y="514" on="0"/>
        <pt x="496" y="468" on="0"/>
        <pt x="536" y="418" on="0"/>
        <pt x="577" y="339" on="0"/>
        <pt x="586" y="299" on="1"/>
        <pt x="583" y="276" on="0"/>
        <pt x="554" y="202" on="0"/>
        <pt x="517" y="143" on="0"/>
      </contour>
      <contour>
        <pt x="368" y="261" on="1"/>
        <pt x="348" y="209" on="1"/>
        <pt x="294" y="202" on="1"/>
        <pt x="265" y="107" on="1"/>
        <pt x="306" y="129" on="0"/>
        <pt x="372" y="193" on="0"/>
        <pt x="390" y="222" on="1"/>
        <pt x="423" y="278" on="0"/>
        <pt x="432" y="318" on="1"/>
        <pt x="436" y="334" on="1"/>
        <pt x="391" y="339" on="0"/>
        <pt x="331" y="339" on="1"/>
        <pt x="311" y="260" on="1"/>
        <pt x="329" y="261" on="0"/>
      </contour>
    </TTGlyph>
    <TTGlyph name="Euro" xMin="46" yMin="-18" xMax="621" yMax="539">
      <contour>
        <pt x="384" y="104" on="1"/>
        <pt x="447" y="104" on="0"/>
        <pt x="557" y="139" on="0"/>
        <pt x="581" y="156" on="1"/>
        <pt x="605" y="174" on="1"/>
        <pt x="596" y="107" on="0"/>
        <pt x="445" y="-18" on="0"/>
        <pt x="337" y="-18" on="1"/>
        <pt x="257" y="-18" on="0"/>
        <pt x="136" y="68" on="0"/>
        <pt x="121" y="134" on="1"/>
        <pt x="46" y="128" on="1"/>
        <pt x="60" y="187" on="1"/>
        <pt x="117" y="189" on="1"/>
        <pt x="117" y="200" on="0"/>
        <pt x="119" y="224" on="1"/>
        <pt x="63" y="223" on="1"/>
        <pt x="72" y="279" on="1"/>
        <pt x="127" y="279" on="1"/>
        <pt x="181" y="539" on="0"/>
        <pt x="554" y="539" on="1"/>
        <pt x="621" y="315" on="1"/>
        <pt x="531" y="328" on="0"/>
        <pt x="463" y="328" on="1"/>
        <pt x="333" y="328" on="0"/>
        <pt x="285" y="279" on="1"/>
        <pt x="512" y="279" on="1"/>
        <pt x="493" y="234" on="1"/>
        <pt x="258" y="228" on="1"/>
        <pt x="256" y="210" on="0"/>
        <pt x="256" y="201" on="1"/>
        <pt x="256" y="195" on="1"/>
        <pt x="481" y="204" on="1"/>
        <pt x="463" y="161" on="1"/>
        <pt x="270" y="146" on="1"/>
        <pt x="298" y="104" on="0"/>
      </contour>
    </TTGlyph>
    <TTGlyph name="F" xMin="57" yMin="-42" xMax="559" yMax="527">
      <contour>
        <pt x="80" y="333" on="1"/>
        <pt x="91" y="382" on="0"/>
        <pt x="132" y="465" on="0"/>
        <pt x="147" y="482" on="1"/>
        <pt x="162" y="500" on="1"/>
        <pt x="559" y="527" on="1"/>
        <pt x="530" y="270" on="1"/>
        <pt x="467" y="294" on="0"/>
        <pt x="339" y="312" on="1"/>
        <pt x="319" y="254" on="0"/>
        <pt x="296" y="203" on="1"/>
        <pt x="434" y="207" on="0"/>
        <pt x="492" y="215" on="1"/>
        <pt x="514" y="218" on="1"/>
        <pt x="511" y="203" on="0"/>
        <pt x="470" y="154" on="0"/>
        <pt x="416" y="120" on="0"/>
        <pt x="310" y="91" on="0"/>
        <pt x="242" y="88" on="1"/>
        <pt x="203" y="11" on="0"/>
        <pt x="166" y="-42" on="1"/>
        <pt x="127" y="-22" on="0"/>
        <pt x="73" y="30" on="0"/>
        <pt x="65" y="46" on="1"/>
        <pt x="57" y="61" on="1"/>
        <pt x="80" y="181" on="0"/>
        <pt x="142" y="331" on="1"/>
      </contour>
    </TTGlyph>
    <TTGlyph name="G" xMin="47" yMin="-60" xMax="568" yMax="540">
      <contour>
        <pt x="211" y="-20" on="1"/>
        <pt x="90" y="28" on="0"/>
        <pt x="47" y="102" on="1"/>
        <pt x="47" y="212" on="0"/>
        <pt x="177" y="472" on="0"/>
        <pt x="258" y="514" on="1"/>
        <pt x="301" y="514" on="0"/>
        <pt x="338" y="509" on="1"/>
        <pt x="462" y="515" on="0"/>
        <pt x="540" y="534" on="1"/>
        <pt x="568" y="540" on="1"/>
        <pt x="528" y="408" on="0"/>
        <pt x="504" y="259" on="1"/>
        <pt x="463" y="277" on="0"/>
        <pt x="371" y="343" on="0"/>
        <pt x="342" y="376" on="1"/>
        <pt x="258" y="257" on="0"/>
        <pt x="242" y="118" on="1"/>
        <pt x="374" y="153" on="1"/>
        <pt x="376" y="189" on="0"/>
        <pt x="384" y="227" on="1"/>
        <pt x="453" y="208" on="0"/>
        <pt x="550" y="208" on="1"/>
        <pt x="524" y="152" on="0"/>
        <pt x="472" y="-7" on="1"/>
        <pt x="454" y="-60" on="1"/>
        <pt x="408" y="-43" on="0"/>
        <pt x="385" y="37" on="1"/>
        <pt x="313" y="-2" on="0"/>
      </contour>
    </TTGlyph>
    <TTGlyph name="H" xMin="50" yMin="-34" xMax="568" yMax="560">
      <contour>
        <pt x="349" y="219" on="1"/>
        <pt x="360" y="299" on="0"/>
        <pt x="370" y="461" on="0"/>
        <pt x="370" y="510" on="0"/>
        <pt x="370" y="514" on="1"/>
        <pt x="369" y="560" on="1"/>
        <pt x="482" y="500" on="0"/>
        <pt x="568" y="500" on="1"/>
        <pt x="553" y="285" on="0"/>
        <pt x="490" y="108" on="1"/>
        <pt x="476" y="69" on="0"/>
        <pt x="467" y="52" on="1"/>
        <pt x="458" y="35" on="1"/>
        <pt x="422" y="35" on="0"/>
        <pt x="342" y="10" on="0"/>
        <pt x="320" y="-3" on="1"/>
        <pt x="297" y="-16" on="1"/>
        <pt x="318" y="45" on="0"/>
        <pt x="335" y="133" on="1"/>
        <pt x="279" y="118" on="0"/>
        <pt x="236" y="93" on="1"/>
        <pt x="221" y="-34" on="1"/>
        <pt x="208" y="-30" on="0"/>
        <pt x="166" y="-16" on="0"/>
        <pt x="74" y="39" on="0"/>
        <pt x="50" y="72" on="1"/>
        <pt x="58" y="176" on="0"/>
        <pt x="98" y="357" on="0"/>
        <pt x="114" y="396" on="1"/>
        <pt x="131" y="435" on="1"/>
        <pt x="185" y="471" on="0"/>
        <pt x="308" y="489" on="1"/>
        <pt x="273" y="345" on="0"/>
        <pt x="251" y="197" on="1"/>
        <pt x="306" y="202" on="0"/>
      </contour>
    </TTGlyph>
    <TTGlyph name="I" xMin="67" yMin="-45" xMax="313" yMax="517">
      <contour>
        <pt x="127" y="517" on="1"/>
        <pt x="196" y="498" on="0"/>
        <pt x="313" y="486" on="1"/>
        <pt x="268" y="319" on="0"/>
        <pt x="218" y="54" on="0"/>
        <pt x="215" y="4" on="1"/>
        <pt x="212" y="-45" on="1"/>
        <pt x="136" y="-22" on="0"/>
        <pt x="67" y="44" on="1"/>
        <pt x="73" y="158" on="0"/>
        <pt x="103" y="395" on="0"/>
        <pt x="115" y="456" on="1"/>
      </contour>
    </TTGlyph>
    <TTGlyph name="Iacute" xMin="67" yMin="-45" xMax="337" yMax="709">
      <component glyphName="I" x="0" y="0" flags="0x1004"/>
      <component glyphName="acute" x="-22" y="-24" flags="0x1004"/>
    </TTGlyph>
    <TTGlyph name="Icircumflex" xMin="88" yMin="-45" xMax="359" yMax="687">
      <contour>
        <pt x="148" y="517" on="1"/>
        <pt x="217" y="498" on="0"/>
        <pt x="334" y="486" on="1"/>
        <pt x="289" y="319" on="0"/>
        <pt x="239" y="54" on="0"/>
        <pt x="236" y="4" on="1"/>
        <pt x="233" y="-45" on="1"/>
        <pt x="157" y="-22" on="0"/>
        <pt x="88" y="44" on="1"/>
        <pt x="94" y="158" on="0"/>
        <pt x="124" y="395" on="0"/>
        <pt x="136" y="456" on="1"/>
      </contour>
      <contour>
        <pt x="115" y="542" on="1"/>
        <pt x="101" y="530" on="0"/>
        <pt x="95" y="522" on="1"/>
        <pt x="89" y="513" on="1"/>
        <pt x="89" y="567" on="0"/>
        <pt x="122" y="618" on="1"/>
        <pt x="167" y="687" on="0"/>
        <pt x="258" y="687" on="1"/>
        <pt x="293" y="687" on="0"/>
        <pt x="338" y="663" on="0"/>
        <pt x="346" y="646" on="1"/>
        <pt x="359" y="619" on="0"/>
        <pt x="359" y="588" on="0"/>
        <pt x="358" y="583" on="1"/>
        <pt x="356" y="571" on="1"/>
        <pt x="320" y="595" on="0"/>
        <pt x="177" y="595" on="0"/>
      </contour>
    </TTGlyph>
    <TTGlyph name="Idieresis" xMin="24" yMin="-45" xMax="409" yMax="727">
      <contour>
        <pt x="149" y="517" on="1"/>
        <pt x="218" y="498" on="0"/>
        <pt x="335" y="486" on="1"/>
        <pt x="290" y="319" on="0"/>
        <pt x="240" y="54" on="0"/>
        <pt x="237" y="4" on="1"/>
        <pt x="234" y="-45" on="1"/>
        <pt x="158" y="-22" on="0"/>
        <pt x="89" y="44" on="1"/>
        <pt x="95" y="158" on="0"/>
        <pt x="125" y="395" on="0"/>
        <pt x="137" y="456" on="1"/>
      </contour>
      <contour>
        <pt x="62" y="678" on="0"/>
        <pt x="97" y="695" on="0"/>
        <pt x="141" y="695" on="0"/>
        <pt x="175" y="669" on="0"/>
        <pt x="183" y="650" on="1"/>
        <pt x="198" y="615" on="0"/>
        <pt x="200" y="581" on="1"/>
        <pt x="200" y="568" on="1"/>
        <pt x="120" y="525" on="1"/>
        <pt x="96" y="525" on="0"/>
        <pt x="48" y="570" on="0"/>
        <pt x="36" y="592" on="1"/>
        <pt x="24" y="615" on="1"/>
        <pt x="25" y="618" on="0"/>
        <pt x="28" y="629" on="0"/>
        <pt x="43" y="657" on="0"/>
      </contour>
      <contour>
        <pt x="343" y="554" on="0"/>
        <pt x="296" y="554" on="0"/>
        <pt x="260" y="571" on="0"/>
        <pt x="250" y="582" on="1"/>
        <pt x="232" y="605" on="0"/>
        <pt x="225" y="635" on="1"/>
        <pt x="328" y="727" on="1"/>
        <pt x="361" y="712" on="0"/>
        <pt x="401" y="648" on="0"/>
        <pt x="405" y="624" on="1"/>
        <pt x="409" y="599" on="1"/>
        <pt x="395" y="582" on="0"/>
      </contour>
    </TTGlyph>
    <TTGlyph name="Igrave" xMin="67" yMin="-45" xMax="358" yMax="693">
      <contour>
        <pt x="127" y="517" on="1"/>
        <pt x="196" y="498" on="0"/>
        <pt x="313" y="486" on="1"/>
        <pt x="268" y="319" on="0"/>
        <pt x="218" y="54" on="0"/>
        <pt x="215" y="4" on="1"/>
        <pt x="212" y="-45" on="1"/>
        <pt x="136" y="-22" on="0"/>
        <pt x="67" y="44" on="1"/>
        <pt x="73" y="158" on="0"/>
        <pt x="103" y="395" on="0"/>
        <pt x="115" y="456" on="1"/>
      </contour>
      <contour>
        <pt x="358" y="587" on="1"/>
        <pt x="261" y="543" on="0"/>
        <pt x="190" y="543" on="1"/>
        <pt x="126" y="543" on="0"/>
        <pt x="100" y="556" on="1"/>
        <pt x="89" y="561" on="1"/>
        <pt x="120" y="693" on="1"/>
      </contour>
    </TTGlyph>
    <TTGlyph name="J" xMin="-2" yMin="-93" xMax="316" yMax="545">
      <contour>
        <pt x="121" y="545" on="1"/>
        <pt x="176" y="524" on="0"/>
        <pt x="274" y="501" on="0"/>
        <pt x="295" y="500" on="1"/>
        <pt x="316" y="499" on="1"/>
        <pt x="309" y="375" on="0"/>
        <pt x="287" y="208" on="0"/>
        <pt x="243" y="55" on="0"/>
        <pt x="210" y="10" on="1"/>
        <pt x="137" y="-85" on="0"/>
        <pt x="-2" y="-93" on="1"/>
        <pt x="3" y="-88" on="0"/>
        <pt x="20" y="-67" on="0"/>
        <pt x="62" y="29" on="0"/>
        <pt x="94" y="158" on="0"/>
        <pt x="121" y="398" on="0"/>
      </contour>
    </TTGlyph>
    <TTGlyph name="K" xMin="45" yMin="-19" xMax="628" yMax="540">
      <contour>
        <pt x="585" y="538" on="1"/>
        <pt x="628" y="468" on="0"/>
        <pt x="628" y="411" on="1"/>
        <pt x="628" y="376" on="0"/>
        <pt x="595" y="332" on="1"/>
        <pt x="575" y="306" on="0"/>
        <pt x="514" y="270" on="1"/>
        <pt x="497" y="259" on="0"/>
        <pt x="430" y="220" on="0"/>
        <pt x="413" y="210" on="1"/>
        <pt x="454" y="169" on="0"/>
        <pt x="541" y="101" on="0"/>
        <pt x="564" y="87" on="1"/>
        <pt x="587" y="73" on="1"/>
        <pt x="582" y="65" on="0"/>
        <pt x="541" y="34" on="0"/>
        <pt x="520" y="24" on="1"/>
        <pt x="467" y="-4" on="0"/>
        <pt x="390" y="-12" on="1"/>
        <pt x="342" y="33" on="0"/>
        <pt x="259" y="154" on="0"/>
        <pt x="242" y="199" on="1"/>
        <pt x="208" y="93" on="0"/>
        <pt x="196" y="9" on="1"/>
        <pt x="192" y="-19" on="1"/>
        <pt x="182" y="-15" on="0"/>
        <pt x="148" y="1" on="0"/>
        <pt x="69" y="65" on="0"/>
        <pt x="45" y="104" on="1"/>
        <pt x="60" y="206" on="0"/>
        <pt x="121" y="403" on="0"/>
        <pt x="144" y="450" on="1"/>
        <pt x="168" y="498" on="1"/>
        <pt x="222" y="518" on="0"/>
        <pt x="335" y="539" on="0"/>
        <pt x="365" y="540" on="1"/>
        <pt x="395" y="540" on="1"/>
        <pt x="356" y="488" on="0"/>
        <pt x="279" y="316" on="0"/>
        <pt x="273" y="240" on="1"/>
        <pt x="314" y="292" on="0"/>
        <pt x="470" y="441" on="0"/>
        <pt x="528" y="490" on="1"/>
      </contour>
    </TTGlyph>
    <TTGlyph name="L" xMin="38" yMin="-12" xMax="392" yMax="523">
      <contour>
        <pt x="38" y="19" on="1"/>
        <pt x="112" y="321" on="0"/>
        <pt x="112" y="348" on="1"/>
        <pt x="112" y="404" on="0"/>
        <pt x="108" y="440" on="1"/>
        <pt x="106" y="452" on="1"/>
        <pt x="115" y="458" on="0"/>
        <pt x="154" y="478" on="0"/>
        <pt x="301" y="516" on="0"/>
        <pt x="391" y="523" on="1"/>
        <pt x="321" y="383" on="0"/>
        <pt x="251" y="159" on="1"/>
        <pt x="296" y="159" on="0"/>
        <pt x="366" y="176" on="0"/>
        <pt x="379" y="184" on="1"/>
        <pt x="392" y="193" on="1"/>
        <pt x="352" y="-12" on="1"/>
        <pt x="227" y="11" on="0"/>
        <pt x="87" y="17" on="1"/>
      </contour>
    </TTGlyph>
    <TTGlyph name="Lslash" xMin="37" yMin="-12" xMax="414" yMax="523">
      <contour>
        <pt x="121" y="281" on="1"/>
        <pt x="134" y="336" on="0"/>
        <pt x="134" y="356" on="1"/>
        <pt x="134" y="404" on="0"/>
        <pt x="130" y="440" on="1"/>
        <pt x="128" y="452" on="1"/>
        <pt x="137" y="458" on="0"/>
        <pt x="176" y="478" on="0"/>
        <pt x="323" y="516" on="0"/>
        <pt x="413" y="523" on="1"/>
        <pt x="369" y="436" on="0"/>
        <pt x="317" y="290" on="1"/>
        <pt x="333" y="291" on="0"/>
        <pt x="366" y="291" on="1"/>
        <pt x="346" y="239" on="1"/>
        <pt x="297" y="233" on="1"/>
        <pt x="273" y="159" on="1"/>
        <pt x="318" y="159" on="0"/>
        <pt x="388" y="176" on="0"/>
        <pt x="401" y="184" on="1"/>
        <pt x="414" y="193" on="1"/>
        <pt x="374" y="-12" on="1"/>
        <pt x="249" y="11" on="0"/>
        <pt x="109" y="17" on="1"/>
        <pt x="60" y="19" on="1"/>
        <pt x="84" y="119" on="0"/>
        <pt x="105" y="209" on="1"/>
        <pt x="76" y="206" on="1"/>
        <pt x="37" y="272" on="1"/>
        <pt x="70" y="277" on="0"/>
      </contour>
    </TTGlyph>
    <TTGlyph name="M" xMin="48" yMin="-58" xMax="669" yMax="554">
      <contour>
        <pt x="349" y="520" on="1"/>
        <pt x="342" y="415" on="0"/>
        <pt x="342" y="381" on="1"/>
        <pt x="342" y="279" on="0"/>
        <pt x="347" y="248" on="1"/>
        <pt x="351" y="221" on="1"/>
        <pt x="479" y="554" on="1"/>
        <pt x="563" y="505" on="0"/>
        <pt x="669" y="484" on="1"/>
        <pt x="665" y="395" on="0"/>
        <pt x="623" y="173" on="0"/>
        <pt x="604" y="107" on="1"/>
        <pt x="585" y="41" on="1"/>
        <pt x="532" y="6" on="0"/>
        <pt x="414" y="-11" on="1"/>
        <pt x="436" y="66" on="0"/>
        <pt x="463" y="208" on="0"/>
        <pt x="466" y="240" on="1"/>
        <pt x="468" y="273" on="1"/>
        <pt x="458" y="252" on="0"/>
        <pt x="425" y="186" on="0"/>
        <pt x="336" y="47" on="0"/>
        <pt x="301" y="17" on="1"/>
        <pt x="282" y="55" on="0"/>
        <pt x="254" y="183" on="0"/>
        <pt x="249" y="228" on="1"/>
        <pt x="244" y="273" on="1"/>
        <pt x="238" y="261" on="0"/>
        <pt x="219" y="215" on="0"/>
        <pt x="188" y="43" on="0"/>
        <pt x="188" y="-58" on="1"/>
        <pt x="176" y="-52" on="0"/>
        <pt x="137" y="-30" on="0"/>
        <pt x="61" y="36" on="0"/>
        <pt x="48" y="68" on="1"/>
        <pt x="57" y="173" on="0"/>
        <pt x="99" y="366" on="0"/>
        <pt x="116" y="410" on="1"/>
        <pt x="132" y="455" on="1"/>
        <pt x="172" y="477" on="0"/>
        <pt x="297" y="516" on="0"/>
      </contour>
    </TTGlyph>
    <TTGlyph name="N" xMin="47" yMin="-25" xMax="596" yMax="550">
      <contour>
        <pt x="382" y="172" on="1"/>
        <pt x="416" y="365" on="0"/>
        <pt x="416" y="494" on="1"/>
        <pt x="416" y="504" on="0"/>
        <pt x="416" y="512" on="1"/>
        <pt x="414" y="550" on="1"/>
        <pt x="521" y="503" on="0"/>
        <pt x="596" y="486" on="1"/>
        <pt x="584" y="362" on="0"/>
        <pt x="539" y="123" on="0"/>
        <pt x="522" y="66" on="1"/>
        <pt x="506" y="9" on="1"/>
        <pt x="438" y="9" on="0"/>
        <pt x="363" y="-15" on="1"/>
        <pt x="338" y="-23" on="1"/>
        <pt x="254" y="279" on="1"/>
        <pt x="225" y="170" on="0"/>
        <pt x="192" y="-25" on="1"/>
        <pt x="153" y="-11" on="0"/>
        <pt x="69" y="42" on="0"/>
        <pt x="47" y="68" on="1"/>
        <pt x="58" y="165" on="0"/>
        <pt x="105" y="359" on="0"/>
        <pt x="124" y="408" on="1"/>
        <pt x="142" y="456" on="1"/>
        <pt x="218" y="484" on="0"/>
        <pt x="321" y="497" on="1"/>
      </contour>
    </TTGlyph>
    <TTGlyph name="Ntilde" xMin="47" yMin="-25" xMax="596" yMax="690">
      <contour>
        <pt x="382" y="172" on="1"/>
        <pt x="416" y="365" on="0"/>
        <pt x="416" y="494" on="1"/>
        <pt x="416" y="504" on="0"/>
        <pt x="416" y="512" on="1"/>
        <pt x="414" y="550" on="1"/>
        <pt x="521" y="503" on="0"/>
        <pt x="596" y="486" on="1"/>
        <pt x="584" y="362" on="0"/>
        <pt x="539" y="123" on="0"/>
        <pt x="522" y="66" on="1"/>
        <pt x="506" y="9" on="1"/>
        <pt x="438" y="9" on="0"/>
        <pt x="363" y="-15" on="1"/>
        <pt x="338" y="-23" on="1"/>
        <pt x="254" y="279" on="1"/>
        <pt x="225" y="170" on="0"/>
        <pt x="192" y="-25" on="1"/>
        <pt x="153" y="-11" on="0"/>
        <pt x="69" y="42" on="0"/>
        <pt x="47" y="68" on="1"/>
        <pt x="58" y="165" on="0"/>
        <pt x="105" y="359" on="0"/>
        <pt x="124" y="408" on="1"/>
        <pt x="142" y="456" on="1"/>
        <pt x="218" y="484" on="0"/>
        <pt x="321" y="497" on="1"/>
      </contour>
      <contour>
        <pt x="195" y="673" on="1"/>
        <pt x="241" y="627" on="0"/>
        <pt x="314" y="627" on="1"/>
        <pt x="326" y="627" on="0"/>
        <pt x="338" y="628" on="1"/>
        <pt x="345" y="635" on="0"/>
        <pt x="369" y="656" on="0"/>
        <pt x="436" y="690" on="0"/>
        <pt x="493" y="690" on="0"/>
        <pt x="522" y="662" on="0"/>
        <pt x="523" y="637" on="0"/>
        <pt x="523" y="627" on="1"/>
        <pt x="523" y="596" on="0"/>
        <pt x="512" y="569" on="1"/>
        <pt x="507" y="555" on="1"/>
        <pt x="503" y="559" on="0"/>
        <pt x="485" y="573" on="0"/>
        <pt x="419" y="592" on="0"/>
        <pt x="377" y="592" on="0"/>
        <pt x="373" y="592" on="1"/>
        <pt x="351" y="570" on="0"/>
        <pt x="282" y="535" on="0"/>
        <pt x="217" y="535" on="0"/>
        <pt x="198" y="549" on="1"/>
        <pt x="175" y="565" on="0"/>
        <pt x="175" y="597" on="1"/>
        <pt x="175" y="631" on="0"/>
        <pt x="188" y="659" on="1"/>
      </contour>
    </TTGlyph>
    <TTGlyph name="O" xMin="56" yMin="-40" xMax="541" yMax="502">
      <contour>
        <pt x="531" y="389" on="1"/>
        <pt x="541" y="353" on="0"/>
        <pt x="541" y="252" on="0"/>
        <pt x="510" y="151" on="0"/>
        <pt x="460" y="82" on="0"/>
        <pt x="400" y="25" on="0"/>
        <pt x="370" y="8" on="1"/>
        <pt x="305" y="-26" on="0"/>
        <pt x="274" y="-36" on="1"/>
        <pt x="258" y="-40" on="1"/>
        <pt x="172" y="-16" on="0"/>
        <pt x="120" y="32" on="1"/>
        <pt x="73" y="75" on="0"/>
        <pt x="62" y="100" on="1"/>
        <pt x="56" y="111" on="1"/>
        <pt x="56" y="201" on="0"/>
        <pt x="95" y="342" on="0"/>
        <pt x="151" y="413" on="0"/>
        <pt x="207" y="458" on="0"/>
        <pt x="226" y="464" on="1"/>
        <pt x="246" y="469" on="1"/>
        <pt x="278" y="433" on="0"/>
        <pt x="345" y="422" on="1"/>
        <pt x="448" y="502" on="1"/>
        <pt x="508" y="472" on="0"/>
      </contour>
      <contour>
        <pt x="257" y="83" on="1"/>
        <pt x="285" y="83" on="0"/>
        <pt x="351" y="146" on="0"/>
        <pt x="370" y="204" on="1"/>
        <pt x="380" y="231" on="0"/>
        <pt x="380" y="301" on="0"/>
        <pt x="368" y="344" on="1"/>
        <pt x="257" y="223" on="0"/>
      </contour>
    </TTGlyph>
    <TTGlyph name="OE" xMin="56" yMin="-40" xMax="834" yMax="527">
      <contour>
        <pt x="541" y="310" on="1"/>
        <pt x="540" y="293" on="1"/>
        <pt x="568" y="261" on="0"/>
        <pt x="694" y="261" on="1"/>
        <pt x="731" y="261" on="0"/>
        <pt x="777" y="264" on="1"/>
        <pt x="777" y="254" on="0"/>
        <pt x="751" y="216" on="0"/>
        <pt x="715" y="192" on="0"/>
        <pt x="640" y="172" on="0"/>
        <pt x="560" y="172" on="0"/>
        <pt x="538" y="175" on="1"/>
        <pt x="527" y="124" on="1"/>
        <pt x="530" y="120" on="0"/>
        <pt x="628" y="120" on="0"/>
        <pt x="749" y="142" on="0"/>
        <pt x="782" y="154" on="1"/>
        <pt x="814" y="165" on="1"/>
        <pt x="805" y="100" on="0"/>
        <pt x="655" y="-14" on="0"/>
        <pt x="542" y="-14" on="1"/>
        <pt x="463" y="-14" on="0"/>
        <pt x="403" y="32" on="1"/>
        <pt x="371" y="8" on="0"/>
        <pt x="299" y="-28" on="0"/>
        <pt x="278" y="-34" on="1"/>
        <pt x="258" y="-40" on="1"/>
        <pt x="172" y="-16" on="0"/>
        <pt x="120" y="32" on="1"/>
        <pt x="73" y="75" on="0"/>
        <pt x="62" y="100" on="1"/>
        <pt x="56" y="111" on="1"/>
        <pt x="56" y="201" on="0"/>
        <pt x="95" y="342" on="0"/>
        <pt x="151" y="413" on="0"/>
        <pt x="207" y="458" on="0"/>
        <pt x="226" y="464" on="1"/>
        <pt x="246" y="469" on="1"/>
        <pt x="278" y="433" on="0"/>
        <pt x="345" y="422" on="1"/>
        <pt x="448" y="502" on="1"/>
        <pt x="468" y="492" on="0"/>
        <pt x="488" y="471" on="1"/>
        <pt x="592" y="527" on="0"/>
        <pt x="769" y="527" on="1"/>
        <pt x="834" y="312" on="1"/>
        <pt x="812" y="318" on="0"/>
        <pt x="677" y="326" on="0"/>
        <pt x="598" y="326" on="0"/>
        <pt x="541" y="320" on="1"/>
      </contour>
      <contour>
        <pt x="257" y="83" on="1"/>
        <pt x="285" y="83" on="0"/>
        <pt x="351" y="146" on="0"/>
        <pt x="370" y="204" on="1"/>
        <pt x="380" y="231" on="0"/>
        <pt x="380" y="301" on="0"/>
        <pt x="368" y="344" on="1"/>
        <pt x="257" y="223" on="0"/>
      </contour>
    </TTGlyph>
    <TTGlyph name="Oacute" xMin="56" yMin="-40" xMax="541" yMax="661">
      <contour>
        <pt x="531" y="389" on="1"/>
        <pt x="541" y="353" on="0"/>
        <pt x="541" y="252" on="0"/>
        <pt x="510" y="151" on="0"/>
        <pt x="460" y="82" on="0"/>
        <pt x="400" y="25" on="0"/>
        <pt x="370" y="8" on="1"/>
        <pt x="305" y="-26" on="0"/>
        <pt x="274" y="-36" on="1"/>
        <pt x="258" y="-40" on="1"/>
        <pt x="172" y="-16" on="0"/>
        <pt x="120" y="32" on="1"/>
        <pt x="73" y="75" on="0"/>
        <pt x="62" y="100" on="1"/>
        <pt x="56" y="111" on="1"/>
        <pt x="56" y="201" on="0"/>
        <pt x="95" y="342" on="0"/>
        <pt x="151" y="413" on="0"/>
        <pt x="207" y="458" on="0"/>
        <pt x="226" y="464" on="1"/>
        <pt x="246" y="469" on="1"/>
        <pt x="278" y="433" on="0"/>
        <pt x="345" y="422" on="1"/>
        <pt x="448" y="502" on="1"/>
        <pt x="508" y="472" on="0"/>
      </contour>
      <contour>
        <pt x="257" y="83" on="1"/>
        <pt x="285" y="83" on="0"/>
        <pt x="351" y="146" on="0"/>
        <pt x="370" y="204" on="1"/>
        <pt x="380" y="231" on="0"/>
        <pt x="380" y="301" on="0"/>
        <pt x="368" y="344" on="1"/>
        <pt x="257" y="223" on="0"/>
      </contour>
      <contour>
        <pt x="428" y="529" on="1"/>
        <pt x="340" y="496" on="0"/>
        <pt x="272" y="496" on="1"/>
        <pt x="197" y="496" on="0"/>
        <pt x="160" y="530" on="1"/>
        <pt x="397" y="661" on="1"/>
      </contour>
    </TTGlyph>
    <TTGlyph name="Ocircumflex" xMin="56" yMin="-40" xMax="541" yMax="651">
      <contour>
        <pt x="531" y="389" on="1"/>
        <pt x="541" y="353" on="0"/>
        <pt x="541" y="252" on="0"/>
        <pt x="510" y="151" on="0"/>
        <pt x="460" y="82" on="0"/>
        <pt x="400" y="25" on="0"/>
        <pt x="370" y="8" on="1"/>
        <pt x="305" y="-26" on="0"/>
        <pt x="274" y="-36" on="1"/>
        <pt x="258" y="-40" on="1"/>
        <pt x="172" y="-16" on="0"/>
        <pt x="120" y="32" on="1"/>
        <pt x="73" y="75" on="0"/>
        <pt x="62" y="100" on="1"/>
        <pt x="56" y="111" on="1"/>
        <pt x="56" y="201" on="0"/>
        <pt x="95" y="342" on="0"/>
        <pt x="151" y="413" on="0"/>
        <pt x="207" y="458" on="0"/>
        <pt x="226" y="464" on="1"/>
        <pt x="246" y="469" on="1"/>
        <pt x="278" y="433" on="0"/>
        <pt x="345" y="422" on="1"/>
        <pt x="448" y="502" on="1"/>
        <pt x="508" y="472" on="0"/>
      </contour>
      <contour>
        <pt x="257" y="83" on="1"/>
        <pt x="285" y="83" on="0"/>
        <pt x="351" y="146" on="0"/>
        <pt x="370" y="204" on="1"/>
        <pt x="380" y="231" on="0"/>
        <pt x="380" y="301" on="0"/>
        <pt x="368" y="344" on="1"/>
        <pt x="257" y="223" on="0"/>
      </contour>
      <contour>
        <pt x="195" y="506" on="1"/>
        <pt x="181" y="494" on="0"/>
        <pt x="175" y="486" on="1"/>
        <pt x="169" y="477" on="1"/>
        <pt x="169" y="531" on="0"/>
        <pt x="202" y="582" on="1"/>
        <pt x="247" y="651" on="0"/>
        <pt x="338" y="651" on="1"/>
        <pt x="373" y="651" on="0"/>
        <pt x="418" y="627" on="0"/>
        <pt x="426" y="610" on="1"/>
        <pt x="439" y="583" on="0"/>
        <pt x="439" y="552" on="0"/>
        <pt x="438" y="547" on="1"/>
        <pt x="436" y="535" on="1"/>
        <pt x="400" y="559" on="0"/>
        <pt x="257" y="559" on="0"/>
      </contour>
    </TTGlyph>
    <TTGlyph name="Odieresis" xMin="56" yMin="-40" xMax="541" yMax="687">
      <contour>
        <pt x="531" y="389" on="1"/>
        <pt x="541" y="353" on="0"/>
        <pt x="541" y="252" on="0"/>
        <pt x="510" y="151" on="0"/>
        <pt x="460" y="82" on="0"/>
        <pt x="400" y="25" on="0"/>
        <pt x="370" y="8" on="1"/>
        <pt x="305" y="-26" on="0"/>
        <pt x="274" y="-36" on="1"/>
        <pt x="258" y="-40" on="1"/>
        <pt x="172" y="-16" on="0"/>
        <pt x="120" y="32" on="1"/>
        <pt x="73" y="75" on="0"/>
        <pt x="62" y="100" on="1"/>
        <pt x="56" y="111" on="1"/>
        <pt x="56" y="201" on="0"/>
        <pt x="95" y="342" on="0"/>
        <pt x="151" y="413" on="0"/>
        <pt x="207" y="458" on="0"/>
        <pt x="226" y="464" on="1"/>
        <pt x="246" y="469" on="1"/>
        <pt x="278" y="433" on="0"/>
        <pt x="345" y="422" on="1"/>
        <pt x="448" y="502" on="1"/>
        <pt x="508" y="472" on="0"/>
      </contour>
      <contour>
        <pt x="257" y="83" on="1"/>
        <pt x="285" y="83" on="0"/>
        <pt x="351" y="146" on="0"/>
        <pt x="370" y="204" on="1"/>
        <pt x="380" y="231" on="0"/>
        <pt x="380" y="301" on="0"/>
        <pt x="368" y="344" on="1"/>
        <pt x="257" y="223" on="0"/>
      </contour>
      <contour>
        <pt x="173" y="638" on="0"/>
        <pt x="208" y="655" on="0"/>
        <pt x="252" y="655" on="0"/>
        <pt x="286" y="629" on="0"/>
        <pt x="294" y="610" on="1"/>
        <pt x="309" y="575" on="0"/>
        <pt x="310" y="541" on="1"/>
        <pt x="311" y="528" on="1"/>
        <pt x="231" y="485" on="1"/>
        <pt x="207" y="485" on="0"/>
        <pt x="159" y="530" on="0"/>
        <pt x="147" y="552" on="1"/>
        <pt x="135" y="575" on="1"/>
        <pt x="136" y="578" on="0"/>
        <pt x="139" y="589" on="0"/>
        <pt x="154" y="617" on="0"/>
      </contour>
      <contour>
        <pt x="454" y="514" on="0"/>
        <pt x="407" y="514" on="0"/>
        <pt x="371" y="531" on="0"/>
        <pt x="362" y="542" on="1"/>
        <pt x="343" y="565" on="0"/>
        <pt x="336" y="595" on="1"/>
        <pt x="439" y="687" on="1"/>
        <pt x="472" y="672" on="0"/>
        <pt x="512" y="608" on="0"/>
        <pt x="516" y="584" on="1"/>
        <pt x="520" y="559" on="1"/>
        <pt x="506" y="542" on="0"/>
      </contour>
    </TTGlyph>
    <TTGlyph name="Ograve" xMin="56" yMin="-40" xMax="541" yMax="642">
      <component glyphName="O" x="0" y="0" flags="0x1004"/>
      <component glyphName="grave" x="86" y="-91" flags="0x1004"/>
    </TTGlyph>
    <TTGlyph name="Omega" xMin="106" yMin="0" xMax="763" yMax="663">
      <contour>
        <pt x="640" y="88" on="1"/>
        <pt x="690" y="88" on="0"/>
        <pt x="706" y="106" on="1"/>
        <pt x="722" y="121" on="0"/>
        <pt x="727" y="173" on="1"/>
        <pt x="749" y="173" on="1"/>
        <pt x="749" y="0" on="1"/>
        <pt x="482" y="0" on="1"/>
        <pt x="482" y="177" on="1"/>
        <pt x="558" y="192" on="0"/>
        <pt x="602" y="252" on="1"/>
        <pt x="647" y="312" on="0"/>
        <pt x="647" y="504" on="0"/>
        <pt x="531" y="628" on="0"/>
        <pt x="339" y="628" on="0"/>
        <pt x="223" y="504" on="0"/>
        <pt x="223" y="311" on="0"/>
        <pt x="309" y="192" on="0"/>
        <pt x="388" y="177" on="1"/>
        <pt x="388" y="0" on="1"/>
        <pt x="120" y="0" on="1"/>
        <pt x="120" y="173" on="1"/>
        <pt x="143" y="173" on="1"/>
        <pt x="146" y="123" on="0"/>
        <pt x="180" y="88" on="0"/>
        <pt x="229" y="88" on="1"/>
        <pt x="350" y="88" on="1"/>
        <pt x="350" y="146" on="1"/>
        <pt x="236" y="167" on="0"/>
        <pt x="170" y="234" on="1"/>
        <pt x="106" y="303" on="0"/>
        <pt x="106" y="401" on="1"/>
        <pt x="106" y="518" on="0"/>
        <pt x="287" y="663" on="0"/>
        <pt x="583" y="663" on="0"/>
        <pt x="763" y="519" on="0"/>
        <pt x="763" y="401" on="1"/>
        <pt x="763" y="301" on="0"/>
        <pt x="633" y="166" on="0"/>
        <pt x="519" y="146" on="1"/>
        <pt x="519" y="88" on="1"/>
      </contour>
    </TTGlyph>
    <TTGlyph name="Oslash" xMin="56" yMin="-137" xMax="541" yMax="624">
      <contour>
        <pt x="235" y="-33" on="1"/>
        <pt x="230" y="-72" on="0"/>
        <pt x="230" y="-119" on="0"/>
        <pt x="230" y="-125" on="1"/>
        <pt x="231" y="-137" on="1"/>
        <pt x="206" y="-133" on="0"/>
        <pt x="147" y="-103" on="0"/>
        <pt x="126" y="-80" on="1"/>
        <pt x="148" y="10" on="1"/>
        <pt x="116" y="32" on="0"/>
        <pt x="70" y="83" on="0"/>
        <pt x="63" y="97" on="1"/>
        <pt x="56" y="111" on="1"/>
        <pt x="56" y="201" on="0"/>
        <pt x="95" y="342" on="0"/>
        <pt x="151" y="413" on="0"/>
        <pt x="207" y="458" on="0"/>
        <pt x="226" y="464" on="1"/>
        <pt x="246" y="469" on="1"/>
        <pt x="263" y="449" on="0"/>
        <pt x="290" y="438" on="1"/>
        <pt x="319" y="555" on="0"/>
        <pt x="331" y="624" on="1"/>
        <pt x="360" y="615" on="0"/>
        <pt x="407" y="585" on="0"/>
        <pt x="416" y="574" on="1"/>
        <pt x="426" y="563" on="1"/>
        <pt x="382" y="450" on="1"/>
        <pt x="448" y="502" on="1"/>
        <pt x="508" y="472" on="0"/>
        <pt x="531" y="389" on="1"/>
        <pt x="541" y="353" on="0"/>
        <pt x="541" y="252" on="0"/>
        <pt x="510" y="151" on="0"/>
        <pt x="460" y="82" on="0"/>
        <pt x="400" y="25" on="0"/>
        <pt x="370" y="8" on="1"/>
        <pt x="305" y="-26" on="0"/>
        <pt x="274" y="-36" on="1"/>
        <pt x="258" y="-40" on="1"/>
      </contour>
      <contour>
        <pt x="257" y="83" on="1"/>
        <pt x="285" y="83" on="0"/>
        <pt x="351" y="146" on="0"/>
        <pt x="370" y="204" on="1"/>
        <pt x="380" y="231" on="0"/>
        <pt x="380" y="301" on="0"/>
        <pt x="368" y="344" on="1"/>
        <pt x="257" y="223" on="0"/>
      </contour>
    </TTGlyph>
    <TTGlyph name="Otilde" xMin="56" yMin="-40" xMax="541" yMax="647">
      <component glyphName="O" x="0" y="0" flags="0x1004"/>
      <component glyphName="tilde" x="122" y="-49" flags="0x1004"/>
    </TTGlyph>
    <TTGlyph name="P" xMin="54" yMin="-56" xMax="602" yMax="525">
      <contour>
        <pt x="96" y="446" on="1"/>
        <pt x="101" y="449" on="0"/>
        <pt x="119" y="460" on="0"/>
        <pt x="182" y="487" on="0"/>
        <pt x="216" y="498" on="1"/>
        <pt x="307" y="525" on="0"/>
        <pt x="414" y="525" on="1"/>
        <pt x="433" y="516" on="0"/>
        <pt x="494" y="468" on="0"/>
        <pt x="540" y="422" on="0"/>
        <pt x="590" y="348" on="0"/>
        <pt x="602" y="309" on="1"/>
        <pt x="575" y="213" on="0"/>
        <pt x="398" y="104" on="0"/>
        <pt x="252" y="99" on="1"/>
        <pt x="228" y="38" on="0"/>
        <pt x="218" y="-33" on="1"/>
        <pt x="214" y="-56" on="1"/>
        <pt x="182" y="-44" on="0"/>
        <pt x="80" y="22" on="0"/>
        <pt x="54" y="52" on="1"/>
        <pt x="120" y="319" on="1"/>
        <pt x="106" y="368" on="0"/>
        <pt x="98" y="426" on="1"/>
      </contour>
      <contour>
        <pt x="275" y="188" on="1"/>
        <pt x="316" y="188" on="0"/>
        <pt x="383" y="211" on="0"/>
        <pt x="402" y="228" on="1"/>
        <pt x="441" y="262" on="0"/>
        <pt x="452" y="290" on="1"/>
        <pt x="456" y="302" on="1"/>
        <pt x="439" y="308" on="0"/>
        <pt x="356" y="317" on="0"/>
        <pt x="317" y="317" on="1"/>
        <pt x="288" y="248" on="0"/>
        <pt x="269" y="188" on="1"/>
      </contour>
    </TTGlyph>
    <TTGlyph name="Q" xMin="55" yMin="-93" xMax="545" yMax="518">
      <contour>
        <pt x="540" y="326" on="1"/>
        <pt x="540" y="136" on="0"/>
        <pt x="377" y="30" on="1"/>
        <pt x="454" y="49" on="0"/>
        <pt x="545" y="64" on="1"/>
        <pt x="504" y="-57" on="1"/>
        <pt x="316" y="-61" on="0"/>
        <pt x="126" y="-93" on="1"/>
        <pt x="129" y="-81" on="0"/>
        <pt x="191" y="-34" on="0"/>
        <pt x="232" y="-16" on="1"/>
        <pt x="154" y="11" on="0"/>
        <pt x="110" y="54" on="1"/>
        <pt x="70" y="95" on="0"/>
        <pt x="60" y="116" on="1"/>
        <pt x="55" y="127" on="1"/>
        <pt x="55" y="217" on="0"/>
        <pt x="94" y="358" on="0"/>
        <pt x="150" y="429" on="0"/>
        <pt x="206" y="474" on="0"/>
        <pt x="226" y="480" on="1"/>
        <pt x="245" y="485" on="1"/>
        <pt x="277" y="449" on="0"/>
        <pt x="344" y="438" on="1"/>
        <pt x="447" y="518" on="1"/>
        <pt x="507" y="488" on="0"/>
        <pt x="530" y="405" on="1"/>
        <pt x="540" y="369" on="0"/>
      </contour>
      <contour>
        <pt x="256" y="99" on="1"/>
        <pt x="284" y="99" on="0"/>
        <pt x="350" y="162" on="0"/>
        <pt x="370" y="220" on="1"/>
        <pt x="379" y="247" on="0"/>
        <pt x="379" y="317" on="0"/>
        <pt x="367" y="360" on="1"/>
        <pt x="256" y="239" on="0"/>
      </contour>
    </TTGlyph>
    <TTGlyph name="R" xMin="60" yMin="-38" xMax="601" yMax="520">
      <contour>
        <pt x="128" y="310" on="1"/>
        <pt x="92" y="438" on="1"/>
        <pt x="135" y="470" on="0"/>
        <pt x="184" y="486" on="1"/>
        <pt x="289" y="520" on="0"/>
        <pt x="397" y="520" on="1"/>
        <pt x="413" y="517" on="0"/>
        <pt x="479" y="482" on="0"/>
        <pt x="528" y="441" on="0"/>
        <pt x="584" y="364" on="0"/>
        <pt x="601" y="317" on="1"/>
        <pt x="588" y="238" on="0"/>
        <pt x="469" y="150" on="0"/>
        <pt x="392" y="136" on="1"/>
        <pt x="428" y="113" on="0"/>
        <pt x="513" y="76" on="0"/>
        <pt x="537" y="70" on="1"/>
        <pt x="561" y="63" on="1"/>
        <pt x="556" y="55" on="0"/>
        <pt x="537" y="31" on="0"/>
        <pt x="462" y="-23" on="0"/>
        <pt x="416" y="-36" on="1"/>
        <pt x="342" y="-8" on="0"/>
        <pt x="290" y="72" on="1"/>
        <pt x="279" y="88" on="0"/>
        <pt x="260" y="119" on="0"/>
        <pt x="258" y="122" on="1"/>
        <pt x="191" y="-38" on="1"/>
        <pt x="180" y="-32" on="1"/>
        <pt x="128" y="-6" on="0"/>
        <pt x="86" y="40" on="1"/>
        <pt x="69" y="59" on="0"/>
        <pt x="60" y="78" on="1"/>
      </contour>
      <contour>
        <pt x="450" y="303" on="1"/>
        <pt x="416" y="317" on="0"/>
        <pt x="352" y="317" on="1"/>
        <pt x="341" y="317" on="0"/>
        <pt x="329" y="316" on="1"/>
        <pt x="277" y="188" on="1"/>
        <pt x="320" y="189" on="0"/>
        <pt x="388" y="213" on="0"/>
        <pt x="405" y="230" on="1"/>
        <pt x="440" y="263" on="0"/>
        <pt x="447" y="292" on="1"/>
      </contour>
    </TTGlyph>
    <TTGlyph name="S" xMin="38" yMin="-27" xMax="524" yMax="513">
      <contour>
        <pt x="517" y="174" on="1"/>
        <pt x="517" y="101" on="0"/>
        <pt x="331" y="-6" on="0"/>
        <pt x="129" y="-27" on="1"/>
        <pt x="122" y="-22" on="0"/>
        <pt x="92" y="16" on="0"/>
        <pt x="81" y="34" on="1"/>
        <pt x="52" y="82" on="0"/>
        <pt x="38" y="146" on="1"/>
        <pt x="132" y="132" on="1"/>
        <pt x="178" y="127" on="0"/>
        <pt x="213" y="127" on="1"/>
        <pt x="324" y="127" on="0"/>
        <pt x="324" y="176" on="1"/>
        <pt x="188" y="188" on="0"/>
        <pt x="74" y="239" on="0"/>
        <pt x="74" y="304" on="1"/>
        <pt x="74" y="399" on="0"/>
        <pt x="300" y="513" on="0"/>
        <pt x="493" y="513" on="1"/>
        <pt x="524" y="300" on="1"/>
        <pt x="420" y="330" on="0"/>
        <pt x="240" y="335" on="1"/>
        <pt x="261" y="305" on="0"/>
        <pt x="359" y="271" on="0"/>
        <pt x="448" y="259" on="0"/>
        <pt x="517" y="215" on="0"/>
      </contour>
    </TTGlyph>
    <TTGlyph name="Scaron" xMin="38" yMin="-27" xMax="524" yMax="707">
      <component glyphName="S" x="0" y="0" flags="0x1004"/>
      <component glyphName="caron" x="111" y="-22" flags="0x1004"/>
    </TTGlyph>
    <TTGlyph name="T" xMin="55" yMin="-32" xMax="521" yMax="500">
      <contour>
        <pt x="115" y="500" on="1"/>
        <pt x="216" y="471" on="0"/>
        <pt x="350" y="471" on="1"/>
        <pt x="441" y="471" on="0"/>
        <pt x="521" y="482" on="1"/>
        <pt x="488" y="427" on="0"/>
        <pt x="481" y="297" on="1"/>
        <pt x="357" y="293" on="1"/>
        <pt x="328" y="135" on="0"/>
        <pt x="318" y="-32" on="1"/>
        <pt x="205" y="-16" on="0"/>
        <pt x="154" y="8" on="1"/>
        <pt x="136" y="17" on="1"/>
        <pt x="208" y="289" on="1"/>
        <pt x="55" y="285" on="1"/>
        <pt x="80" y="316" on="0"/>
        <pt x="110" y="423" on="0"/>
        <pt x="112" y="462" on="1"/>
      </contour>
    </TTGlyph>
    <TTGlyph name="Thorn" xMin="40" yMin="-98" xMax="578" yMax="549">
      <contour>
        <pt x="168" y="509" on="1"/>
        <pt x="394" y="549" on="1"/>
        <pt x="371" y="504" on="0"/>
        <pt x="345" y="435" on="1"/>
        <pt x="389" y="439" on="0"/>
        <pt x="415" y="439" on="1"/>
        <pt x="425" y="435" on="0"/>
        <pt x="482" y="393" on="0"/>
        <pt x="522" y="352" on="0"/>
        <pt x="566" y="282" on="0"/>
        <pt x="578" y="243" on="1"/>
        <pt x="552" y="149" on="0"/>
        <pt x="370" y="39" on="0"/>
        <pt x="226" y="32" on="1"/>
        <pt x="198" y="-98" on="1"/>
        <pt x="115" y="-54" on="0"/>
        <pt x="40" y="16" on="1"/>
        <pt x="99" y="244" on="1"/>
        <pt x="83" y="286" on="0"/>
        <pt x="77" y="328" on="1"/>
        <pt x="75" y="342" on="1"/>
        <pt x="96" y="356" on="0"/>
        <pt x="133" y="374" on="1"/>
      </contour>
      <contour>
        <pt x="379" y="270" on="0"/>
        <pt x="344" y="275" on="0"/>
        <pt x="315" y="275" on="0"/>
        <pt x="289" y="269" on="1"/>
        <pt x="256" y="155" on="0"/>
        <pt x="248" y="122" on="1"/>
        <pt x="251" y="122" on="1"/>
        <pt x="292" y="122" on="0"/>
        <pt x="359" y="145" on="0"/>
        <pt x="378" y="162" on="1"/>
        <pt x="417" y="196" on="0"/>
        <pt x="428" y="224" on="1"/>
        <pt x="432" y="236" on="1"/>
        <pt x="421" y="259" on="0"/>
      </contour>
    </TTGlyph>
    <TTGlyph name="U" xMin="58" yMin="0" xMax="580" yMax="494">
      <contour>
        <pt x="483" y="0" on="1"/>
        <pt x="380" y="0" on="0"/>
        <pt x="354" y="69" on="1"/>
        <pt x="323" y="37" on="0"/>
        <pt x="216" y="3" on="0"/>
        <pt x="173" y="3" on="1"/>
        <pt x="101" y="3" on="0"/>
        <pt x="70" y="9" on="1"/>
        <pt x="59" y="11" on="1"/>
        <pt x="58" y="24" on="0"/>
        <pt x="58" y="53" on="0"/>
        <pt x="59" y="99" on="0"/>
        <pt x="93" y="319" on="0"/>
        <pt x="127" y="434" on="1"/>
        <pt x="169" y="455" on="0"/>
        <pt x="305" y="493" on="0"/>
        <pt x="358" y="494" on="1"/>
        <pt x="347" y="475" on="0"/>
        <pt x="313" y="407" on="0"/>
        <pt x="248" y="211" on="0"/>
        <pt x="239" y="122" on="1"/>
        <pt x="341" y="158" on="1"/>
        <pt x="342" y="242" on="0"/>
        <pt x="368" y="379" on="0"/>
        <pt x="380" y="405" on="1"/>
        <pt x="393" y="431" on="1"/>
        <pt x="469" y="401" on="0"/>
        <pt x="580" y="401" on="1"/>
        <pt x="536" y="281" on="0"/>
        <pt x="500" y="94" on="0"/>
        <pt x="500" y="47" on="0"/>
        <pt x="500" y="42" on="1"/>
        <pt x="503" y="2" on="1"/>
        <pt x="495" y="0" on="0"/>
      </contour>
    </TTGlyph>
    <TTGlyph name="Uacute" xMin="58" yMin="0" xMax="580" yMax="690">
      <component glyphName="U" x="0" y="0" flags="0x1004"/>
      <component glyphName="acute" x="138" y="-43" flags="0x1004"/>
    </TTGlyph>
    <TTGlyph name="Ucircumflex" xMin="57" yMin="0" xMax="579" yMax="648">
      <contour>
        <pt x="482" y="0" on="1"/>
        <pt x="379" y="0" on="0"/>
        <pt x="353" y="69" on="1"/>
        <pt x="322" y="37" on="0"/>
        <pt x="215" y="3" on="0"/>
        <pt x="172" y="3" on="1"/>
        <pt x="100" y="3" on="0"/>
        <pt x="68" y="9" on="1"/>
        <pt x="58" y="11" on="1"/>
        <pt x="57" y="24" on="0"/>
        <pt x="57" y="53" on="0"/>
        <pt x="58" y="99" on="0"/>
        <pt x="92" y="319" on="0"/>
        <pt x="126" y="434" on="1"/>
        <pt x="168" y="455" on="0"/>
        <pt x="304" y="493" on="0"/>
        <pt x="357" y="494" on="1"/>
        <pt x="346" y="475" on="0"/>
        <pt x="312" y="407" on="0"/>
        <pt x="247" y="211" on="0"/>
        <pt x="238" y="122" on="1"/>
        <pt x="340" y="158" on="1"/>
        <pt x="341" y="242" on="0"/>
        <pt x="367" y="379" on="0"/>
        <pt x="380" y="405" on="1"/>
        <pt x="392" y="431" on="1"/>
        <pt x="468" y="401" on="0"/>
        <pt x="579" y="401" on="1"/>
        <pt x="535" y="281" on="0"/>
        <pt x="499" y="94" on="0"/>
        <pt x="499" y="47" on="0"/>
        <pt x="500" y="42" on="1"/>
        <pt x="502" y="2" on="1"/>
        <pt x="494" y="0" on="0"/>
      </contour>
      <contour>
        <pt x="180" y="503" on="1"/>
        <pt x="166" y="491" on="0"/>
        <pt x="160" y="482" on="1"/>
        <pt x="154" y="474" on="1"/>
        <pt x="154" y="528" on="0"/>
        <pt x="187" y="579" on="1"/>
        <pt x="232" y="648" on="0"/>
        <pt x="323" y="648" on="1"/>
        <pt x="358" y="648" on="0"/>
        <pt x="403" y="624" on="0"/>
        <pt x="411" y="607" on="1"/>
        <pt x="424" y="580" on="0"/>
        <pt x="424" y="549" on="0"/>
        <pt x="423" y="544" on="1"/>
        <pt x="421" y="532" on="1"/>
        <pt x="385" y="556" on="0"/>
        <pt x="242" y="556" on="0"/>
      </contour>
    </TTGlyph>
    <TTGlyph name="Udieresis" xMin="58" yMin="0" xMax="580" yMax="712">
      <component glyphName="U" x="0" y="0" flags="0x1004"/>
      <component glyphName="dieresis" x="76" y="-30" flags="0x1004"/>
    </TTGlyph>
    <TTGlyph name="Ugrave" xMin="58" yMin="0" xMax="580" yMax="664">
      <contour>
        <pt x="483" y="0" on="1"/>
        <pt x="380" y="0" on="0"/>
        <pt x="354" y="69" on="1"/>
        <pt x="323" y="37" on="0"/>
        <pt x="216" y="3" on="0"/>
        <pt x="173" y="3" on="1"/>
        <pt x="101" y="3" on="0"/>
        <pt x="70" y="9" on="1"/>
        <pt x="59" y="11" on="1"/>
        <pt x="58" y="24" on="0"/>
        <pt x="58" y="53" on="0"/>
        <pt x="59" y="99" on="0"/>
        <pt x="93" y="319" on="0"/>
        <pt x="127" y="434" on="1"/>
        <pt x="169" y="455" on="0"/>
        <pt x="305" y="493" on="0"/>
        <pt x="358" y="494" on="1"/>
        <pt x="347" y="475" on="0"/>
        <pt x="313" y="407" on="0"/>
        <pt x="248" y="211" on="0"/>
        <pt x="239" y="122" on="1"/>
        <pt x="341" y="158" on="1"/>
        <pt x="342" y="242" on="0"/>
        <pt x="368" y="379" on="0"/>
        <pt x="380" y="405" on="1"/>
        <pt x="393" y="431" on="1"/>
        <pt x="469" y="401" on="0"/>
        <pt x="580" y="401" on="1"/>
        <pt x="536" y="281" on="0"/>
        <pt x="500" y="94" on="0"/>
        <pt x="500" y="47" on="0"/>
        <pt x="500" y="42" on="1"/>
        <pt x="503" y="2" on="1"/>
        <pt x="495" y="0" on="0"/>
      </contour>
      <contour>
        <pt x="473" y="558" on="1"/>
        <pt x="376" y="514" on="0"/>
        <pt x="305" y="514" on="1"/>
        <pt x="241" y="514" on="0"/>
        <pt x="214" y="527" on="1"/>
        <pt x="204" y="532" on="1"/>
        <pt x="235" y="664" on="1"/>
      </contour>
    </TTGlyph>
    <TTGlyph name="V" xMin="89" yMin="-23" xMax="563" yMax="524">
      <contour>
        <pt x="101" y="180" on="0"/>
        <pt x="90" y="298" on="0"/>
        <pt x="89" y="354" on="0"/>
        <pt x="89" y="401" on="0"/>
        <pt x="93" y="426" on="1"/>
        <pt x="97" y="455" on="1"/>
        <pt x="108" y="461" on="0"/>
        <pt x="147" y="481" on="0"/>
        <pt x="270" y="519" on="0"/>
        <pt x="333" y="524" on="1"/>
        <pt x="276" y="395" on="0"/>
        <pt x="276" y="254" on="1"/>
        <pt x="276" y="170" on="0"/>
        <pt x="295" y="107" on="1"/>
        <pt x="335" y="176" on="0"/>
        <pt x="392" y="358" on="0"/>
        <pt x="400" y="414" on="1"/>
        <pt x="409" y="471" on="1"/>
        <pt x="479" y="457" on="0"/>
        <pt x="530" y="410" on="1"/>
        <pt x="551" y="390" on="0"/>
        <pt x="563" y="367" on="1"/>
        <pt x="563" y="346" on="0"/>
        <pt x="541" y="263" on="0"/>
        <pt x="513" y="196" on="0"/>
        <pt x="454" y="110" on="0"/>
        <pt x="377" y="43" on="0"/>
        <pt x="256" y="-12" on="0"/>
        <pt x="182" y="-23" on="1"/>
        <pt x="145" y="37" on="0"/>
      </contour>
    </TTGlyph>
    <TTGlyph name="W" xMin="82" yMin="-39" xMax="707" yMax="507">
      <contour>
        <pt x="339" y="252" on="1"/>
        <pt x="333" y="314" on="0"/>
        <pt x="333" y="366" on="1"/>
        <pt x="333" y="384" on="1"/>
        <pt x="374" y="408" on="0"/>
        <pt x="457" y="434" on="1"/>
        <pt x="457" y="228" on="0"/>
        <pt x="471" y="158" on="1"/>
        <pt x="476" y="133" on="1"/>
        <pt x="533" y="252" on="0"/>
        <pt x="533" y="393" on="1"/>
        <pt x="533" y="446" on="0"/>
        <pt x="525" y="502" on="1"/>
        <pt x="700" y="446" on="1"/>
        <pt x="706" y="404" on="0"/>
        <pt x="706" y="365" on="1"/>
        <pt x="706" y="242" on="0"/>
        <pt x="648" y="138" on="1"/>
        <pt x="570" y="2" on="0"/>
        <pt x="436" y="-28" on="1"/>
        <pt x="415" y="-6" on="0"/>
        <pt x="370" y="94" on="0"/>
        <pt x="363" y="133" on="1"/>
        <pt x="326" y="78" on="0"/>
        <pt x="232" y="-8" on="0"/>
        <pt x="204" y="-24" on="1"/>
        <pt x="176" y="-39" on="1"/>
        <pt x="135" y="11" on="0"/>
        <pt x="89" y="148" on="0"/>
        <pt x="82" y="254" on="0"/>
        <pt x="82" y="282" on="1"/>
        <pt x="82" y="370" on="0"/>
        <pt x="90" y="412" on="1"/>
        <pt x="96" y="445" on="1"/>
        <pt x="109" y="452" on="0"/>
        <pt x="153" y="473" on="0"/>
        <pt x="275" y="507" on="0"/>
        <pt x="328" y="507" on="1"/>
        <pt x="269" y="356" on="0"/>
        <pt x="269" y="219" on="1"/>
        <pt x="269" y="184" on="0"/>
        <pt x="273" y="150" on="1"/>
        <pt x="325" y="210" on="0"/>
      </contour>
    </TTGlyph>
    <TTGlyph name="X" xMin="43" yMin="-50" xMax="586" yMax="540">
      <contour>
        <pt x="195" y="-35" on="1"/>
        <pt x="43" y="69" on="1"/>
        <pt x="64" y="118" on="0"/>
        <pt x="124" y="192" on="0"/>
        <pt x="162" y="220" on="0"/>
        <pt x="196" y="241" on="1"/>
        <pt x="179" y="275" on="0"/>
        <pt x="149" y="308" on="0"/>
        <pt x="128" y="328" on="0"/>
        <pt x="108" y="341" on="0"/>
        <pt x="89" y="352" on="0"/>
        <pt x="74" y="359" on="0"/>
        <pt x="62" y="363" on="0"/>
        <pt x="57" y="365" on="1"/>
        <pt x="248" y="534" on="1"/>
        <pt x="316" y="452" on="0"/>
        <pt x="316" y="240" on="1"/>
        <pt x="354" y="268" on="0"/>
        <pt x="405" y="418" on="0"/>
        <pt x="412" y="479" on="1"/>
        <pt x="419" y="540" on="1"/>
        <pt x="586" y="409" on="1"/>
        <pt x="586" y="363" on="0"/>
        <pt x="507" y="242" on="0"/>
        <pt x="451" y="215" on="1"/>
        <pt x="459" y="171" on="0"/>
        <pt x="514" y="81" on="0"/>
        <pt x="538" y="58" on="1"/>
        <pt x="561" y="35" on="1"/>
        <pt x="473" y="19" on="0"/>
        <pt x="371" y="-50" on="1"/>
        <pt x="326" y="54" on="0"/>
        <pt x="316" y="162" on="1"/>
        <pt x="265" y="162" on="0"/>
      </contour>
    </TTGlyph>
    <TTGlyph name="Y" xMin="35" yMin="-43" xMax="557" yMax="540">
      <contour>
        <pt x="191" y="530" on="1"/>
        <pt x="281" y="418" on="0"/>
        <pt x="281" y="243" on="1"/>
        <pt x="281" y="217" on="0"/>
        <pt x="278" y="189" on="1"/>
        <pt x="316" y="224" on="0"/>
        <pt x="368" y="323" on="0"/>
        <pt x="377" y="368" on="1"/>
        <pt x="393" y="445" on="0"/>
        <pt x="393" y="508" on="0"/>
        <pt x="392" y="516" on="1"/>
        <pt x="390" y="540" on="1"/>
        <pt x="557" y="409" on="1"/>
        <pt x="557" y="242" on="0"/>
        <pt x="383" y="177" on="1"/>
        <pt x="362" y="-5" on="1"/>
        <pt x="112" y="-43" on="1"/>
        <pt x="136" y="-3" on="0"/>
        <pt x="173" y="124" on="0"/>
        <pt x="173" y="216" on="0"/>
        <pt x="145" y="279" on="0"/>
        <pt x="124" y="296" on="1"/>
        <pt x="84" y="329" on="0"/>
        <pt x="49" y="337" on="1"/>
        <pt x="35" y="340" on="1"/>
        <pt x="89" y="389" on="0"/>
        <pt x="167" y="484" on="0"/>
        <pt x="179" y="507" on="1"/>
      </contour>
    </TTGlyph>
    <TTGlyph name="Yacute" xMin="35" yMin="-43" xMax="557" yMax="721">
      <component glyphName="Y" x="0" y="0" flags="0x1004"/>
      <component glyphName="acute" x="100" y="-12" flags="0x1004"/>
    </TTGlyph>
    <TTGlyph name="Ydieresis" xMin="35" yMin="-43" xMax="557" yMax="744">
      <component glyphName="Y" x="0" y="0" flags="0x1004"/>
      <component glyphName="dieresis" x="12" y="2" flags="0x1004"/>
    </TTGlyph>
    <TTGlyph name="Z" xMin="49" yMin="6" xMax="544" yMax="517">
      <contour>
        <pt x="484" y="17" on="1"/>
        <pt x="379" y="24" on="0"/>
        <pt x="327" y="24" on="1"/>
        <pt x="179" y="24" on="0"/>
        <pt x="103" y="14" on="1"/>
        <pt x="49" y="6" on="1"/>
        <pt x="282" y="311" on="1"/>
        <pt x="215" y="310" on="0"/>
        <pt x="110" y="273" on="0"/>
        <pt x="91" y="255" on="1"/>
        <pt x="72" y="237" on="1"/>
        <pt x="76" y="315" on="0"/>
        <pt x="117" y="455" on="0"/>
        <pt x="136" y="486" on="1"/>
        <pt x="154" y="517" on="1"/>
        <pt x="164" y="511" on="0"/>
        <pt x="230" y="490" on="0"/>
        <pt x="271" y="486" on="1"/>
        <pt x="356" y="479" on="0"/>
        <pt x="476" y="479" on="0"/>
        <pt x="544" y="486" on="1"/>
        <pt x="327" y="160" on="1"/>
        <pt x="379" y="164" on="0"/>
        <pt x="478" y="207" on="0"/>
        <pt x="501" y="226" on="1"/>
        <pt x="524" y="246" on="1"/>
        <pt x="484" y="101" on="0"/>
      </contour>
    </TTGlyph>
    <TTGlyph name="Zcaron" xMin="49" yMin="6" xMax="544" yMax="704">
      <contour>
        <pt x="484" y="17" on="1"/>
        <pt x="379" y="24" on="0"/>
        <pt x="327" y="24" on="1"/>
        <pt x="179" y="24" on="0"/>
        <pt x="103" y="14" on="1"/>
        <pt x="49" y="6" on="1"/>
        <pt x="282" y="311" on="1"/>
        <pt x="215" y="310" on="0"/>
        <pt x="110" y="273" on="0"/>
        <pt x="91" y="255" on="1"/>
        <pt x="72" y="237" on="1"/>
        <pt x="76" y="315" on="0"/>
        <pt x="117" y="455" on="0"/>
        <pt x="136" y="486" on="1"/>
        <pt x="154" y="517" on="1"/>
        <pt x="164" y="511" on="0"/>
        <pt x="230" y="490" on="0"/>
        <pt x="271" y="486" on="1"/>
        <pt x="356" y="479" on="0"/>
        <pt x="476" y="479" on="0"/>
        <pt x="544" y="486" on="1"/>
        <pt x="327" y="160" on="1"/>
        <pt x="379" y="164" on="0"/>
        <pt x="478" y="207" on="0"/>
        <pt x="501" y="226" on="1"/>
        <pt x="524" y="246" on="1"/>
        <pt x="484" y="101" on="0"/>
      </contour>
      <contour>
        <pt x="322" y="682" on="1"/>
        <pt x="356" y="606" on="1"/>
        <pt x="509" y="697" on="1"/>
        <pt x="509" y="625" on="0"/>
        <pt x="422" y="564" on="1"/>
        <pt x="386" y="539" on="0"/>
        <pt x="335" y="520" on="1"/>
        <pt x="297" y="552" on="0"/>
        <pt x="251" y="644" on="0"/>
        <pt x="246" y="674" on="1"/>
        <pt x="242" y="704" on="1"/>
        <pt x="294" y="682" on="0"/>
      </contour>
    </TTGlyph>
    <TTGlyph name="a" xMin="43" yMin="-20" xMax="481" yMax="402">
      <contour>
        <pt x="420" y="167" on="1"/>
        <pt x="420" y="83" on="0"/>
        <pt x="440" y="20" on="1"/>
        <pt x="353" y="-20" on="1"/>
        <pt x="290" y="-5" on="0"/>
        <pt x="277" y="62" on="1"/>
        <pt x="251" y="32" on="0"/>
        <pt x="188" y="-10" on="0"/>
        <pt x="167" y="-10" on="1"/>
        <pt x="120" y="-10" on="0"/>
        <pt x="43" y="74" on="0"/>
        <pt x="43" y="150" on="0"/>
        <pt x="75" y="235" on="0"/>
        <pt x="133" y="314" on="0"/>
        <pt x="231" y="365" on="0"/>
        <pt x="325" y="365" on="0"/>
        <pt x="346" y="350" on="1"/>
        <pt x="372" y="402" on="1"/>
        <pt x="407" y="389" on="0"/>
        <pt x="461" y="344" on="0"/>
        <pt x="471" y="328" on="1"/>
        <pt x="481" y="312" on="1"/>
        <pt x="466" y="255" on="0"/>
        <pt x="431" y="200" on="1"/>
        <pt x="420" y="182" on="1"/>
        <pt x="420" y="174" on="0"/>
      </contour>
      <contour>
        <pt x="188" y="89" on="1"/>
        <pt x="230" y="89" on="0"/>
        <pt x="277" y="138" on="1"/>
        <pt x="289" y="219" on="0"/>
        <pt x="329" y="311" on="1"/>
        <pt x="253" y="269" on="0"/>
        <pt x="215" y="202" on="1"/>
        <pt x="184" y="147" on="0"/>
        <pt x="184" y="107" on="1"/>
        <pt x="184" y="98" on="0"/>
        <pt x="186" y="89" on="1"/>
        <pt x="187" y="89" on="0"/>
      </contour>
    </TTGlyph>
    <TTGlyph name="aacute" xMin="43" yMin="-20" xMax="481" yMax="579">
      <component glyphName="a" x="0" y="0" flags="0x1004"/>
      <component glyphName="acute" x="82" y="-154" flags="0x1004"/>
    </TTGlyph>
    <TTGlyph name="acircumflex" xMin="43" yMin="-20" xMax="481" yMax="539">
      <component glyphName="a" x="0" y="0" flags="0x1004"/>
      <component glyphName="circumflex" x="116" y="-203" flags="0x1004"/>
    </TTGlyph>
    <TTGlyph name="acute" xMin="91" yMin="567" xMax="359" yMax="733">
      <contour>
        <pt x="359" y="601" on="1"/>
        <pt x="271" y="568" on="0"/>
        <pt x="203" y="568" on="1"/>
        <pt x="128" y="568" on="0"/>
        <pt x="91" y="602" on="1"/>
        <pt x="328" y="733" on="1"/>
      </contour>
    </TTGlyph>
    <TTGlyph name="adieresis" xMin="43" yMin="-20" xMax="492" yMax="601">
      <contour>
        <pt x="420" y="167" on="1"/>
        <pt x="420" y="83" on="0"/>
        <pt x="440" y="20" on="1"/>
        <pt x="353" y="-20" on="1"/>
        <pt x="290" y="-5" on="0"/>
        <pt x="277" y="62" on="1"/>
        <pt x="251" y="32" on="0"/>
        <pt x="188" y="-10" on="0"/>
        <pt x="167" y="-10" on="1"/>
        <pt x="120" y="-10" on="0"/>
        <pt x="43" y="74" on="0"/>
        <pt x="43" y="150" on="0"/>
        <pt x="75" y="235" on="0"/>
        <pt x="133" y="314" on="0"/>
        <pt x="231" y="365" on="0"/>
        <pt x="325" y="365" on="0"/>
        <pt x="346" y="350" on="1"/>
        <pt x="372" y="402" on="1"/>
        <pt x="407" y="389" on="0"/>
        <pt x="461" y="344" on="0"/>
        <pt x="471" y="328" on="1"/>
        <pt x="481" y="312" on="1"/>
        <pt x="466" y="255" on="0"/>
        <pt x="431" y="200" on="1"/>
        <pt x="420" y="182" on="1"/>
        <pt x="420" y="174" on="0"/>
      </contour>
      <contour>
        <pt x="188" y="89" on="1"/>
        <pt x="230" y="89" on="0"/>
        <pt x="277" y="138" on="1"/>
        <pt x="289" y="219" on="0"/>
        <pt x="329" y="311" on="1"/>
        <pt x="253" y="269" on="0"/>
        <pt x="215" y="202" on="1"/>
        <pt x="184" y="147" on="0"/>
        <pt x="184" y="107" on="1"/>
        <pt x="184" y="98" on="0"/>
        <pt x="186" y="89" on="1"/>
        <pt x="187" y="89" on="0"/>
      </contour>
      <contour>
        <pt x="145" y="552" on="0"/>
        <pt x="180" y="569" on="0"/>
        <pt x="224" y="569" on="0"/>
        <pt x="258" y="543" on="0"/>
        <pt x="266" y="524" on="1"/>
        <pt x="281" y="489" on="0"/>
        <pt x="282" y="455" on="1"/>
        <pt x="283" y="442" on="1"/>
        <pt x="203" y="399" on="1"/>
        <pt x="179" y="399" on="0"/>
        <pt x="131" y="444" on="0"/>
        <pt x="119" y="466" on="1"/>
        <pt x="107" y="489" on="1"/>
        <pt x="108" y="492" on="0"/>
        <pt x="111" y="503" on="0"/>
        <pt x="126" y="531" on="0"/>
      </contour>
      <contour>
        <pt x="426" y="428" on="0"/>
        <pt x="379" y="428" on="0"/>
        <pt x="343" y="445" on="0"/>
        <pt x="334" y="456" on="1"/>
        <pt x="315" y="479" on="0"/>
        <pt x="308" y="509" on="1"/>
        <pt x="411" y="601" on="1"/>
        <pt x="444" y="586" on="0"/>
        <pt x="484" y="522" on="0"/>
        <pt x="488" y="498" on="1"/>
        <pt x="492" y="473" on="1"/>
        <pt x="478" y="456" on="0"/>
      </contour>
    </TTGlyph>
    <TTGlyph name="ae" xMin="43" yMin="-38" xMax="663" yMax="402">
      <contour>
        <pt x="425" y="78" on="1"/>
        <pt x="436" y="77" on="0"/>
        <pt x="482" y="77" on="0"/>
        <pt x="576" y="100" on="0"/>
        <pt x="606" y="114" on="1"/>
        <pt x="637" y="129" on="1"/>
        <pt x="639" y="119" on="0"/>
        <pt x="639" y="110" on="1"/>
        <pt x="639" y="71" on="0"/>
        <pt x="604" y="32" on="1"/>
        <pt x="561" y="-17" on="0"/>
        <pt x="458" y="-38" on="1"/>
        <pt x="445" y="-36" on="0"/>
        <pt x="401" y="-27" on="0"/>
        <pt x="304" y="18" on="0"/>
        <pt x="276" y="49" on="1"/>
        <pt x="250" y="25" on="0"/>
        <pt x="183" y="-10" on="0"/>
        <pt x="167" y="-10" on="1"/>
        <pt x="120" y="-10" on="0"/>
        <pt x="43" y="74" on="0"/>
        <pt x="43" y="150" on="0"/>
        <pt x="75" y="235" on="0"/>
        <pt x="133" y="314" on="0"/>
        <pt x="231" y="365" on="0"/>
        <pt x="325" y="365" on="0"/>
        <pt x="346" y="350" on="1"/>
        <pt x="372" y="402" on="1"/>
        <pt x="423" y="381" on="0"/>
        <pt x="457" y="345" on="1"/>
        <pt x="515" y="360" on="0"/>
        <pt x="562" y="383" on="1"/>
        <pt x="576" y="390" on="1"/>
        <pt x="613" y="369" on="0"/>
        <pt x="656" y="297" on="0"/>
        <pt x="660" y="272" on="1"/>
        <pt x="663" y="246" on="1"/>
        <pt x="635" y="183" on="0"/>
        <pt x="503" y="115" on="0"/>
        <pt x="431" y="110" on="1"/>
      </contour>
      <contour>
        <pt x="188" y="89" on="1"/>
        <pt x="230" y="89" on="0"/>
        <pt x="277" y="138" on="1"/>
        <pt x="289" y="219" on="0"/>
        <pt x="329" y="311" on="1"/>
        <pt x="253" y="269" on="0"/>
        <pt x="215" y="202" on="1"/>
        <pt x="184" y="147" on="0"/>
        <pt x="184" y="107" on="1"/>
        <pt x="184" y="98" on="0"/>
        <pt x="186" y="89" on="1"/>
        <pt x="187" y="89" on="0"/>
      </contour>
      <contour>
        <pt x="506" y="205" on="1"/>
        <pt x="519" y="225" on="0"/>
        <pt x="519" y="251" on="0"/>
        <pt x="502" y="266" on="0"/>
        <pt x="478" y="266" on="0"/>
        <pt x="467" y="264" on="1"/>
        <pt x="460" y="239" on="0"/>
        <pt x="431" y="155" on="1"/>
        <pt x="478" y="162" on="0"/>
      </contour>
    </TTGlyph>
    <TTGlyph name="agrave" xMin="43" yMin="-20" xMax="481" yMax="562">
      <contour>
        <pt x="420" y="167" on="1"/>
        <pt x="420" y="83" on="0"/>
        <pt x="440" y="20" on="1"/>
        <pt x="353" y="-20" on="1"/>
        <pt x="290" y="-5" on="0"/>
        <pt x="277" y="62" on="1"/>
        <pt x="251" y="32" on="0"/>
        <pt x="188" y="-10" on="0"/>
        <pt x="167" y="-10" on="1"/>
        <pt x="120" y="-10" on="0"/>
        <pt x="43" y="74" on="0"/>
        <pt x="43" y="150" on="0"/>
        <pt x="75" y="235" on="0"/>
        <pt x="133" y="314" on="0"/>
        <pt x="231" y="365" on="0"/>
        <pt x="325" y="365" on="0"/>
        <pt x="346" y="350" on="1"/>
        <pt x="372" y="402" on="1"/>
        <pt x="407" y="389" on="0"/>
        <pt x="461" y="344" on="0"/>
        <pt x="471" y="328" on="1"/>
        <pt x="481" y="312" on="1"/>
        <pt x="466" y="255" on="0"/>
        <pt x="431" y="200" on="1"/>
        <pt x="420" y="182" on="1"/>
        <pt x="420" y="174" on="0"/>
      </contour>
      <contour>
        <pt x="188" y="89" on="1"/>
        <pt x="230" y="89" on="0"/>
        <pt x="277" y="138" on="1"/>
        <pt x="289" y="219" on="0"/>
        <pt x="329" y="311" on="1"/>
        <pt x="253" y="269" on="0"/>
        <pt x="215" y="202" on="1"/>
        <pt x="184" y="147" on="0"/>
        <pt x="184" y="107" on="1"/>
        <pt x="184" y="98" on="0"/>
        <pt x="186" y="89" on="1"/>
        <pt x="187" y="89" on="0"/>
      </contour>
      <contour>
        <pt x="437" y="456" on="1"/>
        <pt x="340" y="412" on="0"/>
        <pt x="269" y="412" on="1"/>
        <pt x="205" y="412" on="0"/>
        <pt x="178" y="425" on="1"/>
        <pt x="168" y="430" on="1"/>
        <pt x="199" y="562" on="1"/>
      </contour>
    </TTGlyph>
    <TTGlyph name="ampersand" xMin="70" yMin="-46" xMax="830" yMax="501">
      <contour>
        <pt x="388" y="318" on="1"/>
        <pt x="280" y="318" on="0"/>
        <pt x="223" y="290" on="1"/>
        <pt x="223" y="227" on="0"/>
        <pt x="320" y="220" on="1"/>
        <pt x="327" y="219" on="0"/>
        <pt x="335" y="219" on="1"/>
        <pt x="384" y="219" on="0"/>
        <pt x="459" y="241" on="1"/>
        <pt x="456" y="229" on="0"/>
        <pt x="431" y="194" on="0"/>
        <pt x="398" y="170" on="0"/>
        <pt x="335" y="150" on="0"/>
        <pt x="266" y="150" on="0"/>
        <pt x="242" y="153" on="1"/>
        <pt x="216" y="86" on="1"/>
        <pt x="266" y="74" on="0"/>
        <pt x="312" y="74" on="1"/>
        <pt x="457" y="74" on="0"/>
        <pt x="560" y="196" on="1"/>
        <pt x="559" y="202" on="0"/>
        <pt x="559" y="215" on="1"/>
        <pt x="489" y="215" on="1"/>
        <pt x="514" y="236" on="0"/>
        <pt x="558" y="260" on="1"/>
        <pt x="561" y="341" on="0"/>
        <pt x="595" y="437" on="1"/>
        <pt x="738" y="467" on="1"/>
        <pt x="738" y="404" on="0"/>
        <pt x="686" y="314" on="1"/>
        <pt x="752" y="334" on="0"/>
        <pt x="830" y="337" on="1"/>
        <pt x="799" y="287" on="0"/>
        <pt x="765" y="216" on="1"/>
        <pt x="662" y="215" on="1"/>
        <pt x="658" y="178" on="0"/>
        <pt x="658" y="73" on="0"/>
        <pt x="672" y="4" on="1"/>
        <pt x="666" y="6" on="0"/>
        <pt x="634" y="33" on="0"/>
        <pt x="622" y="46" on="1"/>
        <pt x="593" y="80" on="0"/>
        <pt x="575" y="131" on="1"/>
        <pt x="476" y="-46" on="0"/>
        <pt x="251" y="-46" on="1"/>
        <pt x="196" y="-46" on="0"/>
        <pt x="118" y="-18" on="0"/>
        <pt x="101" y="4" on="1"/>
        <pt x="70" y="46" on="0"/>
        <pt x="70" y="81" on="1"/>
        <pt x="70" y="122" on="0"/>
        <pt x="96" y="164" on="1"/>
        <pt x="106" y="181" on="0"/>
        <pt x="120" y="192" on="0"/>
        <pt x="124" y="196" on="1"/>
        <pt x="119" y="199" on="0"/>
        <pt x="102" y="213" on="0"/>
        <pt x="78" y="261" on="0"/>
        <pt x="78" y="292" on="1"/>
        <pt x="78" y="363" on="0"/>
        <pt x="128" y="412" on="1"/>
        <pt x="222" y="501" on="0"/>
        <pt x="421" y="501" on="1"/>
        <pt x="512" y="303" on="1"/>
        <pt x="453" y="318" on="0"/>
      </contour>
    </TTGlyph>
    <TTGlyph name="apple" xMin="200" yMin="-57" xMax="1427" yMax="630">
      <contour>
        <pt x="1029" y="358" on="1"/>
        <pt x="1034" y="264" on="1"/>
        <pt x="921" y="264" on="1"/>
        <pt x="921" y="424" on="0"/>
        <pt x="929" y="477" on="1"/>
        <pt x="932" y="497" on="1"/>
        <pt x="1008" y="497" on="1"/>
        <pt x="1014" y="455" on="0"/>
        <pt x="1014" y="423" on="1"/>
        <pt x="1016" y="433" on="1"/>
        <pt x="1034" y="501" on="0"/>
        <pt x="1095" y="501" on="1"/>
        <pt x="1135" y="501" on="0"/>
        <pt x="1168" y="454" on="0"/>
        <pt x="1169" y="400" on="1"/>
        <pt x="1171" y="264" on="1"/>
        <pt x="1059" y="264" on="1"/>
        <pt x="1061" y="358" on="1"/>
        <pt x="1061" y="383" on="0"/>
        <pt x="1046" y="383" on="1"/>
        <pt x="1029" y="383" on="0"/>
      </contour>
      <contour>
        <pt x="318" y="264" on="1"/>
        <pt x="202" y="264" on="1"/>
        <pt x="202" y="402" on="0"/>
        <pt x="210" y="532" on="1"/>
        <pt x="213" y="571" on="1"/>
        <pt x="308" y="571" on="1"/>
        <pt x="318" y="434" on="0"/>
      </contour>
      <contour>
        <pt x="1306" y="501" on="1"/>
        <pt x="1375" y="501" on="0"/>
        <pt x="1427" y="435" on="0"/>
        <pt x="1427" y="322" on="0"/>
        <pt x="1366" y="258" on="0"/>
        <pt x="1247" y="258" on="0"/>
        <pt x="1186" y="322" on="0"/>
        <pt x="1186" y="377" on="1"/>
        <pt x="1186" y="501" on="0"/>
      </contour>
      <contour>
        <pt x="1283" y="336" on="0"/>
        <pt x="1330" y="336" on="0"/>
        <pt x="1330" y="393" on="0"/>
        <pt x="1283" y="393" on="0"/>
      </contour>
      <contour>
        <pt x="469" y="501" on="1"/>
        <pt x="585" y="501" on="0"/>
        <pt x="585" y="389" on="1"/>
        <pt x="585" y="264" on="1"/>
        <pt x="509" y="264" on="1"/>
        <pt x="500" y="322" on="1"/>
        <pt x="488" y="258" on="0"/>
        <pt x="426" y="258" on="1"/>
        <pt x="337" y="258" on="0"/>
        <pt x="337" y="370" on="1"/>
        <pt x="337" y="435" on="0"/>
        <pt x="399" y="501" on="0"/>
      </contour>
      <contour>
        <pt x="464" y="336" on="1"/>
        <pt x="488" y="336" on="0"/>
        <pt x="488" y="393" on="0"/>
        <pt x="464" y="393" on="1"/>
        <pt x="443" y="393" on="0"/>
        <pt x="443" y="336" on="0"/>
      </contour>
      <contour>
        <pt x="822" y="233" on="1"/>
        <pt x="857" y="233" on="0"/>
        <pt x="900" y="174" on="0"/>
        <pt x="900" y="55" on="0"/>
        <pt x="834" y="-15" on="0"/>
        <pt x="773" y="-15" on="1"/>
        <pt x="775" y="-30" on="0"/>
        <pt x="775" y="-57" on="1"/>
        <pt x="648" y="-57" on="1"/>
        <pt x="648" y="82" on="0"/>
        <pt x="656" y="192" on="1"/>
        <pt x="659" y="225" on="1"/>
        <pt x="737" y="225" on="1"/>
        <pt x="744" y="174" on="0"/>
        <pt x="744" y="150" on="1"/>
        <pt x="758" y="233" on="0"/>
      </contour>
      <contour>
        <pt x="796" y="102" on="1"/>
        <pt x="796" y="123" on="0"/>
        <pt x="777" y="123" on="1"/>
        <pt x="754" y="123" on="0"/>
        <pt x="754" y="93" on="1"/>
        <pt x="758" y="66" on="1"/>
        <pt x="772" y="66" on="0"/>
        <pt x="796" y="87" on="0"/>
      </contour>
      <contour>
        <pt x="1081" y="59" on="1"/>
        <pt x="1103" y="59" on="0"/>
        <pt x="1122" y="74" on="1"/>
        <pt x="1122" y="1" on="1"/>
        <pt x="1101" y="-15" on="0"/>
        <pt x="983" y="-15" on="0"/>
        <pt x="917" y="50" on="0"/>
        <pt x="917" y="106" on="1"/>
        <pt x="917" y="233" on="0"/>
        <pt x="1040" y="233" on="1"/>
        <pt x="1092" y="233" on="0"/>
        <pt x="1152" y="172" on="0"/>
        <pt x="1152" y="119" on="1"/>
        <pt x="1147" y="83" on="1"/>
        <pt x="1027" y="83" on="1"/>
        <pt x="1027" y="59" on="0"/>
      </contour>
      <contour>
        <pt x="1021" y="108" on="1"/>
        <pt x="1060" y="108" on="1"/>
        <pt x="1061" y="111" on="0"/>
        <pt x="1061" y="116" on="1"/>
        <pt x="1061" y="135" on="0"/>
        <pt x="1043" y="135" on="1"/>
        <pt x="1021" y="135" on="0"/>
      </contour>
      <contour>
        <pt x="619" y="322" on="1"/>
        <pt x="621" y="408" on="1"/>
        <pt x="598" y="408" on="1"/>
        <pt x="598" y="491" on="1"/>
        <pt x="714" y="527" on="1"/>
        <pt x="718" y="497" on="1"/>
        <pt x="890" y="497" on="1"/>
        <pt x="898" y="434" on="0"/>
        <pt x="898" y="264" on="1"/>
        <pt x="784" y="264" on="1"/>
        <pt x="784" y="374" on="0"/>
        <pt x="786" y="408" on="1"/>
        <pt x="729" y="408" on="1"/>
        <pt x="731" y="345" on="1"/>
        <pt x="733" y="343" on="0"/>
        <pt x="742" y="343" on="1"/>
        <pt x="759" y="347" on="1"/>
        <pt x="759" y="275" on="1"/>
        <pt x="752" y="258" on="0"/>
        <pt x="697" y="258" on="1"/>
        <pt x="619" y="258" on="0"/>
      </contour>
      <contour>
        <pt x="816" y="510" on="0"/>
        <pt x="782" y="545" on="0"/>
        <pt x="782" y="595" on="0"/>
        <pt x="816" y="630" on="0"/>
        <pt x="866" y="630" on="0"/>
        <pt x="900" y="595" on="0"/>
        <pt x="900" y="545" on="0"/>
        <pt x="866" y="510" on="0"/>
      </contour>
      <contour>
        <pt x="225" y="49" on="1"/>
        <pt x="227" y="131" on="1"/>
        <pt x="200" y="131" on="1"/>
        <pt x="200" y="214" on="1"/>
        <pt x="321" y="254" on="1"/>
        <pt x="325" y="225" on="1"/>
        <pt x="490" y="225" on="1"/>
        <pt x="488" y="123" on="0"/>
        <pt x="488" y="119" on="1"/>
        <pt x="488" y="93" on="0"/>
        <pt x="519" y="93" on="0"/>
        <pt x="519" y="119" on="1"/>
        <pt x="517" y="225" on="1"/>
        <pt x="623" y="225" on="1"/>
        <pt x="629" y="167" on="0"/>
        <pt x="629" y="9" on="0"/>
        <pt x="557" y="-57" on="0"/>
        <pt x="418" y="-57" on="0"/>
        <pt x="386" y="-36" on="1"/>
        <pt x="386" y="47" on="1"/>
        <pt x="411" y="28" on="0"/>
        <pt x="487" y="28" on="0"/>
        <pt x="523" y="46" on="0"/>
        <pt x="526" y="55" on="1"/>
        <pt x="530" y="64" on="1"/>
        <pt x="519" y="49" on="0"/>
        <pt x="473" y="49" on="1"/>
        <pt x="380" y="49" on="0"/>
        <pt x="380" y="123" on="1"/>
        <pt x="380" y="131" on="1"/>
        <pt x="335" y="131" on="1"/>
        <pt x="337" y="70" on="1"/>
        <pt x="353" y="70" on="0"/>
        <pt x="365" y="76" on="1"/>
        <pt x="365" y="2" on="1"/>
        <pt x="347" y="-15" on="0"/>
        <pt x="298" y="-15" on="1"/>
        <pt x="225" y="-15" on="0"/>
      </contour>
      <contour>
        <pt x="1229" y="197" on="1"/>
        <pt x="1229" y="188" on="0"/>
        <pt x="1221" y="185" on="1"/>
        <pt x="1229" y="172" on="1"/>
        <pt x="1220" y="172" on="1"/>
        <pt x="1213" y="183" on="1"/>
        <pt x="1206" y="183" on="1"/>
        <pt x="1206" y="172" on="1"/>
        <pt x="1198" y="172" on="1"/>
        <pt x="1198" y="209" on="1"/>
        <pt x="1214" y="209" on="1"/>
        <pt x="1229" y="209" on="0"/>
      </contour>
      <contour>
        <pt x="1221" y="190" on="0"/>
        <pt x="1221" y="202" on="0"/>
        <pt x="1214" y="202" on="1"/>
        <pt x="1206" y="202" on="1"/>
        <pt x="1206" y="190" on="1"/>
        <pt x="1214" y="190" on="1"/>
      </contour>
      <contour>
        <pt x="1175" y="175" on="0"/>
        <pt x="1175" y="205" on="0"/>
        <pt x="1197" y="227" on="0"/>
        <pt x="1227" y="227" on="0"/>
        <pt x="1249" y="205" on="0"/>
        <pt x="1249" y="175" on="0"/>
        <pt x="1227" y="153" on="0"/>
        <pt x="1197" y="153" on="0"/>
      </contour>
      <contour>
        <pt x="1182" y="202" on="0"/>
        <pt x="1182" y="178" on="0"/>
        <pt x="1200" y="160" on="0"/>
        <pt x="1224" y="160" on="0"/>
        <pt x="1242" y="178" on="0"/>
        <pt x="1242" y="202" on="0"/>
        <pt x="1224" y="220" on="0"/>
        <pt x="1200" y="220" on="0"/>
      </contour>
    </TTGlyph>
    <TTGlyph name="approxequal" xMin="52" yMin="41" xMax="571" yMax="439">
      <contour>
        <pt x="125" y="191" on="0"/>
        <pt x="165" y="174" on="0"/>
        <pt x="221" y="166" on="0"/>
        <pt x="258" y="166" on="0"/>
        <pt x="273" y="167" on="1"/>
        <pt x="282" y="176" on="0"/>
        <pt x="315" y="204" on="0"/>
        <pt x="405" y="251" on="0"/>
        <pt x="483" y="251" on="0"/>
        <pt x="502" y="232" on="1"/>
        <pt x="524" y="211" on="0"/>
        <pt x="524" y="182" on="1"/>
        <pt x="524" y="127" on="0"/>
        <pt x="509" y="87" on="1"/>
        <pt x="502" y="68" on="1"/>
        <pt x="468" y="102" on="0"/>
        <pt x="390" y="114" on="1"/>
        <pt x="363" y="118" on="0"/>
        <pt x="327" y="118" on="0"/>
        <pt x="321" y="118" on="1"/>
        <pt x="297" y="91" on="0"/>
        <pt x="198" y="41" on="0"/>
        <pt x="109" y="41" on="0"/>
        <pt x="56" y="80" on="0"/>
        <pt x="54" y="107" on="1"/>
        <pt x="53" y="116" on="0"/>
        <pt x="53" y="130" on="1"/>
        <pt x="53" y="171" on="0"/>
        <pt x="70" y="208" on="1"/>
        <pt x="79" y="228" on="1"/>
        <pt x="86" y="218" on="0"/>
      </contour>
      <contour>
        <pt x="172" y="379" on="0"/>
        <pt x="212" y="362" on="0"/>
        <pt x="268" y="354" on="0"/>
        <pt x="305" y="354" on="0"/>
        <pt x="320" y="355" on="1"/>
        <pt x="329" y="364" on="0"/>
        <pt x="362" y="392" on="0"/>
        <pt x="452" y="439" on="0"/>
        <pt x="530" y="439" on="0"/>
        <pt x="550" y="420" on="1"/>
        <pt x="571" y="399" on="0"/>
        <pt x="571" y="370" on="1"/>
        <pt x="571" y="315" on="0"/>
        <pt x="556" y="275" on="1"/>
        <pt x="549" y="256" on="1"/>
        <pt x="515" y="290" on="0"/>
        <pt x="437" y="302" on="1"/>
        <pt x="410" y="306" on="0"/>
        <pt x="374" y="306" on="0"/>
        <pt x="368" y="306" on="1"/>
        <pt x="344" y="279" on="0"/>
        <pt x="245" y="229" on="0"/>
        <pt x="156" y="229" on="0"/>
        <pt x="103" y="268" on="0"/>
        <pt x="100" y="295" on="1"/>
        <pt x="100" y="304" on="0"/>
        <pt x="100" y="318" on="1"/>
        <pt x="100" y="359" on="0"/>
        <pt x="117" y="396" on="1"/>
        <pt x="126" y="416" on="1"/>
        <pt x="133" y="406" on="0"/>
      </contour>
    </TTGlyph>
    <TTGlyph name="aring" xMin="43" yMin="-20" xMax="481" yMax="589">
      <contour>
        <pt x="420" y="167" on="1"/>
        <pt x="420" y="83" on="0"/>
        <pt x="440" y="20" on="1"/>
        <pt x="353" y="-20" on="1"/>
        <pt x="290" y="-5" on="0"/>
        <pt x="277" y="62" on="1"/>
        <pt x="251" y="32" on="0"/>
        <pt x="188" y="-10" on="0"/>
        <pt x="167" y="-10" on="1"/>
        <pt x="120" y="-10" on="0"/>
        <pt x="43" y="74" on="0"/>
        <pt x="43" y="150" on="0"/>
        <pt x="75" y="235" on="0"/>
        <pt x="133" y="314" on="0"/>
        <pt x="231" y="365" on="0"/>
        <pt x="325" y="365" on="0"/>
        <pt x="346" y="350" on="1"/>
        <pt x="372" y="402" on="1"/>
        <pt x="407" y="389" on="0"/>
        <pt x="461" y="344" on="0"/>
        <pt x="471" y="328" on="1"/>
        <pt x="481" y="312" on="1"/>
        <pt x="466" y="255" on="0"/>
        <pt x="431" y="200" on="1"/>
        <pt x="420" y="182" on="1"/>
        <pt x="420" y="174" on="0"/>
      </contour>
      <contour>
        <pt x="188" y="89" on="1"/>
        <pt x="230" y="89" on="0"/>
        <pt x="277" y="138" on="1"/>
        <pt x="289" y="219" on="0"/>
        <pt x="329" y="311" on="1"/>
        <pt x="253" y="269" on="0"/>
        <pt x="215" y="202" on="1"/>
        <pt x="184" y="147" on="0"/>
        <pt x="184" y="107" on="1"/>
        <pt x="184" y="98" on="0"/>
        <pt x="186" y="89" on="1"/>
        <pt x="187" y="89" on="0"/>
      </contour>
      <contour>
        <pt x="148" y="527" on="0"/>
        <pt x="223" y="589" on="0"/>
        <pt x="342" y="589" on="0"/>
        <pt x="407" y="540" on="0"/>
        <pt x="407" y="454" on="0"/>
        <pt x="326" y="396" on="0"/>
        <pt x="206" y="396" on="0"/>
        <pt x="148" y="455" on="0"/>
        <pt x="148" y="482" on="1"/>
      </contour>
      <contour>
        <pt x="229" y="500" on="1"/>
        <pt x="228" y="494" on="0"/>
        <pt x="228" y="473" on="0"/>
        <pt x="257" y="452" on="0"/>
        <pt x="284" y="452" on="1"/>
        <pt x="339" y="452" on="0"/>
        <pt x="339" y="486" on="1"/>
        <pt x="339" y="513" on="0"/>
        <pt x="250" y="513" on="0"/>
      </contour>
    </TTGlyph>
    <TTGlyph name="asciicircum" xMin="85" yMin="505" xMax="327" yMax="677">
      <contour>
        <pt x="305" y="621" on="0"/>
        <pt x="322" y="575" on="0"/>
        <pt x="327" y="541" on="0"/>
        <pt x="327" y="524" on="0"/>
        <pt x="326" y="518" on="1"/>
        <pt x="324" y="505" on="1"/>
        <pt x="225" y="581" on="1"/>
        <pt x="157" y="529" on="0"/>
        <pt x="85" y="520" on="1"/>
        <pt x="222" y="677" on="1"/>
        <pt x="258" y="665" on="0"/>
      </contour>
    </TTGlyph>
    <TTGlyph name="asciitilde" xMin="72" yMin="195" xMax="544" yMax="405">
      <contour>
        <pt x="145" y="345" on="0"/>
        <pt x="185" y="328" on="0"/>
        <pt x="241" y="320" on="0"/>
        <pt x="278" y="320" on="0"/>
        <pt x="293" y="321" on="1"/>
        <pt x="302" y="330" on="0"/>
        <pt x="335" y="358" on="0"/>
        <pt x="425" y="405" on="0"/>
        <pt x="503" y="405" on="0"/>
        <pt x="522" y="386" on="1"/>
        <pt x="544" y="365" on="0"/>
        <pt x="544" y="336" on="1"/>
        <pt x="544" y="281" on="0"/>
        <pt x="529" y="241" on="1"/>
        <pt x="522" y="222" on="1"/>
        <pt x="488" y="256" on="0"/>
        <pt x="410" y="268" on="1"/>
        <pt x="383" y="272" on="0"/>
        <pt x="347" y="272" on="0"/>
        <pt x="341" y="272" on="1"/>
        <pt x="317" y="245" on="0"/>
        <pt x="218" y="195" on="0"/>
        <pt x="129" y="195" on="0"/>
        <pt x="76" y="234" on="0"/>
        <pt x="74" y="261" on="1"/>
        <pt x="73" y="270" on="0"/>
        <pt x="73" y="284" on="1"/>
        <pt x="73" y="325" on="0"/>
        <pt x="90" y="362" on="1"/>
        <pt x="99" y="382" on="1"/>
        <pt x="106" y="372" on="0"/>
      </contour>
    </TTGlyph>
    <TTGlyph name="asterisk" xMin="93" yMin="116" xMax="470" yMax="536">
      <contour>
        <pt x="296" y="136" on="1"/>
        <pt x="256" y="116" on="0"/>
        <pt x="183" y="116" on="1"/>
        <pt x="213" y="180" on="0"/>
        <pt x="237" y="282" on="1"/>
        <pt x="209" y="265" on="0"/>
        <pt x="164" y="211" on="0"/>
        <pt x="156" y="192" on="1"/>
        <pt x="148" y="174" on="1"/>
        <pt x="109" y="217" on="0"/>
        <pt x="97" y="253" on="1"/>
        <pt x="93" y="265" on="1"/>
        <pt x="102" y="280" on="0"/>
        <pt x="165" y="319" on="0"/>
        <pt x="201" y="330" on="1"/>
        <pt x="185" y="350" on="0"/>
        <pt x="131" y="383" on="0"/>
        <pt x="112" y="389" on="1"/>
        <pt x="93" y="395" on="1"/>
        <pt x="139" y="438" on="0"/>
        <pt x="201" y="458" on="1"/>
        <pt x="233" y="417" on="0"/>
        <pt x="254" y="365" on="1"/>
        <pt x="267" y="445" on="0"/>
        <pt x="267" y="524" on="1"/>
        <pt x="310" y="536" on="0"/>
        <pt x="377" y="536" on="1"/>
        <pt x="348" y="462" on="0"/>
        <pt x="324" y="360" on="1"/>
        <pt x="356" y="381" on="0"/>
        <pt x="396" y="439" on="0"/>
        <pt x="400" y="457" on="1"/>
        <pt x="405" y="475" on="1"/>
        <pt x="429" y="460" on="0"/>
        <pt x="462" y="417" on="0"/>
        <pt x="466" y="403" on="1"/>
        <pt x="470" y="389" on="1"/>
        <pt x="432" y="351" on="0"/>
        <pt x="383" y="328" on="1"/>
        <pt x="366" y="320" on="1"/>
        <pt x="381" y="300" on="0"/>
        <pt x="433" y="267" on="0"/>
        <pt x="451" y="260" on="1"/>
        <pt x="469" y="254" on="1"/>
        <pt x="430" y="208" on="0"/>
        <pt x="369" y="196" on="1"/>
        <pt x="330" y="235" on="0"/>
        <pt x="308" y="279" on="1"/>
        <pt x="296" y="210" on="0"/>
      </contour>
    </TTGlyph>
    <TTGlyph name="at" xMin="58" yMin="-140" xMax="716" yMax="562">
      <contour>
        <pt x="426" y="443" on="1"/>
        <pt x="293" y="443" on="0"/>
        <pt x="159" y="302" on="0"/>
        <pt x="159" y="176" on="1"/>
        <pt x="159" y="28" on="0"/>
        <pt x="241" y="-18" on="1"/>
        <pt x="291" y="-46" on="0"/>
        <pt x="364" y="-46" on="1"/>
        <pt x="394" y="-46" on="0"/>
        <pt x="417" y="-43" on="1"/>
        <pt x="500" y="-33" on="0"/>
        <pt x="534" y="-31" on="1"/>
        <pt x="483" y="-90" on="0"/>
        <pt x="390" y="-120" on="1"/>
        <pt x="331" y="-140" on="0"/>
        <pt x="244" y="-140" on="0"/>
        <pt x="167" y="-114" on="0"/>
        <pt x="99" y="-54" on="0"/>
        <pt x="58" y="64" on="0"/>
        <pt x="58" y="203" on="0"/>
        <pt x="90" y="320" on="0"/>
        <pt x="112" y="361" on="1"/>
        <pt x="158" y="444" on="0"/>
        <pt x="197" y="483" on="1"/>
        <pt x="213" y="499" on="1"/>
        <pt x="371" y="562" on="0"/>
        <pt x="479" y="562" on="1"/>
        <pt x="603" y="562" on="0"/>
        <pt x="716" y="437" on="0"/>
        <pt x="716" y="232" on="0"/>
        <pt x="594" y="43" on="0"/>
        <pt x="525" y="43" on="1"/>
        <pt x="466" y="43" on="0"/>
        <pt x="452" y="124" on="1"/>
        <pt x="400" y="45" on="0"/>
        <pt x="335" y="13" on="1"/>
        <pt x="328" y="16" on="0"/>
        <pt x="305" y="28" on="0"/>
        <pt x="250" y="82" on="0"/>
        <pt x="232" y="119" on="1"/>
        <pt x="232" y="196" on="0"/>
        <pt x="282" y="280" on="1"/>
        <pt x="307" y="320" on="0"/>
        <pt x="396" y="372" on="0"/>
        <pt x="451" y="372" on="1"/>
        <pt x="478" y="372" on="0"/>
        <pt x="498" y="363" on="1"/>
        <pt x="528" y="382" on="0"/>
        <pt x="561" y="382" on="1"/>
        <pt x="550" y="131" on="1"/>
        <pt x="562" y="147" on="0"/>
        <pt x="596" y="199" on="0"/>
        <pt x="653" y="329" on="0"/>
        <pt x="653" y="376" on="1"/>
        <pt x="646" y="383" on="0"/>
        <pt x="594" y="411" on="0"/>
        <pt x="570" y="420" on="1"/>
        <pt x="507" y="443" on="0"/>
      </contour>
      <contour>
        <pt x="448" y="171" on="1"/>
        <pt x="448" y="175" on="0"/>
        <pt x="448" y="229" on="0"/>
        <pt x="461" y="302" on="1"/>
        <pt x="402" y="260" on="0"/>
        <pt x="351" y="158" on="0"/>
        <pt x="351" y="125" on="1"/>
        <pt x="351" y="116" on="0"/>
        <pt x="353" y="108" on="1"/>
        <pt x="400" y="121" on="0"/>
      </contour>
    </TTGlyph>
    <TTGlyph name="atilde" xMin="43" yMin="-20" xMax="481" yMax="551">
      <component glyphName="a" x="0" y="0" flags="0x1004"/>
      <component glyphName="tilde" x="80" y="-145" flags="0x1004"/>
    </TTGlyph>
    <TTGlyph name="b" xMin="44" yMin="-22" xMax="494" yMax="551">
      <contour>
        <pt x="44" y="72" on="1"/>
        <pt x="128" y="502" on="1"/>
        <pt x="230" y="534" on="0"/>
        <pt x="300" y="546" on="1"/>
        <pt x="325" y="551" on="1"/>
        <pt x="265" y="382" on="0"/>
        <pt x="225" y="245" on="1"/>
        <pt x="257" y="290" on="0"/>
        <pt x="330" y="362" on="0"/>
        <pt x="350" y="375" on="1"/>
        <pt x="370" y="388" on="1"/>
        <pt x="380" y="384" on="0"/>
        <pt x="411" y="370" on="0"/>
        <pt x="478" y="315" on="0"/>
        <pt x="494" y="282" on="1"/>
        <pt x="483" y="181" on="0"/>
        <pt x="298" y="0" on="0"/>
        <pt x="170" y="-22" on="1"/>
      </contour>
      <contour>
        <pt x="324" y="273" on="1"/>
        <pt x="300" y="273" on="0"/>
        <pt x="199" y="143" on="1"/>
        <pt x="190" y="107" on="0"/>
        <pt x="190" y="71" on="0"/>
        <pt x="198" y="70" on="1"/>
        <pt x="226" y="70" on="0"/>
        <pt x="299" y="172" on="0"/>
        <pt x="330" y="252" on="0"/>
        <pt x="330" y="273" on="0"/>
      </contour>
    </TTGlyph>
    <TTGlyph name="backslash" xMin="106" yMin="-62" xMax="468" yMax="530">
      <contour>
        <pt x="106" y="499" on="1"/>
        <pt x="117" y="498" on="0"/>
        <pt x="155" y="498" on="0"/>
        <pt x="219" y="512" on="0"/>
        <pt x="236" y="521" on="1"/>
        <pt x="254" y="530" on="1"/>
        <pt x="333" y="328" on="0"/>
        <pt x="468" y="23" on="1"/>
        <pt x="407" y="-10" on="0"/>
        <pt x="362" y="-50" on="1"/>
        <pt x="348" y="-62" on="1"/>
      </contour>
    </TTGlyph>
    <TTGlyph name="bar" xMin="73" yMin="-122" xMax="295" yMax="666">
      <contour>
        <pt x="73" y="-33" on="1"/>
        <pt x="139" y="441" on="0"/>
        <pt x="139" y="666" on="1"/>
        <pt x="178" y="647" on="0"/>
        <pt x="295" y="635" on="1"/>
        <pt x="250" y="468" on="0"/>
        <pt x="197" y="90" on="0"/>
        <pt x="192" y="-16" on="1"/>
        <pt x="188" y="-122" on="1"/>
        <pt x="142" y="-99" on="0"/>
      </contour>
    </TTGlyph>
    <TTGlyph name="braceleft" xMin="46" yMin="-30" xMax="361" yMax="523">
      <contour>
        <pt x="322" y="-1" on="1"/>
        <pt x="299" y="-30" on="0"/>
        <pt x="206" y="-30" on="0"/>
        <pt x="156" y="10" on="0"/>
        <pt x="130" y="71" on="0"/>
        <pt x="119" y="102" on="1"/>
        <pt x="91" y="183" on="0"/>
        <pt x="46" y="201" on="1"/>
        <pt x="97" y="225" on="0"/>
        <pt x="122" y="328" on="1"/>
        <pt x="132" y="368" on="0"/>
        <pt x="160" y="450" on="0"/>
        <pt x="228" y="513" on="0"/>
        <pt x="283" y="523" on="1"/>
        <pt x="295" y="495" on="0"/>
        <pt x="334" y="449" on="0"/>
        <pt x="348" y="440" on="1"/>
        <pt x="361" y="431" on="1"/>
        <pt x="288" y="386" on="0"/>
        <pt x="217" y="286" on="0"/>
        <pt x="190" y="208" on="1"/>
        <pt x="226" y="203" on="0"/>
        <pt x="232" y="102" on="1"/>
        <pt x="235" y="64" on="0"/>
        <pt x="278" y="0" on="0"/>
      </contour>
    </TTGlyph>
    <TTGlyph name="braceright" xMin="45" yMin="-50" xMax="360" yMax="503">
      <contour>
        <pt x="84" y="474" on="1"/>
        <pt x="107" y="503" on="0"/>
        <pt x="200" y="503" on="0"/>
        <pt x="250" y="463" on="0"/>
        <pt x="276" y="402" on="0"/>
        <pt x="287" y="370" on="1"/>
        <pt x="315" y="290" on="0"/>
        <pt x="360" y="272" on="1"/>
        <pt x="309" y="248" on="0"/>
        <pt x="284" y="146" on="1"/>
        <pt x="274" y="105" on="0"/>
        <pt x="246" y="23" on="0"/>
        <pt x="178" y="-40" on="0"/>
        <pt x="123" y="-50" on="1"/>
        <pt x="111" y="-22" on="0"/>
        <pt x="72" y="24" on="0"/>
        <pt x="58" y="33" on="1"/>
        <pt x="45" y="42" on="1"/>
        <pt x="118" y="87" on="0"/>
        <pt x="189" y="187" on="0"/>
        <pt x="216" y="265" on="1"/>
        <pt x="180" y="270" on="0"/>
        <pt x="174" y="372" on="1"/>
        <pt x="171" y="409" on="0"/>
        <pt x="128" y="473" on="0"/>
      </contour>
    </TTGlyph>
    <TTGlyph name="bracketleft" xMin="40" yMin="-46" xMax="339" yMax="490">
      <contour>
        <pt x="113" y="456" on="1"/>
        <pt x="208" y="483" on="0"/>
        <pt x="339" y="490" on="1"/>
        <pt x="323" y="348" on="1"/>
        <pt x="234" y="372" on="1"/>
        <pt x="199" y="75" on="1"/>
        <pt x="298" y="56" on="1"/>
        <pt x="262" y="12" on="0"/>
        <pt x="220" y="-32" on="1"/>
        <pt x="206" y="-46" on="1"/>
        <pt x="118" y="-22" on="0"/>
        <pt x="40" y="35" on="1"/>
        <pt x="67" y="99" on="0"/>
        <pt x="103" y="310" on="0"/>
        <pt x="108" y="383" on="1"/>
      </contour>
    </TTGlyph>
    <TTGlyph name="bracketright" xMin="41" yMin="-16" xMax="340" yMax="520">
      <contour>
        <pt x="267" y="18" on="1"/>
        <pt x="172" y="-9" on="0"/>
        <pt x="41" y="-16" on="1"/>
        <pt x="57" y="126" on="1"/>
        <pt x="146" y="102" on="1"/>
        <pt x="181" y="399" on="1"/>
        <pt x="82" y="418" on="1"/>
        <pt x="118" y="462" on="0"/>
        <pt x="160" y="506" on="1"/>
        <pt x="174" y="520" on="1"/>
        <pt x="262" y="496" on="0"/>
        <pt x="340" y="439" on="1"/>
        <pt x="313" y="375" on="0"/>
        <pt x="277" y="164" on="0"/>
        <pt x="272" y="91" on="1"/>
      </contour>
    </TTGlyph>
    <TTGlyph name="breve" xMin="50" yMin="568" xMax="318" yMax="721">
      <contour>
        <pt x="51" y="663" on="1"/>
        <pt x="87" y="639" on="0"/>
        <pt x="189" y="639" on="0"/>
        <pt x="272" y="680" on="0"/>
        <pt x="295" y="700" on="1"/>
        <pt x="318" y="721" on="1"/>
        <pt x="315" y="705" on="0"/>
        <pt x="284" y="641" on="0"/>
        <pt x="250" y="601" on="0"/>
        <pt x="187" y="568" on="0"/>
        <pt x="118" y="568" on="0"/>
        <pt x="75" y="588" on="0"/>
        <pt x="66" y="602" on="1"/>
        <pt x="49" y="630" on="0"/>
        <pt x="50" y="653" on="1"/>
      </contour>
    </TTGlyph>
    <TTGlyph name="brokenbar" xMin="73" yMin="-122" xMax="315" yMax="666">
      <contour>
        <pt x="247" y="232" on="1"/>
        <pt x="224" y="60" on="0"/>
        <pt x="220" y="-79" on="1"/>
        <pt x="218" y="-122" on="1"/>
        <pt x="142" y="-99" on="0"/>
        <pt x="73" y="-33" on="1"/>
        <pt x="93" y="108" on="0"/>
        <pt x="111" y="273" on="1"/>
        <pt x="126" y="258" on="0"/>
        <pt x="206" y="232" on="0"/>
      </contour>
      <contour>
        <pt x="118" y="344" on="1"/>
        <pt x="139" y="549" on="0"/>
        <pt x="139" y="666" on="1"/>
        <pt x="198" y="647" on="0"/>
        <pt x="315" y="635" on="1"/>
        <pt x="283" y="516" on="0"/>
        <pt x="251" y="307" on="1"/>
        <pt x="199" y="344" on="0"/>
      </contour>
    </TTGlyph>
    <TTGlyph name="bullet" xMin="77" yMin="119" xMax="272" yMax="313">
      <contour>
        <pt x="272" y="226" on="1"/>
        <pt x="272" y="187" on="0"/>
        <pt x="219" y="119" on="0"/>
        <pt x="125" y="119" on="0"/>
        <pt x="77" y="183" on="0"/>
        <pt x="77" y="211" on="1"/>
        <pt x="78" y="215" on="0"/>
        <pt x="80" y="229" on="0"/>
        <pt x="95" y="264" on="0"/>
        <pt x="117" y="291" on="0"/>
        <pt x="159" y="313" on="0"/>
        <pt x="186" y="313" on="1"/>
        <pt x="192" y="297" on="0"/>
        <pt x="242" y="253" on="0"/>
        <pt x="271" y="240" on="1"/>
        <pt x="272" y="233" on="0"/>
      </contour>
    </TTGlyph>
    <TTGlyph name="c" xMin="34" yMin="-31" xMax="434" yMax="397">
      <contour>
        <pt x="398" y="376" on="1"/>
        <pt x="433" y="397" on="1"/>
        <pt x="434" y="379" on="0"/>
        <pt x="434" y="344" on="1"/>
        <pt x="434" y="264" on="0"/>
        <pt x="384" y="185" on="1"/>
        <pt x="305" y="207" on="0"/>
        <pt x="249" y="250" on="1"/>
        <pt x="211" y="185" on="0"/>
        <pt x="209" y="86" on="1"/>
        <pt x="235" y="86" on="0"/>
        <pt x="360" y="128" on="1"/>
        <pt x="401" y="142" on="1"/>
        <pt x="401" y="124" on="0"/>
        <pt x="378" y="71" on="0"/>
        <pt x="340" y="29" on="0"/>
        <pt x="254" y="-18" on="0"/>
        <pt x="195" y="-31" on="1"/>
        <pt x="155" y="-25" on="0"/>
        <pt x="55" y="28" on="0"/>
        <pt x="34" y="60" on="1"/>
        <pt x="41" y="125" on="0"/>
        <pt x="76" y="236" on="0"/>
        <pt x="96" y="270" on="1"/>
        <pt x="139" y="339" on="0"/>
        <pt x="168" y="360" on="1"/>
        <pt x="180" y="370" on="1"/>
        <pt x="239" y="347" on="0"/>
        <pt x="353" y="347" on="0"/>
      </contour>
    </TTGlyph>
    <TTGlyph name="caron" xMin="90" yMin="545" xMax="357" yMax="729">
      <contour>
        <pt x="170" y="707" on="1"/>
        <pt x="204" y="631" on="1"/>
        <pt x="357" y="722" on="1"/>
        <pt x="357" y="650" on="0"/>
        <pt x="270" y="590" on="1"/>
        <pt x="234" y="564" on="0"/>
        <pt x="183" y="545" on="1"/>
        <pt x="145" y="577" on="0"/>
        <pt x="99" y="669" on="0"/>
        <pt x="94" y="699" on="1"/>
        <pt x="90" y="729" on="1"/>
        <pt x="142" y="707" on="0"/>
      </contour>
    </TTGlyph>
    <TTGlyph name="ccedilla" xMin="34" yMin="-142" xMax="433" yMax="397">
      <component glyphName="c" x="0" y="0" flags="0x1004"/>
      <component glyphName="cedilla" x="-6" y="0" flags="0x1004"/>
    </TTGlyph>
    <TTGlyph name="cedilla" xMin="110" yMin="-142" xMax="379" yMax="97">
      <contour>
        <pt x="314" y="97" on="1"/>
        <pt x="310" y="75" on="0"/>
        <pt x="310" y="49" on="0"/>
        <pt x="311" y="33" on="1"/>
        <pt x="312" y="-16" on="0"/>
        <pt x="337" y="-40" on="1"/>
        <pt x="351" y="-54" on="0"/>
        <pt x="373" y="-54" on="1"/>
        <pt x="376" y="-54" on="0"/>
        <pt x="379" y="-54" on="1"/>
        <pt x="379" y="-88" on="0"/>
        <pt x="293" y="-142" on="0"/>
        <pt x="230" y="-142" on="1"/>
        <pt x="162" y="-142" on="0"/>
        <pt x="124" y="-114" on="1"/>
        <pt x="116" y="-107" on="0"/>
        <pt x="110" y="-98" on="1"/>
        <pt x="247" y="-64" on="0"/>
        <pt x="247" y="3" on="1"/>
        <pt x="247" y="31" on="0"/>
        <pt x="225" y="59" on="1"/>
      </contour>
    </TTGlyph>
    <TTGlyph name="cent" xMin="49" yMin="-137" xMax="476" yMax="683">
      <contour>
        <pt x="252" y="539" on="0"/>
        <pt x="233" y="556" on="0"/>
        <pt x="225" y="580" on="0"/>
        <pt x="225" y="590" on="1"/>
        <pt x="225" y="622" on="0"/>
        <pt x="235" y="655" on="1"/>
        <pt x="369" y="683" on="1"/>
        <pt x="322" y="619" on="0"/>
        <pt x="301" y="531" on="1"/>
        <pt x="299" y="531" on="0"/>
        <pt x="291" y="530" on="0"/>
        <pt x="270" y="532" on="0"/>
      </contour>
      <contour>
        <pt x="216" y="15" on="1"/>
        <pt x="292" y="15" on="0"/>
        <pt x="292" y="-53" on="1"/>
        <pt x="292" y="-77" on="0"/>
        <pt x="283" y="-109" on="1"/>
        <pt x="159" y="-137" on="1"/>
        <pt x="196" y="-73" on="0"/>
      </contour>
      <contour>
        <pt x="205" y="486" on="1"/>
        <pt x="244" y="482" on="0"/>
        <pt x="277" y="482" on="1"/>
        <pt x="363" y="482" on="0"/>
        <pt x="436" y="502" on="1"/>
        <pt x="476" y="514" on="1"/>
        <pt x="476" y="369" on="0"/>
        <pt x="424" y="287" on="1"/>
        <pt x="349" y="303" on="0"/>
        <pt x="289" y="349" on="1"/>
        <pt x="237" y="261" on="0"/>
        <pt x="236" y="181" on="1"/>
        <pt x="267" y="181" on="0"/>
        <pt x="406" y="222" on="1"/>
        <pt x="454" y="236" on="1"/>
        <pt x="454" y="230" on="0"/>
        <pt x="453" y="211" on="0"/>
        <pt x="430" y="158" on="0"/>
        <pt x="387" y="114" on="0"/>
        <pt x="289" y="67" on="0"/>
        <pt x="221" y="56" on="1"/>
        <pt x="179" y="62" on="0"/>
        <pt x="71" y="119" on="0"/>
        <pt x="49" y="153" on="1"/>
        <pt x="57" y="222" on="0"/>
        <pt x="94" y="342" on="0"/>
        <pt x="116" y="378" on="1"/>
        <pt x="161" y="452" on="0"/>
        <pt x="192" y="475" on="1"/>
        <pt x="205" y="485" on="1"/>
      </contour>
    </TTGlyph>
    <TTGlyph name="circumflex" xMin="50" yMin="568" xMax="320" yMax="742">
      <contour>
        <pt x="76" y="597" on="1"/>
        <pt x="62" y="585" on="0"/>
        <pt x="56" y="576" on="1"/>
        <pt x="50" y="568" on="1"/>
        <pt x="50" y="622" on="0"/>
        <pt x="83" y="673" on="1"/>
        <pt x="128" y="742" on="0"/>
        <pt x="219" y="742" on="1"/>
        <pt x="254" y="742" on="0"/>
        <pt x="299" y="718" on="0"/>
        <pt x="307" y="701" on="1"/>
        <pt x="320" y="674" on="0"/>
        <pt x="320" y="643" on="0"/>
        <pt x="319" y="638" on="1"/>
        <pt x="317" y="626" on="1"/>
        <pt x="281" y="650" on="0"/>
        <pt x="138" y="650" on="0"/>
      </contour>
    </TTGlyph>
    <TTGlyph name="colon" xMin="76" yMin="-19" xMax="304" yMax="520">
      <contour>
        <pt x="83" y="400" on="1"/>
        <pt x="201" y="520" on="1"/>
        <pt x="244" y="500" on="0"/>
        <pt x="295" y="418" on="0"/>
        <pt x="300" y="387" on="1"/>
        <pt x="304" y="356" on="1"/>
        <pt x="199" y="300" on="1"/>
        <pt x="168" y="300" on="0"/>
        <pt x="110" y="350" on="0"/>
        <pt x="96" y="375" on="1"/>
      </contour>
      <contour>
        <pt x="301" y="113" on="1"/>
        <pt x="238" y="-19" on="1"/>
        <pt x="226" y="-18" on="0"/>
        <pt x="188" y="-9" on="0"/>
        <pt x="101" y="41" on="0"/>
        <pt x="76" y="78" on="1"/>
        <pt x="96" y="115" on="0"/>
        <pt x="155" y="175" on="0"/>
        <pt x="175" y="187" on="1"/>
        <pt x="195" y="199" on="1"/>
        <pt x="241" y="153" on="0"/>
        <pt x="286" y="123" on="1"/>
      </contour>
    </TTGlyph>
    <TTGlyph name="comma" xMin="16" yMin="-140" xMax="231" yMax="209">
      <contour>
        <pt x="210" y="157" on="0"/>
        <pt x="231" y="107" on="0"/>
        <pt x="231" y="32" on="0"/>
        <pt x="199" y="-44" on="0"/>
        <pt x="176" y="-68" on="1"/>
        <pt x="129" y="-117" on="0"/>
        <pt x="93" y="-133" on="1"/>
        <pt x="77" y="-140" on="1"/>
        <pt x="93" y="-87" on="0"/>
        <pt x="93" y="-6" on="0"/>
        <pt x="80" y="20" on="1"/>
        <pt x="58" y="67" on="0"/>
        <pt x="28" y="83" on="1"/>
        <pt x="16" y="89" on="1"/>
        <pt x="134" y="209" on="1"/>
        <pt x="146" y="206" on="0"/>
        <pt x="184" y="183" on="0"/>
      </contour>
    </TTGlyph>
    <TTGlyph name="copyright" xMin="58" yMin="-103" xMax="717" yMax="553">
      <contour>
        <pt x="612" y="279" on="1"/>
        <pt x="612" y="353" on="0"/>
        <pt x="516" y="443" on="0"/>
        <pt x="431" y="443" on="1"/>
        <pt x="298" y="443" on="0"/>
        <pt x="158" y="287" on="0"/>
        <pt x="158" y="156" on="1"/>
        <pt x="158" y="67" on="0"/>
        <pt x="263" y="-25" on="0"/>
        <pt x="460" y="-25" on="0"/>
        <pt x="547" y="20" on="1"/>
        <pt x="516" y="-34" on="0"/>
        <pt x="390" y="-103" on="0"/>
        <pt x="299" y="-103" on="1"/>
        <pt x="118" y="-103" on="0"/>
        <pt x="72" y="34" on="1"/>
        <pt x="58" y="76" on="0"/>
        <pt x="58" y="130" on="1"/>
        <pt x="58" y="233" on="0"/>
        <pt x="129" y="400" on="0"/>
        <pt x="187" y="450" on="1"/>
        <pt x="306" y="553" on="0"/>
        <pt x="453" y="553" on="1"/>
        <pt x="581" y="553" on="0"/>
        <pt x="717" y="426" on="0"/>
        <pt x="717" y="221" on="0"/>
        <pt x="589" y="56" on="0"/>
        <pt x="518" y="56" on="1"/>
        <pt x="579" y="117" on="0"/>
        <pt x="602" y="204" on="1"/>
        <pt x="612" y="241" on="0"/>
      </contour>
      <contour>
        <pt x="337" y="354" on="1"/>
        <pt x="379" y="350" on="0"/>
        <pt x="403" y="350" on="1"/>
        <pt x="468" y="350" on="0"/>
        <pt x="500" y="360" on="1"/>
        <pt x="519" y="366" on="1"/>
        <pt x="519" y="275" on="0"/>
        <pt x="481" y="209" on="1"/>
        <pt x="436" y="253" on="0"/>
        <pt x="396" y="287" on="1"/>
        <pt x="380" y="256" on="0"/>
        <pt x="347" y="154" on="0"/>
        <pt x="346" y="126" on="1"/>
        <pt x="362" y="126" on="0"/>
        <pt x="478" y="164" on="1"/>
        <pt x="515" y="177" on="1"/>
        <pt x="512" y="166" on="0"/>
        <pt x="481" y="117" on="0"/>
        <pt x="464" y="100" on="1"/>
        <pt x="418" y="56" on="0"/>
        <pt x="348" y="41" on="1"/>
        <pt x="303" y="78" on="0"/>
        <pt x="231" y="116" on="1"/>
        <pt x="238" y="187" on="0"/>
        <pt x="291" y="306" on="0"/>
        <pt x="314" y="330" on="1"/>
      </contour>
    </TTGlyph>
    <TTGlyph name="currency" xMin="91" yMin="-79" xMax="686" yMax="525">
      <contour>
        <pt x="473" y="37" on="1"/>
        <pt x="435" y="20" on="0"/>
        <pt x="333" y="20" on="0"/>
        <pt x="305" y="34" on="1"/>
        <pt x="232" y="-79" on="1"/>
        <pt x="125" y="7" on="1"/>
        <pt x="202" y="98" on="1"/>
        <pt x="161" y="146" on="0"/>
        <pt x="161" y="288" on="0"/>
        <pt x="182" y="336" on="1"/>
        <pt x="91" y="418" on="1"/>
        <pt x="95" y="426" on="0"/>
        <pt x="110" y="450" on="0"/>
        <pt x="167" y="505" on="0"/>
        <pt x="201" y="521" on="1"/>
        <pt x="264" y="433" on="1"/>
        <pt x="322" y="468" on="0"/>
        <pt x="463" y="468" on="0"/>
        <pt x="515" y="439" on="1"/>
        <pt x="581" y="525" on="1"/>
        <pt x="686" y="431" on="1"/>
        <pt x="677" y="412" on="0"/>
        <pt x="635" y="366" on="0"/>
        <pt x="619" y="352" on="1"/>
        <pt x="603" y="339" on="1"/>
        <pt x="618" y="314" on="0"/>
        <pt x="618" y="214" on="0"/>
        <pt x="596" y="143" on="0"/>
        <pt x="586" y="128" on="1"/>
        <pt x="575" y="112" on="1"/>
        <pt x="653" y="29" on="1"/>
        <pt x="642" y="7" on="0"/>
        <pt x="580" y="-46" on="0"/>
        <pt x="544" y="-62" on="1"/>
      </contour>
      <contour>
        <pt x="272" y="224" on="1"/>
        <pt x="272" y="177" on="0"/>
        <pt x="316" y="154" on="1"/>
        <pt x="348" y="135" on="0"/>
        <pt x="411" y="135" on="0"/>
        <pt x="438" y="146" on="1"/>
        <pt x="504" y="169" on="0"/>
        <pt x="504" y="228" on="1"/>
        <pt x="504" y="266" on="0"/>
        <pt x="466" y="287" on="1"/>
        <pt x="438" y="302" on="0"/>
        <pt x="413" y="302" on="1"/>
        <pt x="330" y="302" on="0"/>
        <pt x="277" y="257" on="1"/>
        <pt x="272" y="239" on="0"/>
      </contour>
    </TTGlyph>
    <TTGlyph name="d" xMin="45" yMin="-24" xMax="556" yMax="540">
      <contour>
        <pt x="119" y="-8" on="0"/>
        <pt x="45" y="92" on="0"/>
        <pt x="45" y="184" on="0"/>
        <pt x="102" y="283" on="0"/>
        <pt x="207" y="362" on="0"/>
        <pt x="263" y="362" on="1"/>
        <pt x="292" y="362" on="0"/>
        <pt x="316" y="313" on="1"/>
        <pt x="351" y="500" on="1"/>
        <pt x="451" y="514" on="0"/>
        <pt x="530" y="534" on="1"/>
        <pt x="556" y="540" on="1"/>
        <pt x="536" y="453" on="0"/>
        <pt x="467" y="264" on="1"/>
        <pt x="443" y="198" on="1"/>
        <pt x="449" y="1" on="1"/>
        <pt x="439" y="1" on="0"/>
        <pt x="406" y="4" on="0"/>
        <pt x="331" y="35" on="0"/>
        <pt x="309" y="64" on="1"/>
        <pt x="249" y="12" on="0"/>
        <pt x="201" y="-15" on="1"/>
        <pt x="185" y="-24" on="1"/>
      </contour>
      <contour>
        <pt x="181" y="54" on="1"/>
        <pt x="230" y="76" on="0"/>
        <pt x="294" y="146" on="1"/>
        <pt x="309" y="266" on="1"/>
        <pt x="256" y="249" on="0"/>
        <pt x="181" y="100" on="0"/>
      </contour>
    </TTGlyph>
    <TTGlyph name="dagger" xMin="55" yMin="-124" xMax="460" yMax="536">
      <contour>
        <pt x="450" y="360" on="1"/>
        <pt x="450" y="321" on="0"/>
        <pt x="458" y="268" on="1"/>
        <pt x="460" y="251" on="1"/>
        <pt x="329" y="237" on="1"/>
        <pt x="301" y="82" on="0"/>
        <pt x="288" y="-74" on="1"/>
        <pt x="284" y="-124" on="1"/>
        <pt x="195" y="-73" on="0"/>
        <pt x="158" y="-20" on="1"/>
        <pt x="163" y="83" on="0"/>
        <pt x="181" y="222" on="1"/>
        <pt x="55" y="210" on="1"/>
        <pt x="103" y="347" on="1"/>
        <pt x="127" y="351" on="0"/>
        <pt x="199" y="355" on="1"/>
        <pt x="218" y="473" on="1"/>
        <pt x="410" y="536" on="1"/>
        <pt x="378" y="465" on="0"/>
        <pt x="354" y="359" on="1"/>
        <pt x="383" y="360" on="0"/>
      </contour>
    </TTGlyph>
    <TTGlyph name="daggerdbl" xMin="55" yMin="-144" xMax="460" yMax="536">
      <contour>
        <pt x="450" y="360" on="1"/>
        <pt x="450" y="321" on="0"/>
        <pt x="458" y="268" on="1"/>
        <pt x="460" y="251" on="1"/>
        <pt x="329" y="237" on="1"/>
        <pt x="321" y="194" on="1"/>
        <pt x="365" y="200" on="0"/>
        <pt x="397" y="205" on="1"/>
        <pt x="425" y="99" on="1"/>
        <pt x="306" y="87" on="1"/>
        <pt x="290" y="-24" on="0"/>
        <pt x="284" y="-114" on="1"/>
        <pt x="282" y="-144" on="1"/>
        <pt x="197" y="-89" on="0"/>
        <pt x="160" y="-36" on="1"/>
        <pt x="162" y="18" on="0"/>
        <pt x="166" y="72" on="1"/>
        <pt x="56" y="61" on="1"/>
        <pt x="100" y="186" on="1"/>
        <pt x="112" y="180" on="0"/>
        <pt x="176" y="180" on="1"/>
        <pt x="177" y="194" on="0"/>
        <pt x="181" y="222" on="1"/>
        <pt x="55" y="210" on="1"/>
        <pt x="103" y="347" on="1"/>
        <pt x="127" y="351" on="0"/>
        <pt x="199" y="355" on="1"/>
        <pt x="218" y="473" on="1"/>
        <pt x="410" y="536" on="1"/>
        <pt x="378" y="465" on="0"/>
        <pt x="354" y="359" on="1"/>
        <pt x="383" y="360" on="0"/>
      </contour>
    </TTGlyph>
    <TTGlyph name="degree" xMin="90" yMin="277" xMax="342" yMax="528">
      <contour>
        <pt x="90" y="448" on="0"/>
        <pt x="162" y="528" on="0"/>
        <pt x="281" y="528" on="0"/>
        <pt x="342" y="465" on="0"/>
        <pt x="342" y="352" on="0"/>
        <pt x="265" y="277" on="0"/>
        <pt x="208" y="277" on="1"/>
        <pt x="174" y="277" on="0"/>
        <pt x="124" y="302" on="0"/>
        <pt x="112" y="322" on="1"/>
        <pt x="90" y="357" on="0"/>
        <pt x="90" y="389" on="1"/>
      </contour>
      <contour>
        <pt x="169" y="415" on="1"/>
        <pt x="168" y="408" on="0"/>
        <pt x="168" y="382" on="0"/>
        <pt x="193" y="355" on="0"/>
        <pt x="216" y="355" on="1"/>
        <pt x="263" y="355" on="0"/>
        <pt x="263" y="397" on="1"/>
        <pt x="263" y="432" on="0"/>
        <pt x="188" y="432" on="0"/>
      </contour>
    </TTGlyph>
    <TTGlyph name="dieresis" xMin="59" yMin="540" xMax="444" yMax="742">
      <contour>
        <pt x="190" y="710" on="0"/>
        <pt x="231" y="646" on="0"/>
        <pt x="233" y="614" on="1"/>
        <pt x="235" y="583" on="1"/>
        <pt x="155" y="540" on="1"/>
        <pt x="131" y="540" on="0"/>
        <pt x="83" y="585" on="0"/>
        <pt x="71" y="608" on="1"/>
        <pt x="59" y="630" on="1"/>
        <pt x="60" y="633" on="0"/>
        <pt x="63" y="644" on="0"/>
        <pt x="78" y="672" on="0"/>
        <pt x="88" y="682" on="1"/>
        <pt x="112" y="710" on="0"/>
      </contour>
      <contour>
        <pt x="378" y="569" on="0"/>
        <pt x="318" y="569" on="0"/>
        <pt x="271" y="610" on="0"/>
        <pt x="266" y="630" on="1"/>
        <pt x="260" y="650" on="1"/>
        <pt x="363" y="742" on="1"/>
        <pt x="396" y="727" on="0"/>
        <pt x="436" y="663" on="0"/>
        <pt x="440" y="638" on="1"/>
        <pt x="444" y="614" on="1"/>
        <pt x="430" y="597" on="0"/>
      </contour>
    </TTGlyph>
    <TTGlyph name="divide" xMin="45" yMin="1" xMax="479" yMax="426">
      <contour>
        <pt x="240" y="287" on="0"/>
        <pt x="206" y="329" on="0"/>
        <pt x="206" y="382" on="0"/>
        <pt x="246" y="426" on="0"/>
        <pt x="287" y="426" on="1"/>
        <pt x="364" y="426" on="0"/>
        <pt x="364" y="354" on="1"/>
        <pt x="364" y="327" on="0"/>
        <pt x="323" y="287" on="0"/>
      </contour>
      <contour>
        <pt x="216" y="250" on="0"/>
        <pt x="406" y="250" on="0"/>
        <pt x="479" y="259" on="1"/>
        <pt x="453" y="176" on="1"/>
        <pt x="404" y="169" on="1"/>
        <pt x="313" y="156" on="0"/>
        <pt x="170" y="156" on="1"/>
        <pt x="116" y="156" on="0"/>
        <pt x="45" y="159" on="1"/>
        <pt x="98" y="259" on="1"/>
      </contour>
      <contour>
        <pt x="298" y="114" on="1"/>
        <pt x="315" y="101" on="0"/>
        <pt x="323" y="72" on="0"/>
        <pt x="323" y="53" on="0"/>
        <pt x="318" y="27" on="0"/>
        <pt x="281" y="1" on="0"/>
        <pt x="219" y="1" on="0"/>
        <pt x="181" y="34" on="0"/>
        <pt x="178" y="50" on="1"/>
        <pt x="175" y="66" on="1"/>
        <pt x="188" y="105" on="0"/>
        <pt x="226" y="122" on="1"/>
        <pt x="266" y="140" on="0"/>
      </contour>
    </TTGlyph>
    <TTGlyph name="dollar" xMin="53" yMin="-137" xMax="499" yMax="683">
      <contour>
        <pt x="493" y="198" on="1"/>
        <pt x="493" y="140" on="0"/>
        <pt x="426" y="92" on="1"/>
        <pt x="346" y="35" on="0"/>
        <pt x="147" y="23" on="1"/>
        <pt x="125" y="45" on="0"/>
        <pt x="68" y="144" on="0"/>
        <pt x="53" y="190" on="1"/>
        <pt x="166" y="171" on="0"/>
        <pt x="234" y="171" on="1"/>
        <pt x="338" y="171" on="0"/>
        <pt x="338" y="215" on="1"/>
        <pt x="172" y="230" on="0"/>
        <pt x="130" y="257" on="1"/>
        <pt x="86" y="285" on="0"/>
        <pt x="86" y="336" on="1"/>
        <pt x="86" y="427" on="0"/>
        <pt x="289" y="527" on="0"/>
        <pt x="471" y="527" on="1"/>
        <pt x="499" y="332" on="1"/>
        <pt x="404" y="359" on="0"/>
        <pt x="238" y="364" on="1"/>
        <pt x="238" y="318" on="0"/>
        <pt x="366" y="297" on="1"/>
        <pt x="413" y="289" on="0"/>
        <pt x="493" y="239" on="0"/>
      </contour>
      <contour>
        <pt x="254" y="539" on="0"/>
        <pt x="235" y="556" on="0"/>
        <pt x="227" y="580" on="0"/>
        <pt x="227" y="590" on="1"/>
        <pt x="227" y="622" on="0"/>
        <pt x="237" y="655" on="1"/>
        <pt x="371" y="683" on="1"/>
        <pt x="324" y="619" on="0"/>
        <pt x="303" y="531" on="1"/>
        <pt x="301" y="531" on="0"/>
        <pt x="293" y="530" on="0"/>
        <pt x="272" y="532" on="0"/>
      </contour>
      <contour>
        <pt x="218" y="15" on="1"/>
        <pt x="226" y="16" on="1"/>
        <pt x="256" y="16" on="0"/>
        <pt x="276" y="-3" on="1"/>
        <pt x="294" y="-21" on="0"/>
        <pt x="294" y="-53" on="1"/>
        <pt x="294" y="-77" on="0"/>
        <pt x="285" y="-109" on="1"/>
        <pt x="161" y="-137" on="1"/>
        <pt x="198" y="-73" on="0"/>
      </contour>
    </TTGlyph>
    <TTGlyph name="dotaccent" xMin="55" yMin="574" xMax="223" yMax="742">
      <contour>
        <pt x="55" y="650" on="1"/>
        <pt x="145" y="742" on="1"/>
        <pt x="177" y="727" on="0"/>
        <pt x="216" y="664" on="0"/>
        <pt x="220" y="640" on="1"/>
        <pt x="223" y="617" on="1"/>
        <pt x="143" y="574" on="1"/>
        <pt x="119" y="574" on="0"/>
        <pt x="75" y="612" on="0"/>
        <pt x="65" y="631" on="1"/>
      </contour>
    </TTGlyph>
    <TTGlyph name="dotlessi" xMin="57" yMin="-32" xMax="286" yMax="369">
      <contour>
        <pt x="237" y="218" on="0"/>
        <pt x="213" y="143" on="0"/>
        <pt x="194" y="32" on="0"/>
        <pt x="194" y="-27" on="0"/>
        <pt x="194" y="-32" on="1"/>
        <pt x="148" y="-11" on="0"/>
        <pt x="80" y="33" on="0"/>
        <pt x="68" y="45" on="1"/>
        <pt x="57" y="57" on="1"/>
        <pt x="57" y="148" on="0"/>
        <pt x="79" y="304" on="0"/>
        <pt x="90" y="336" on="1"/>
        <pt x="101" y="369" on="1"/>
        <pt x="191" y="353" on="0"/>
        <pt x="262" y="323" on="1"/>
        <pt x="286" y="313" on="1"/>
        <pt x="277" y="302" on="0"/>
      </contour>
    </TTGlyph>
    <TTGlyph name="e" xMin="36" yMin="-38" xMax="432" yMax="390">
      <contour>
        <pt x="194" y="78" on="1"/>
        <pt x="205" y="77" on="0"/>
        <pt x="251" y="77" on="0"/>
        <pt x="345" y="100" on="0"/>
        <pt x="376" y="114" on="1"/>
        <pt x="406" y="129" on="1"/>
        <pt x="408" y="119" on="0"/>
        <pt x="408" y="110" on="1"/>
        <pt x="408" y="71" on="0"/>
        <pt x="374" y="32" on="1"/>
        <pt x="330" y="-17" on="0"/>
        <pt x="227" y="-38" on="1"/>
        <pt x="212" y="-36" on="0"/>
        <pt x="165" y="-26" on="0"/>
        <pt x="62" y="25" on="0"/>
        <pt x="36" y="61" on="1"/>
        <pt x="41" y="125" on="0"/>
        <pt x="86" y="260" on="0"/>
        <pt x="106" y="295" on="1"/>
        <pt x="126" y="330" on="1"/>
        <pt x="182" y="333" on="0"/>
        <pt x="292" y="363" on="0"/>
        <pt x="318" y="376" on="1"/>
        <pt x="345" y="390" on="1"/>
        <pt x="382" y="369" on="0"/>
        <pt x="425" y="297" on="0"/>
        <pt x="428" y="272" on="1"/>
        <pt x="432" y="246" on="1"/>
        <pt x="404" y="183" on="0"/>
        <pt x="272" y="115" on="0"/>
        <pt x="200" y="110" on="1"/>
        <pt x="197" y="97" on="0"/>
      </contour>
      <contour>
        <pt x="285" y="205" on="1"/>
        <pt x="298" y="225" on="0"/>
        <pt x="298" y="251" on="0"/>
        <pt x="281" y="266" on="0"/>
        <pt x="257" y="266" on="0"/>
        <pt x="246" y="264" on="1"/>
        <pt x="239" y="239" on="0"/>
        <pt x="210" y="155" on="1"/>
        <pt x="257" y="162" on="0"/>
      </contour>
    </TTGlyph>
    <TTGlyph name="eacute" xMin="36" yMin="-38" xMax="432" yMax="560">
      <component glyphName="e" x="0" y="0" flags="0x1004"/>
      <component glyphName="acute" x="21" y="-173" flags="0x1004"/>
    </TTGlyph>
    <TTGlyph name="ecircumflex" xMin="44" yMin="-38" xMax="440" yMax="540">
      <contour>
        <pt x="202" y="78" on="1"/>
        <pt x="213" y="77" on="0"/>
        <pt x="259" y="77" on="0"/>
        <pt x="353" y="100" on="0"/>
        <pt x="384" y="114" on="1"/>
        <pt x="414" y="129" on="1"/>
        <pt x="416" y="119" on="0"/>
        <pt x="416" y="110" on="1"/>
        <pt x="416" y="71" on="0"/>
        <pt x="382" y="32" on="1"/>
        <pt x="338" y="-17" on="0"/>
        <pt x="235" y="-38" on="1"/>
        <pt x="220" y="-36" on="0"/>
        <pt x="173" y="-26" on="0"/>
        <pt x="70" y="25" on="0"/>
        <pt x="44" y="61" on="1"/>
        <pt x="49" y="125" on="0"/>
        <pt x="94" y="260" on="0"/>
        <pt x="114" y="295" on="1"/>
        <pt x="134" y="330" on="1"/>
        <pt x="190" y="333" on="0"/>
        <pt x="300" y="363" on="0"/>
        <pt x="326" y="376" on="1"/>
        <pt x="353" y="390" on="1"/>
        <pt x="390" y="369" on="0"/>
        <pt x="433" y="297" on="0"/>
        <pt x="436" y="272" on="1"/>
        <pt x="440" y="246" on="1"/>
        <pt x="412" y="183" on="0"/>
        <pt x="280" y="115" on="0"/>
        <pt x="208" y="110" on="1"/>
        <pt x="205" y="97" on="0"/>
      </contour>
      <contour>
        <pt x="293" y="205" on="1"/>
        <pt x="306" y="225" on="0"/>
        <pt x="306" y="251" on="0"/>
        <pt x="289" y="266" on="0"/>
        <pt x="265" y="266" on="0"/>
        <pt x="254" y="264" on="1"/>
        <pt x="247" y="239" on="0"/>
        <pt x="218" y="155" on="1"/>
        <pt x="265" y="162" on="0"/>
      </contour>
      <contour>
        <pt x="110" y="395" on="1"/>
        <pt x="96" y="383" on="0"/>
        <pt x="90" y="374" on="1"/>
        <pt x="84" y="366" on="1"/>
        <pt x="84" y="420" on="0"/>
        <pt x="117" y="471" on="1"/>
        <pt x="162" y="540" on="0"/>
        <pt x="253" y="540" on="1"/>
        <pt x="288" y="540" on="0"/>
        <pt x="333" y="516" on="0"/>
        <pt x="341" y="499" on="1"/>
        <pt x="354" y="472" on="0"/>
        <pt x="354" y="441" on="0"/>
        <pt x="353" y="436" on="1"/>
        <pt x="351" y="424" on="1"/>
        <pt x="315" y="448" on="0"/>
        <pt x="172" y="448" on="0"/>
      </contour>
    </TTGlyph>
    <TTGlyph name="edieresis" xMin="33" yMin="-38" xMax="429" yMax="569">
      <contour>
        <pt x="191" y="78" on="1"/>
        <pt x="202" y="77" on="0"/>
        <pt x="248" y="77" on="0"/>
        <pt x="342" y="100" on="0"/>
        <pt x="372" y="114" on="1"/>
        <pt x="403" y="129" on="1"/>
        <pt x="405" y="119" on="0"/>
        <pt x="405" y="110" on="1"/>
        <pt x="405" y="71" on="0"/>
        <pt x="370" y="32" on="1"/>
        <pt x="327" y="-17" on="0"/>
        <pt x="224" y="-38" on="1"/>
        <pt x="209" y="-36" on="0"/>
        <pt x="162" y="-26" on="0"/>
        <pt x="59" y="25" on="0"/>
        <pt x="33" y="61" on="1"/>
        <pt x="38" y="125" on="0"/>
        <pt x="83" y="260" on="0"/>
        <pt x="103" y="295" on="1"/>
        <pt x="123" y="330" on="1"/>
        <pt x="179" y="333" on="0"/>
        <pt x="288" y="363" on="0"/>
        <pt x="315" y="376" on="1"/>
        <pt x="342" y="390" on="1"/>
        <pt x="379" y="369" on="0"/>
        <pt x="422" y="297" on="0"/>
        <pt x="426" y="272" on="1"/>
        <pt x="429" y="246" on="1"/>
        <pt x="401" y="183" on="0"/>
        <pt x="269" y="115" on="0"/>
        <pt x="197" y="110" on="1"/>
        <pt x="194" y="97" on="0"/>
      </contour>
      <contour>
        <pt x="282" y="205" on="1"/>
        <pt x="295" y="225" on="0"/>
        <pt x="295" y="251" on="0"/>
        <pt x="278" y="266" on="0"/>
        <pt x="254" y="266" on="0"/>
        <pt x="243" y="264" on="1"/>
        <pt x="236" y="239" on="0"/>
        <pt x="207" y="155" on="1"/>
        <pt x="254" y="162" on="0"/>
      </contour>
      <contour>
        <pt x="182" y="540" on="0"/>
        <pt x="220" y="482" on="0"/>
        <pt x="222" y="452" on="1"/>
        <pt x="224" y="423" on="1"/>
        <pt x="150" y="383" on="1"/>
        <pt x="128" y="383" on="0"/>
        <pt x="83" y="424" on="0"/>
        <pt x="72" y="445" on="1"/>
        <pt x="61" y="466" on="1"/>
        <pt x="62" y="469" on="0"/>
        <pt x="65" y="479" on="0"/>
        <pt x="79" y="505" on="0"/>
        <pt x="88" y="514" on="1"/>
        <pt x="112" y="540" on="0"/>
      </contour>
      <contour>
        <pt x="355" y="410" on="0"/>
        <pt x="300" y="410" on="0"/>
        <pt x="257" y="448" on="0"/>
        <pt x="252" y="466" on="1"/>
        <pt x="247" y="485" on="1"/>
        <pt x="342" y="569" on="1"/>
        <pt x="372" y="555" on="0"/>
        <pt x="409" y="496" on="0"/>
        <pt x="412" y="474" on="1"/>
        <pt x="416" y="451" on="1"/>
        <pt x="403" y="435" on="0"/>
      </contour>
    </TTGlyph>
    <TTGlyph name="egrave" xMin="36" yMin="-38" xMax="432" yMax="549">
      <contour>
        <pt x="194" y="78" on="1"/>
        <pt x="205" y="77" on="0"/>
        <pt x="251" y="77" on="0"/>
        <pt x="345" y="100" on="0"/>
        <pt x="376" y="114" on="1"/>
        <pt x="406" y="129" on="1"/>
        <pt x="408" y="119" on="0"/>
        <pt x="408" y="110" on="1"/>
        <pt x="408" y="71" on="0"/>
        <pt x="374" y="32" on="1"/>
        <pt x="330" y="-17" on="0"/>
        <pt x="227" y="-38" on="1"/>
        <pt x="212" y="-36" on="0"/>
        <pt x="165" y="-26" on="0"/>
        <pt x="62" y="25" on="0"/>
        <pt x="36" y="61" on="1"/>
        <pt x="41" y="125" on="0"/>
        <pt x="86" y="260" on="0"/>
        <pt x="106" y="295" on="1"/>
        <pt x="126" y="330" on="1"/>
        <pt x="182" y="333" on="0"/>
        <pt x="292" y="363" on="0"/>
        <pt x="318" y="376" on="1"/>
        <pt x="345" y="390" on="1"/>
        <pt x="382" y="369" on="0"/>
        <pt x="425" y="297" on="0"/>
        <pt x="428" y="272" on="1"/>
        <pt x="432" y="246" on="1"/>
        <pt x="404" y="183" on="0"/>
        <pt x="272" y="115" on="0"/>
        <pt x="200" y="110" on="1"/>
        <pt x="197" y="97" on="0"/>
      </contour>
      <contour>
        <pt x="285" y="205" on="1"/>
        <pt x="298" y="225" on="0"/>
        <pt x="298" y="251" on="0"/>
        <pt x="281" y="266" on="0"/>
        <pt x="257" y="266" on="0"/>
        <pt x="246" y="264" on="1"/>
        <pt x="239" y="239" on="0"/>
        <pt x="210" y="155" on="1"/>
        <pt x="257" y="162" on="0"/>
      </contour>
      <contour>
        <pt x="387" y="443" on="1"/>
        <pt x="290" y="399" on="0"/>
        <pt x="219" y="399" on="1"/>
        <pt x="155" y="399" on="0"/>
        <pt x="128" y="412" on="1"/>
        <pt x="118" y="417" on="1"/>
        <pt x="149" y="549" on="1"/>
      </contour>
    </TTGlyph>
    <TTGlyph name="eight" xMin="60" yMin="-32" xMax="543" yMax="519">
      <contour>
        <pt x="84" y="329" on="1"/>
        <pt x="84" y="407" on="0"/>
        <pt x="230" y="511" on="0"/>
        <pt x="370" y="519" on="1"/>
        <pt x="428" y="499" on="0"/>
        <pt x="514" y="429" on="0"/>
        <pt x="528" y="404" on="1"/>
        <pt x="543" y="379" on="1"/>
        <pt x="543" y="329" on="0"/>
        <pt x="497" y="261" on="0"/>
        <pt x="434" y="236" on="1"/>
        <pt x="440" y="234" on="0"/>
        <pt x="476" y="211" on="0"/>
        <pt x="486" y="200" on="1"/>
        <pt x="515" y="172" on="0"/>
        <pt x="515" y="142" on="1"/>
        <pt x="515" y="78" on="0"/>
        <pt x="335" y="-32" on="0"/>
        <pt x="217" y="-32" on="1"/>
        <pt x="143" y="-2" on="0"/>
        <pt x="105" y="40" on="1"/>
        <pt x="70" y="77" on="0"/>
        <pt x="60" y="104" on="1"/>
        <pt x="75" y="144" on="0"/>
        <pt x="130" y="203" on="0"/>
        <pt x="150" y="212" on="1"/>
        <pt x="170" y="222" on="1"/>
        <pt x="118" y="239" on="0"/>
        <pt x="94" y="289" on="1"/>
        <pt x="84" y="308" on="0"/>
      </contour>
      <contour>
        <pt x="409" y="282" on="0"/>
        <pt x="413" y="288" on="0"/>
        <pt x="420" y="303" on="0"/>
        <pt x="420" y="308" on="0"/>
        <pt x="412" y="325" on="0"/>
        <pt x="403" y="328" on="1"/>
        <pt x="380" y="334" on="0"/>
        <pt x="345" y="334" on="1"/>
        <pt x="274" y="334" on="0"/>
        <pt x="227" y="322" on="1"/>
        <pt x="210" y="317" on="1"/>
        <pt x="210" y="299" on="0"/>
        <pt x="221" y="279" on="0"/>
        <pt x="255" y="269" on="0"/>
        <pt x="287" y="267" on="0"/>
        <pt x="363" y="263" on="0"/>
        <pt x="393" y="260" on="1"/>
        <pt x="394" y="262" on="0"/>
      </contour>
      <contour>
        <pt x="195" y="158" on="1"/>
        <pt x="195" y="147" on="0"/>
        <pt x="238" y="131" on="0"/>
        <pt x="326" y="131" on="0"/>
        <pt x="393" y="156" on="0"/>
        <pt x="393" y="174" on="1"/>
        <pt x="393" y="186" on="0"/>
        <pt x="352" y="195" on="0"/>
        <pt x="220" y="195" on="0"/>
        <pt x="199" y="169" on="1"/>
        <pt x="195" y="163" on="0"/>
      </contour>
    </TTGlyph>
    <TTGlyph name="ellipsis" xMin="19" yMin="-11" xMax="768" yMax="209">
      <contour>
        <pt x="19" y="89" on="1"/>
        <pt x="137" y="209" on="1"/>
        <pt x="180" y="189" on="0"/>
        <pt x="231" y="107" on="0"/>
        <pt x="236" y="76" on="1"/>
        <pt x="240" y="45" on="1"/>
        <pt x="135" y="-11" on="1"/>
        <pt x="104" y="-11" on="0"/>
        <pt x="46" y="39" on="0"/>
        <pt x="32" y="64" on="1"/>
      </contour>
      <contour>
        <pt x="284" y="89" on="1"/>
        <pt x="402" y="209" on="1"/>
        <pt x="445" y="189" on="0"/>
        <pt x="496" y="107" on="0"/>
        <pt x="500" y="76" on="1"/>
        <pt x="505" y="45" on="1"/>
        <pt x="400" y="-11" on="1"/>
        <pt x="369" y="-11" on="0"/>
        <pt x="311" y="39" on="0"/>
        <pt x="298" y="64" on="1"/>
      </contour>
      <contour>
        <pt x="547" y="89" on="1"/>
        <pt x="665" y="209" on="1"/>
        <pt x="708" y="189" on="0"/>
        <pt x="759" y="107" on="0"/>
        <pt x="764" y="76" on="1"/>
        <pt x="768" y="45" on="1"/>
        <pt x="663" y="-11" on="1"/>
        <pt x="632" y="-11" on="0"/>
        <pt x="574" y="39" on="0"/>
        <pt x="560" y="64" on="1"/>
      </contour>
    </TTGlyph>
    <TTGlyph name="emdash" xMin="44" yMin="143" xMax="583" yMax="279">
      <contour>
        <pt x="44" y="143" on="1"/>
        <pt x="68" y="256" on="1"/>
        <pt x="343" y="256" on="0"/>
        <pt x="526" y="274" on="1"/>
        <pt x="583" y="279" on="1"/>
        <pt x="550" y="156" on="1"/>
        <pt x="373" y="156" on="0"/>
        <pt x="132" y="146" on="1"/>
      </contour>
    </TTGlyph>
    <TTGlyph name="endash" xMin="44" yMin="143" xMax="473" yMax="279">
      <contour>
        <pt x="44" y="143" on="1"/>
        <pt x="68" y="256" on="1"/>
        <pt x="211" y="256" on="0"/>
        <pt x="413" y="268" on="0"/>
        <pt x="443" y="274" on="1"/>
        <pt x="473" y="279" on="1"/>
        <pt x="440" y="156" on="1"/>
        <pt x="271" y="156" on="0"/>
        <pt x="105" y="146" on="1"/>
      </contour>
    </TTGlyph>
    <TTGlyph name="equal" xMin="48" yMin="119" xMax="546" yMax="408">
      <contour>
        <pt x="142" y="408" on="1"/>
        <pt x="546" y="408" on="1"/>
        <pt x="513" y="315" on="1"/>
        <pt x="273" y="315" on="0"/>
        <pt x="133" y="308" on="1"/>
        <pt x="93" y="306" on="1"/>
      </contour>
      <contour>
        <pt x="98" y="240" on="1"/>
        <pt x="494" y="241" on="1"/>
        <pt x="459" y="150" on="1"/>
        <pt x="324" y="150" on="0"/>
        <pt x="118" y="134" on="0"/>
        <pt x="83" y="126" on="1"/>
        <pt x="48" y="119" on="1"/>
      </contour>
    </TTGlyph>
    <TTGlyph name="eth" xMin="36" yMin="-35" xMax="525" yMax="547">
      <contour>
        <pt x="229" y="311" on="1"/>
        <pt x="291" y="311" on="0"/>
        <pt x="341" y="265" on="1"/>
        <pt x="342" y="316" on="0"/>
        <pt x="300" y="370" on="1"/>
        <pt x="111" y="341" on="1"/>
        <pt x="131" y="419" on="1"/>
        <pt x="251" y="428" on="1"/>
        <pt x="155" y="485" on="0"/>
        <pt x="81" y="511" on="1"/>
        <pt x="260" y="547" on="1"/>
        <pt x="335" y="516" on="0"/>
        <pt x="400" y="449" on="1"/>
        <pt x="467" y="454" on="0"/>
        <pt x="525" y="454" on="1"/>
        <pt x="505" y="402" on="1"/>
        <pt x="446" y="393" on="1"/>
        <pt x="465" y="365" on="0"/>
        <pt x="498" y="262" on="0"/>
        <pt x="498" y="168" on="0"/>
        <pt x="454" y="78" on="0"/>
        <pt x="390" y="22" on="0"/>
        <pt x="352" y="2" on="1"/>
        <pt x="283" y="-35" on="0"/>
        <pt x="234" y="-35" on="1"/>
        <pt x="207" y="-35" on="0"/>
        <pt x="116" y="3" on="0"/>
        <pt x="36" y="77" on="0"/>
        <pt x="36" y="155" on="0"/>
        <pt x="55" y="194" on="1"/>
        <pt x="92" y="268" on="0"/>
        <pt x="178" y="301" on="1"/>
        <pt x="202" y="311" on="0"/>
      </contour>
      <contour>
        <pt x="326" y="166" on="1"/>
        <pt x="327" y="174" on="0"/>
        <pt x="327" y="198" on="0"/>
        <pt x="315" y="231" on="0"/>
        <pt x="302" y="231" on="1"/>
        <pt x="270" y="231" on="0"/>
        <pt x="204" y="150" on="0"/>
        <pt x="176" y="82" on="0"/>
        <pt x="176" y="68" on="0"/>
        <pt x="179" y="68" on="1"/>
        <pt x="206" y="68" on="0"/>
        <pt x="280" y="117" on="0"/>
        <pt x="303" y="142" on="1"/>
      </contour>
    </TTGlyph>
    <TTGlyph name="exclam" xMin="57" yMin="-38" xMax="310" yMax="514">
      <contour>
        <pt x="253" y="12" on="1"/>
        <pt x="221" y="-13" on="0"/>
        <pt x="133" y="-38" on="0"/>
        <pt x="88" y="-38" on="0"/>
        <pt x="70" y="-34" on="1"/>
        <pt x="58" y="6" on="0"/>
        <pt x="57" y="52" on="0"/>
        <pt x="57" y="92" on="0"/>
        <pt x="62" y="112" on="1"/>
        <pt x="68" y="135" on="1"/>
        <pt x="133" y="135" on="0"/>
        <pt x="190" y="129" on="1"/>
        <pt x="209" y="127" on="1"/>
      </contour>
      <contour>
        <pt x="118" y="214" on="0"/>
        <pt x="97" y="262" on="0"/>
        <pt x="92" y="304" on="0"/>
        <pt x="92" y="323" on="1"/>
        <pt x="92" y="388" on="0"/>
        <pt x="118" y="473" on="1"/>
        <pt x="140" y="487" on="0"/>
        <pt x="258" y="514" on="0"/>
        <pt x="310" y="514" on="1"/>
        <pt x="306" y="509" on="0"/>
        <pt x="292" y="492" on="0"/>
        <pt x="255" y="428" on="0"/>
        <pt x="239" y="391" on="1"/>
        <pt x="197" y="295" on="0"/>
        <pt x="180" y="167" on="1"/>
        <pt x="177" y="168" on="0"/>
        <pt x="167" y="171" on="0"/>
        <pt x="140" y="189" on="0"/>
      </contour>
    </TTGlyph>
    <TTGlyph name="exclamdown" xMin="34" yMin="-38" xMax="287" yMax="514">
      <contour>
        <pt x="91" y="464" on="1"/>
        <pt x="123" y="489" on="0"/>
        <pt x="211" y="514" on="0"/>
        <pt x="256" y="514" on="0"/>
        <pt x="274" y="510" on="1"/>
        <pt x="286" y="470" on="0"/>
        <pt x="287" y="424" on="0"/>
        <pt x="287" y="384" on="0"/>
        <pt x="282" y="364" on="1"/>
        <pt x="276" y="341" on="1"/>
        <pt x="211" y="341" on="0"/>
        <pt x="154" y="347" on="1"/>
        <pt x="135" y="349" on="1"/>
      </contour>
      <contour>
        <pt x="226" y="262" on="0"/>
        <pt x="247" y="214" on="0"/>
        <pt x="252" y="172" on="0"/>
        <pt x="252" y="153" on="1"/>
        <pt x="252" y="88" on="0"/>
        <pt x="226" y="3" on="1"/>
        <pt x="204" y="-11" on="0"/>
        <pt x="86" y="-38" on="0"/>
        <pt x="34" y="-38" on="1"/>
        <pt x="38" y="-33" on="0"/>
        <pt x="52" y="-16" on="0"/>
        <pt x="89" y="48" on="0"/>
        <pt x="105" y="85" on="1"/>
        <pt x="147" y="181" on="0"/>
        <pt x="164" y="309" on="1"/>
        <pt x="167" y="308" on="0"/>
        <pt x="177" y="305" on="0"/>
        <pt x="204" y="287" on="0"/>
      </contour>
    </TTGlyph>
    <TTGlyph name="f" xMin="35" yMin="-70" xMax="400" yMax="541">
      <contour>
        <pt x="135" y="313" on="1"/>
        <pt x="107" y="337" on="0"/>
        <pt x="107" y="423" on="0"/>
        <pt x="152" y="492" on="0"/>
        <pt x="192" y="510" on="1"/>
        <pt x="263" y="541" on="0"/>
        <pt x="365" y="541" on="1"/>
        <pt x="367" y="483" on="0"/>
        <pt x="385" y="395" on="0"/>
        <pt x="392" y="380" on="1"/>
        <pt x="400" y="364" on="1"/>
        <pt x="320" y="382" on="0"/>
        <pt x="212" y="382" on="1"/>
        <pt x="212" y="354" on="0"/>
        <pt x="240" y="336" on="1"/>
        <pt x="267" y="318" on="0"/>
        <pt x="347" y="318" on="1"/>
        <pt x="367" y="318" on="0"/>
        <pt x="390" y="319" on="1"/>
        <pt x="347" y="194" on="1"/>
        <pt x="273" y="193" on="1"/>
        <pt x="246" y="125" on="0"/>
        <pt x="221" y="-70" on="1"/>
        <pt x="122" y="-17" on="0"/>
        <pt x="76" y="43" on="1"/>
        <pt x="107" y="213" on="1"/>
        <pt x="35" y="245" on="1"/>
        <pt x="82" y="279" on="0"/>
      </contour>
    </TTGlyph>
    <TTGlyph name="fi" xMin="35" yMin="-70" xMax="654" yMax="570">
      <contour>
        <pt x="135" y="313" on="1"/>
        <pt x="107" y="337" on="0"/>
        <pt x="107" y="423" on="0"/>
        <pt x="152" y="492" on="0"/>
        <pt x="192" y="510" on="1"/>
        <pt x="263" y="541" on="0"/>
        <pt x="365" y="541" on="1"/>
        <pt x="367" y="483" on="0"/>
        <pt x="385" y="395" on="0"/>
        <pt x="392" y="380" on="1"/>
        <pt x="400" y="364" on="1"/>
        <pt x="320" y="382" on="0"/>
        <pt x="212" y="382" on="1"/>
        <pt x="212" y="354" on="0"/>
        <pt x="240" y="336" on="1"/>
        <pt x="267" y="318" on="0"/>
        <pt x="347" y="318" on="1"/>
        <pt x="367" y="318" on="0"/>
        <pt x="390" y="319" on="1"/>
        <pt x="347" y="194" on="1"/>
        <pt x="273" y="193" on="1"/>
        <pt x="246" y="125" on="0"/>
        <pt x="221" y="-70" on="1"/>
        <pt x="122" y="-17" on="0"/>
        <pt x="76" y="43" on="1"/>
        <pt x="107" y="213" on="1"/>
        <pt x="35" y="245" on="1"/>
        <pt x="82" y="279" on="0"/>
      </contour>
      <contour>
        <pt x="568" y="218" on="0"/>
        <pt x="544" y="143" on="0"/>
        <pt x="525" y="32" on="0"/>
        <pt x="525" y="-27" on="0"/>
        <pt x="525" y="-32" on="1"/>
        <pt x="479" y="-11" on="0"/>
        <pt x="411" y="33" on="0"/>
        <pt x="400" y="45" on="1"/>
        <pt x="388" y="57" on="1"/>
        <pt x="388" y="148" on="0"/>
        <pt x="410" y="304" on="0"/>
        <pt x="421" y="336" on="1"/>
        <pt x="432" y="369" on="1"/>
        <pt x="522" y="353" on="0"/>
        <pt x="593" y="323" on="1"/>
        <pt x="617" y="313" on="1"/>
        <pt x="608" y="302" on="0"/>
      </contour>
      <contour>
        <pt x="583" y="362" on="1"/>
        <pt x="571" y="367" on="0"/>
        <pt x="534" y="387" on="0"/>
        <pt x="459" y="455" on="0"/>
        <pt x="445" y="493" on="1"/>
        <pt x="470" y="504" on="0"/>
        <pt x="515" y="543" on="0"/>
        <pt x="525" y="556" on="1"/>
        <pt x="535" y="570" on="1"/>
        <pt x="596" y="560" on="0"/>
        <pt x="640" y="538" on="1"/>
        <pt x="654" y="530" on="1"/>
        <pt x="652" y="517" on="0"/>
        <pt x="645" y="477" on="0"/>
        <pt x="608" y="386" on="0"/>
      </contour>
    </TTGlyph>
    <TTGlyph name="five" xMin="41" yMin="-35" xMax="509" yMax="526">
      <contour>
        <pt x="358" y="185" on="1"/>
        <pt x="358" y="218" on="0"/>
        <pt x="213" y="218" on="0"/>
        <pt x="78" y="201" on="1"/>
        <pt x="121" y="378" on="0"/>
        <pt x="121" y="505" on="1"/>
        <pt x="132" y="505" on="0"/>
        <pt x="143" y="505" on="1"/>
        <pt x="272" y="505" on="0"/>
        <pt x="480" y="526" on="1"/>
        <pt x="509" y="347" on="1"/>
        <pt x="468" y="348" on="0"/>
        <pt x="432" y="348" on="1"/>
        <pt x="326" y="348" on="0"/>
        <pt x="251" y="341" on="1"/>
        <pt x="208" y="337" on="1"/>
        <pt x="208" y="310" on="0"/>
        <pt x="266" y="290" on="0"/>
        <pt x="349" y="287" on="0"/>
        <pt x="432" y="278" on="0"/>
        <pt x="490" y="228" on="0"/>
        <pt x="490" y="179" on="1"/>
        <pt x="490" y="95" on="0"/>
        <pt x="406" y="40" on="1"/>
        <pt x="328" y="-12" on="0"/>
        <pt x="178" y="-35" on="1"/>
        <pt x="139" y="-3" on="0"/>
        <pt x="71" y="90" on="0"/>
        <pt x="56" y="120" on="1"/>
        <pt x="41" y="150" on="1"/>
        <pt x="119" y="134" on="0"/>
        <pt x="172" y="134" on="1"/>
        <pt x="358" y="134" on="0"/>
      </contour>
    </TTGlyph>
    <TTGlyph name="fl" xMin="35" yMin="-70" xMax="676" yMax="546">
      <contour>
        <pt x="135" y="313" on="1"/>
        <pt x="107" y="337" on="0"/>
        <pt x="107" y="423" on="0"/>
        <pt x="152" y="492" on="0"/>
        <pt x="192" y="510" on="1"/>
        <pt x="263" y="541" on="0"/>
        <pt x="365" y="541" on="1"/>
        <pt x="367" y="483" on="0"/>
        <pt x="385" y="395" on="0"/>
        <pt x="392" y="380" on="1"/>
        <pt x="400" y="364" on="1"/>
        <pt x="320" y="382" on="0"/>
        <pt x="212" y="382" on="1"/>
        <pt x="212" y="354" on="0"/>
        <pt x="240" y="336" on="1"/>
        <pt x="267" y="318" on="0"/>
        <pt x="347" y="318" on="1"/>
        <pt x="367" y="318" on="0"/>
        <pt x="390" y="319" on="1"/>
        <pt x="347" y="194" on="1"/>
        <pt x="273" y="193" on="1"/>
        <pt x="246" y="125" on="0"/>
        <pt x="221" y="-70" on="1"/>
        <pt x="122" y="-17" on="0"/>
        <pt x="76" y="43" on="1"/>
        <pt x="107" y="213" on="1"/>
        <pt x="35" y="245" on="1"/>
        <pt x="82" y="279" on="0"/>
      </contour>
      <contour>
        <pt x="544" y="-17" on="1"/>
        <pt x="544" y="-49" on="1"/>
        <pt x="434" y="-4" on="0"/>
        <pt x="387" y="48" on="1"/>
        <pt x="395" y="136" on="0"/>
        <pt x="436" y="350" on="0"/>
        <pt x="452" y="413" on="1"/>
        <pt x="468" y="476" on="1"/>
        <pt x="513" y="503" on="0"/>
        <pt x="617" y="538" on="0"/>
        <pt x="646" y="542" on="1"/>
        <pt x="676" y="546" on="1"/>
        <pt x="637" y="462" on="0"/>
        <pt x="581" y="277" on="0"/>
        <pt x="569" y="206" on="1"/>
        <pt x="544" y="57" on="0"/>
      </contour>
    </TTGlyph>
    <TTGlyph name="florin" xMin="67" yMin="-124" xMax="432" yMax="551">
      <contour>
        <pt x="135" y="395" on="1"/>
        <pt x="135" y="474" on="0"/>
        <pt x="276" y="551" on="0"/>
        <pt x="397" y="551" on="1"/>
        <pt x="399" y="493" on="0"/>
        <pt x="417" y="405" on="0"/>
        <pt x="424" y="390" on="1"/>
        <pt x="432" y="374" on="1"/>
        <pt x="352" y="392" on="0"/>
        <pt x="244" y="392" on="1"/>
        <pt x="244" y="326" on="0"/>
        <pt x="390" y="326" on="1"/>
        <pt x="408" y="326" on="0"/>
        <pt x="428" y="327" on="1"/>
        <pt x="379" y="204" on="1"/>
        <pt x="298" y="205" on="1"/>
        <pt x="277" y="59" on="0"/>
        <pt x="145" y="-103" on="0"/>
        <pt x="67" y="-124" on="1"/>
        <pt x="123" y="21" on="0"/>
        <pt x="156" y="219" on="1"/>
        <pt x="67" y="255" on="1"/>
        <pt x="107" y="286" on="0"/>
        <pt x="160" y="320" on="1"/>
        <pt x="135" y="346" on="0"/>
      </contour>
    </TTGlyph>
    <TTGlyph name="four" xMin="39" yMin="-57" xMax="574" yMax="528">
      <contour>
        <pt x="339" y="180" on="1"/>
        <pt x="362" y="334" on="0"/>
        <pt x="362" y="474" on="1"/>
        <pt x="362" y="478" on="0"/>
        <pt x="362" y="482" on="1"/>
        <pt x="361" y="528" on="1"/>
        <pt x="461" y="500" on="0"/>
        <pt x="534" y="456" on="1"/>
        <pt x="527" y="364" on="0"/>
        <pt x="504" y="271" on="1"/>
        <pt x="494" y="231" on="1"/>
        <pt x="487" y="203" on="0"/>
        <pt x="485" y="196" on="1"/>
        <pt x="574" y="208" on="1"/>
        <pt x="545" y="93" on="1"/>
        <pt x="462" y="99" on="1"/>
        <pt x="436" y="-24" on="1"/>
        <pt x="270" y="-57" on="1"/>
        <pt x="313" y="86" on="1"/>
        <pt x="39" y="73" on="1"/>
        <pt x="76" y="159" on="0"/>
        <pt x="110" y="360" on="0"/>
        <pt x="110" y="419" on="1"/>
        <pt x="110" y="424" on="0"/>
        <pt x="110" y="429" on="1"/>
        <pt x="108" y="490" on="1"/>
        <pt x="311" y="462" on="1"/>
        <pt x="302" y="448" on="0"/>
        <pt x="275" y="399" on="0"/>
        <pt x="224" y="252" on="0"/>
        <pt x="216" y="182" on="1"/>
      </contour>
    </TTGlyph>
    <TTGlyph name="fraction" xMin="15" yMin="-51" xMax="349" yMax="530">
      <contour>
        <pt x="229" y="530" on="1"/>
        <pt x="242" y="520" on="0"/>
        <pt x="300" y="509" on="0"/>
        <pt x="336" y="509" on="0"/>
        <pt x="349" y="510" on="1"/>
        <pt x="107" y="-51" on="1"/>
        <pt x="86" y="-16" on="0"/>
        <pt x="15" y="23" on="1"/>
        <pt x="131" y="285" on="0"/>
        <pt x="206" y="472" on="1"/>
      </contour>
    </TTGlyph>
    <TTGlyph name="g" xMin="42" yMin="-152" xMax="508" yMax="415">
      <contour>
        <pt x="42" y="-12" on="1"/>
        <pt x="72" y="-29" on="0"/>
        <pt x="220" y="-29" on="0"/>
        <pt x="310" y="68" on="0"/>
        <pt x="323" y="137" on="1"/>
        <pt x="298" y="98" on="0"/>
        <pt x="227" y="37" on="0"/>
        <pt x="204" y="26" on="1"/>
        <pt x="180" y="15" on="1"/>
        <pt x="123" y="25" on="0"/>
        <pt x="85" y="66" on="1"/>
        <pt x="45" y="108" on="0"/>
        <pt x="45" y="169" on="0"/>
        <pt x="71" y="241" on="0"/>
        <pt x="122" y="316" on="0"/>
        <pt x="208" y="369" on="0"/>
        <pt x="258" y="369" on="1"/>
        <pt x="303" y="369" on="0"/>
        <pt x="332" y="342" on="1"/>
        <pt x="357" y="318" on="0"/>
        <pt x="369" y="290" on="1"/>
        <pt x="278" y="279" on="0"/>
        <pt x="188" y="164" on="0"/>
        <pt x="188" y="107" on="1"/>
        <pt x="188" y="101" on="0"/>
        <pt x="188" y="95" on="1"/>
        <pt x="193" y="97" on="0"/>
        <pt x="242" y="135" on="0"/>
        <pt x="259" y="152" on="1"/>
        <pt x="302" y="194" on="0"/>
        <pt x="334" y="249" on="1"/>
        <pt x="372" y="415" on="1"/>
        <pt x="420" y="409" on="0"/>
        <pt x="488" y="371" on="0"/>
        <pt x="498" y="355" on="1"/>
        <pt x="508" y="339" on="1"/>
        <pt x="503" y="301" on="0"/>
        <pt x="476" y="231" on="0"/>
        <pt x="464" y="215" on="1"/>
        <pt x="453" y="199" on="1"/>
        <pt x="451" y="36" on="0"/>
        <pt x="285" y="-152" on="0"/>
        <pt x="135" y="-152" on="1"/>
        <pt x="118" y="-144" on="0"/>
        <pt x="99" y="-118" on="1"/>
        <pt x="62" y="-69" on="0"/>
      </contour>
    </TTGlyph>
    <TTGlyph name="germandbls" xMin="22" yMin="-62" xMax="471" yMax="497">
      <contour>
        <pt x="372" y="223" on="1"/>
        <pt x="379" y="223" on="0"/>
        <pt x="418" y="215" on="0"/>
        <pt x="447" y="201" on="0"/>
        <pt x="471" y="170" on="0"/>
        <pt x="471" y="113" on="0"/>
        <pt x="432" y="50" on="0"/>
        <pt x="404" y="30" on="1"/>
        <pt x="347" y="-12" on="0"/>
        <pt x="302" y="-26" on="1"/>
        <pt x="283" y="-33" on="1"/>
        <pt x="258" y="-18" on="0"/>
        <pt x="211" y="29" on="0"/>
        <pt x="200" y="46" on="1"/>
        <pt x="189" y="62" on="1"/>
        <pt x="344" y="94" on="0"/>
        <pt x="348" y="147" on="1"/>
        <pt x="349" y="157" on="0"/>
        <pt x="345" y="163" on="1"/>
        <pt x="236" y="149" on="0"/>
        <pt x="225" y="146" on="1"/>
        <pt x="236" y="155" on="0"/>
        <pt x="322" y="328" on="0"/>
        <pt x="322" y="364" on="1"/>
        <pt x="322" y="386" on="0"/>
        <pt x="304" y="387" on="1"/>
        <pt x="270" y="387" on="1"/>
        <pt x="229" y="300" on="0"/>
        <pt x="168" y="75" on="0"/>
        <pt x="158" y="6" on="1"/>
        <pt x="148" y="-62" on="1"/>
        <pt x="67" y="-31" on="0"/>
        <pt x="22" y="19" on="1"/>
        <pt x="40" y="93" on="0"/>
        <pt x="70" y="194" on="1"/>
        <pt x="122" y="370" on="0"/>
        <pt x="122" y="411" on="1"/>
        <pt x="122" y="418" on="0"/>
        <pt x="121" y="424" on="1"/>
        <pt x="180" y="453" on="0"/>
        <pt x="317" y="497" on="0"/>
        <pt x="363" y="497" on="1"/>
        <pt x="469" y="415" on="1"/>
        <pt x="461" y="359" on="0"/>
        <pt x="406" y="263" on="0"/>
        <pt x="383" y="243" on="1"/>
        <pt x="360" y="223" on="1"/>
      </contour>
    </TTGlyph>
    <TTGlyph name="grave" xMin="90" yMin="583" xMax="359" yMax="733">
      <contour>
        <pt x="359" y="627" on="1"/>
        <pt x="262" y="583" on="0"/>
        <pt x="191" y="583" on="1"/>
        <pt x="127" y="583" on="0"/>
        <pt x="100" y="596" on="1"/>
        <pt x="90" y="601" on="1"/>
        <pt x="121" y="733" on="1"/>
      </contour>
    </TTGlyph>
    <TTGlyph name="greater" xMin="67" yMin="-3" xMax="502" yMax="521">
      <contour>
        <pt x="502" y="266" on="1"/>
        <pt x="418" y="206" on="0"/>
        <pt x="263" y="71" on="0"/>
        <pt x="228" y="34" on="1"/>
        <pt x="192" y="-3" on="1"/>
        <pt x="174" y="39" on="0"/>
        <pt x="112" y="105" on="0"/>
        <pt x="90" y="116" on="1"/>
        <pt x="67" y="128" on="1"/>
        <pt x="327" y="283" on="1"/>
        <pt x="290" y="330" on="0"/>
        <pt x="175" y="407" on="0"/>
        <pt x="136" y="422" on="1"/>
        <pt x="98" y="437" on="1"/>
        <pt x="108" y="444" on="0"/>
        <pt x="142" y="467" on="0"/>
        <pt x="249" y="513" on="0"/>
        <pt x="301" y="521" on="1"/>
        <pt x="395" y="408" on="0"/>
        <pt x="475" y="302" on="1"/>
      </contour>
    </TTGlyph>
    <TTGlyph name="greaterequal" xMin="22" yMin="-2" xMax="424" yMax="498">
      <contour>
        <pt x="424" y="308" on="1"/>
        <pt x="351" y="268" on="0"/>
        <pt x="239" y="178" on="0"/>
        <pt x="220" y="153" on="1"/>
        <pt x="201" y="128" on="1"/>
        <pt x="189" y="158" on="0"/>
        <pt x="132" y="206" on="0"/>
        <pt x="110" y="215" on="1"/>
        <pt x="88" y="224" on="1"/>
        <pt x="255" y="327" on="1"/>
        <pt x="234" y="354" on="0"/>
        <pt x="158" y="401" on="0"/>
        <pt x="130" y="412" on="1"/>
        <pt x="103" y="422" on="1"/>
        <pt x="135" y="448" on="0"/>
        <pt x="240" y="494" on="0"/>
        <pt x="279" y="498" on="1"/>
        <pt x="333" y="410" on="0"/>
        <pt x="400" y="334" on="1"/>
      </contour>
      <contour>
        <pt x="22" y="-2" on="1"/>
        <pt x="52" y="111" on="1"/>
        <pt x="413" y="116" on="1"/>
        <pt x="389" y="21" on="1"/>
        <pt x="189" y="21" on="0"/>
        <pt x="66" y="4" on="1"/>
      </contour>
    </TTGlyph>
    <TTGlyph name="guillemotleft" xMin="68" yMin="93" xMax="708" yMax="514">
      <contour>
        <pt x="68" y="298" on="1"/>
        <pt x="135" y="346" on="0"/>
        <pt x="260" y="454" on="0"/>
        <pt x="288" y="484" on="1"/>
        <pt x="317" y="514" on="1"/>
        <pt x="331" y="480" on="0"/>
        <pt x="381" y="428" on="0"/>
        <pt x="399" y="418" on="1"/>
        <pt x="417" y="409" on="1"/>
        <pt x="209" y="284" on="1"/>
        <pt x="239" y="247" on="0"/>
        <pt x="331" y="185" on="0"/>
        <pt x="362" y="172" on="1"/>
        <pt x="393" y="160" on="1"/>
        <pt x="324" y="108" on="0"/>
        <pt x="229" y="93" on="1"/>
        <pt x="173" y="160" on="0"/>
        <pt x="90" y="269" on="1"/>
      </contour>
      <contour>
        <pt x="359" y="298" on="1"/>
        <pt x="426" y="346" on="0"/>
        <pt x="551" y="454" on="0"/>
        <pt x="580" y="484" on="1"/>
        <pt x="608" y="514" on="1"/>
        <pt x="622" y="480" on="0"/>
        <pt x="672" y="428" on="0"/>
        <pt x="690" y="418" on="1"/>
        <pt x="708" y="409" on="1"/>
        <pt x="500" y="284" on="1"/>
        <pt x="530" y="247" on="0"/>
        <pt x="622" y="185" on="0"/>
        <pt x="653" y="172" on="1"/>
        <pt x="684" y="160" on="1"/>
        <pt x="615" y="108" on="0"/>
        <pt x="520" y="93" on="1"/>
        <pt x="464" y="160" on="0"/>
        <pt x="381" y="269" on="1"/>
      </contour>
    </TTGlyph>
    <TTGlyph name="guillemotright" xMin="75" yMin="73" xMax="715" yMax="494">
      <contour>
        <pt x="715" y="289" on="1"/>
        <pt x="648" y="241" on="0"/>
        <pt x="523" y="133" on="0"/>
        <pt x="494" y="103" on="1"/>
        <pt x="466" y="73" on="1"/>
        <pt x="452" y="107" on="0"/>
        <pt x="402" y="159" on="0"/>
        <pt x="384" y="168" on="1"/>
        <pt x="366" y="178" on="1"/>
        <pt x="574" y="303" on="1"/>
        <pt x="544" y="340" on="0"/>
        <pt x="452" y="402" on="0"/>
        <pt x="421" y="414" on="1"/>
        <pt x="390" y="427" on="1"/>
        <pt x="459" y="479" on="0"/>
        <pt x="554" y="494" on="1"/>
        <pt x="610" y="427" on="0"/>
        <pt x="693" y="318" on="1"/>
      </contour>
      <contour>
        <pt x="424" y="289" on="1"/>
        <pt x="357" y="241" on="0"/>
        <pt x="232" y="133" on="0"/>
        <pt x="204" y="103" on="1"/>
        <pt x="175" y="73" on="1"/>
        <pt x="161" y="107" on="0"/>
        <pt x="111" y="159" on="0"/>
        <pt x="93" y="168" on="1"/>
        <pt x="75" y="178" on="1"/>
        <pt x="283" y="303" on="1"/>
        <pt x="253" y="340" on="0"/>
        <pt x="161" y="402" on="0"/>
        <pt x="130" y="414" on="1"/>
        <pt x="99" y="427" on="1"/>
        <pt x="168" y="479" on="0"/>
        <pt x="263" y="494" on="1"/>
        <pt x="319" y="427" on="0"/>
        <pt x="402" y="318" on="1"/>
      </contour>
    </TTGlyph>
    <TTGlyph name="guilsinglleft" xMin="68" yMin="93" xMax="417" yMax="514">
      <contour>
        <pt x="68" y="298" on="1"/>
        <pt x="135" y="346" on="0"/>
        <pt x="260" y="454" on="0"/>
        <pt x="288" y="484" on="1"/>
        <pt x="317" y="514" on="1"/>
        <pt x="331" y="480" on="0"/>
        <pt x="381" y="428" on="0"/>
        <pt x="399" y="418" on="1"/>
        <pt x="417" y="409" on="1"/>
        <pt x="209" y="284" on="1"/>
        <pt x="239" y="247" on="0"/>
        <pt x="331" y="185" on="0"/>
        <pt x="362" y="172" on="1"/>
        <pt x="393" y="160" on="1"/>
        <pt x="324" y="108" on="0"/>
        <pt x="229" y="93" on="1"/>
        <pt x="173" y="160" on="0"/>
        <pt x="90" y="269" on="1"/>
      </contour>
    </TTGlyph>
    <TTGlyph name="guilsinglright" xMin="75" yMin="73" xMax="424" yMax="494">
      <contour>
        <pt x="424" y="289" on="1"/>
        <pt x="357" y="241" on="0"/>
        <pt x="232" y="133" on="0"/>
        <pt x="204" y="103" on="1"/>
        <pt x="175" y="73" on="1"/>
        <pt x="161" y="107" on="0"/>
        <pt x="111" y="159" on="0"/>
        <pt x="93" y="168" on="1"/>
        <pt x="75" y="178" on="1"/>
        <pt x="283" y="303" on="1"/>
        <pt x="253" y="340" on="0"/>
        <pt x="161" y="402" on="0"/>
        <pt x="130" y="414" on="1"/>
        <pt x="99" y="427" on="1"/>
        <pt x="168" y="479" on="0"/>
        <pt x="263" y="494" on="1"/>
        <pt x="319" y="427" on="0"/>
        <pt x="402" y="318" on="1"/>
      </contour>
    </TTGlyph>
    <TTGlyph name="h" xMin="59" yMin="-17" xMax="484" yMax="552">
      <contour>
        <pt x="368" y="377" on="1"/>
        <pt x="427" y="377" on="0"/>
        <pt x="484" y="244" on="1"/>
        <pt x="436" y="180" on="0"/>
        <pt x="412" y="69" on="1"/>
        <pt x="402" y="26" on="0"/>
        <pt x="401" y="-17" on="1"/>
        <pt x="395" y="-17" on="1"/>
        <pt x="316" y="-17" on="0"/>
        <pt x="292" y="54" on="1"/>
        <pt x="283" y="80" on="0"/>
        <pt x="283" y="107" on="1"/>
        <pt x="283" y="166" on="0"/>
        <pt x="311" y="251" on="1"/>
        <pt x="244" y="193" on="0"/>
        <pt x="183" y="66" on="1"/>
        <pt x="179" y="43" on="0"/>
        <pt x="175" y="-7" on="1"/>
        <pt x="118" y="5" on="0"/>
        <pt x="90" y="26" on="1"/>
        <pt x="64" y="45" on="0"/>
        <pt x="59" y="57" on="1"/>
        <pt x="61" y="149" on="0"/>
        <pt x="94" y="379" on="0"/>
        <pt x="124" y="518" on="0"/>
        <pt x="126" y="519" on="1"/>
        <pt x="174" y="534" on="0"/>
        <pt x="273" y="551" on="0"/>
        <pt x="298" y="552" on="1"/>
        <pt x="323" y="552" on="1"/>
        <pt x="259" y="409" on="0"/>
        <pt x="215" y="230" on="1"/>
        <pt x="253" y="298" on="0"/>
        <pt x="334" y="377" on="0"/>
      </contour>
    </TTGlyph>
    <TTGlyph name="hungarumlaut" xMin="26" yMin="572" xMax="482" yMax="728">
      <contour>
        <pt x="111" y="573" on="1"/>
        <pt x="58" y="573" on="0"/>
        <pt x="26" y="602" on="1"/>
        <pt x="213" y="728" on="1"/>
        <pt x="247" y="621" on="1"/>
        <pt x="198" y="588" on="0"/>
        <pt x="138" y="576" on="1"/>
        <pt x="125" y="573" on="0"/>
      </contour>
      <contour>
        <pt x="346" y="573" on="1"/>
        <pt x="293" y="573" on="0"/>
        <pt x="261" y="602" on="1"/>
        <pt x="448" y="728" on="1"/>
        <pt x="482" y="621" on="1"/>
        <pt x="433" y="588" on="0"/>
        <pt x="373" y="576" on="1"/>
        <pt x="360" y="573" on="0"/>
      </contour>
    </TTGlyph>
    <TTGlyph name="hyphen" xMin="47" yMin="137" xMax="361" yMax="249">
      <contour>
        <pt x="337" y="249" on="1"/>
        <pt x="361" y="164" on="1"/>
        <pt x="106" y="137" on="1"/>
        <pt x="100" y="161" on="0"/>
        <pt x="71" y="206" on="0"/>
        <pt x="59" y="216" on="1"/>
        <pt x="47" y="227" on="1"/>
        <pt x="136" y="249" on="0"/>
      </contour>
    </TTGlyph>
    <TTGlyph name="i" xMin="57" yMin="-32" xMax="323" yMax="570">
      <contour>
        <pt x="237" y="218" on="0"/>
        <pt x="213" y="143" on="0"/>
        <pt x="194" y="32" on="0"/>
        <pt x="194" y="-27" on="0"/>
        <pt x="194" y="-32" on="1"/>
        <pt x="148" y="-11" on="0"/>
        <pt x="80" y="33" on="0"/>
        <pt x="68" y="45" on="1"/>
        <pt x="57" y="57" on="1"/>
        <pt x="57" y="148" on="0"/>
        <pt x="79" y="304" on="0"/>
        <pt x="90" y="336" on="1"/>
        <pt x="101" y="369" on="1"/>
        <pt x="191" y="353" on="0"/>
        <pt x="262" y="323" on="1"/>
        <pt x="286" y="313" on="1"/>
        <pt x="277" y="302" on="0"/>
      </contour>
      <contour>
        <pt x="252" y="362" on="1"/>
        <pt x="240" y="367" on="0"/>
        <pt x="203" y="387" on="0"/>
        <pt x="128" y="455" on="0"/>
        <pt x="114" y="493" on="1"/>
        <pt x="139" y="504" on="0"/>
        <pt x="184" y="543" on="0"/>
        <pt x="194" y="556" on="1"/>
        <pt x="204" y="570" on="1"/>
        <pt x="265" y="560" on="0"/>
        <pt x="308" y="538" on="1"/>
        <pt x="323" y="530" on="1"/>
        <pt x="321" y="517" on="0"/>
        <pt x="314" y="477" on="0"/>
        <pt x="277" y="386" on="0"/>
      </contour>
    </TTGlyph>
    <TTGlyph name="iacute" xMin="57" yMin="-32" xMax="351" yMax="561">
      <contour>
        <pt x="237" y="218" on="0"/>
        <pt x="213" y="143" on="0"/>
        <pt x="194" y="32" on="0"/>
        <pt x="194" y="-27" on="0"/>
        <pt x="194" y="-32" on="1"/>
        <pt x="148" y="-11" on="0"/>
        <pt x="80" y="33" on="0"/>
        <pt x="68" y="45" on="1"/>
        <pt x="57" y="57" on="1"/>
        <pt x="57" y="148" on="0"/>
        <pt x="79" y="304" on="0"/>
        <pt x="90" y="336" on="1"/>
        <pt x="101" y="369" on="1"/>
        <pt x="191" y="353" on="0"/>
        <pt x="262" y="323" on="1"/>
        <pt x="286" y="313" on="1"/>
        <pt x="277" y="302" on="0"/>
      </contour>
      <contour>
        <pt x="351" y="429" on="1"/>
        <pt x="263" y="396" on="0"/>
        <pt x="195" y="396" on="1"/>
        <pt x="120" y="396" on="0"/>
        <pt x="83" y="430" on="1"/>
        <pt x="320" y="561" on="1"/>
      </contour>
    </TTGlyph>
    <TTGlyph name="icircumflex" xMin="64" yMin="-32" xMax="334" yMax="541">
      <contour>
        <pt x="262" y="218" on="0"/>
        <pt x="238" y="143" on="0"/>
        <pt x="219" y="32" on="0"/>
        <pt x="219" y="-27" on="0"/>
        <pt x="219" y="-32" on="1"/>
        <pt x="173" y="-11" on="0"/>
        <pt x="105" y="33" on="0"/>
        <pt x="94" y="45" on="1"/>
        <pt x="82" y="57" on="1"/>
        <pt x="82" y="148" on="0"/>
        <pt x="104" y="304" on="0"/>
        <pt x="115" y="336" on="1"/>
        <pt x="126" y="369" on="1"/>
        <pt x="216" y="353" on="0"/>
        <pt x="287" y="323" on="1"/>
        <pt x="311" y="313" on="1"/>
        <pt x="302" y="302" on="0"/>
      </contour>
      <contour>
        <pt x="90" y="396" on="1"/>
        <pt x="76" y="384" on="0"/>
        <pt x="70" y="376" on="1"/>
        <pt x="64" y="367" on="1"/>
        <pt x="64" y="421" on="0"/>
        <pt x="97" y="472" on="1"/>
        <pt x="142" y="541" on="0"/>
        <pt x="233" y="541" on="1"/>
        <pt x="268" y="541" on="0"/>
        <pt x="313" y="517" on="0"/>
        <pt x="321" y="500" on="1"/>
        <pt x="334" y="473" on="0"/>
        <pt x="334" y="442" on="0"/>
        <pt x="333" y="437" on="1"/>
        <pt x="331" y="425" on="1"/>
        <pt x="295" y="449" on="0"/>
        <pt x="152" y="449" on="0"/>
      </contour>
    </TTGlyph>
    <TTGlyph name="idieresis" xMin="9" yMin="-32" xMax="364" yMax="569">
      <contour>
        <pt x="252" y="218" on="0"/>
        <pt x="228" y="143" on="0"/>
        <pt x="209" y="32" on="0"/>
        <pt x="209" y="-27" on="0"/>
        <pt x="209" y="-32" on="1"/>
        <pt x="163" y="-11" on="0"/>
        <pt x="95" y="33" on="0"/>
        <pt x="84" y="45" on="1"/>
        <pt x="72" y="57" on="1"/>
        <pt x="72" y="148" on="0"/>
        <pt x="94" y="304" on="0"/>
        <pt x="105" y="336" on="1"/>
        <pt x="116" y="369" on="1"/>
        <pt x="206" y="353" on="0"/>
        <pt x="277" y="323" on="1"/>
        <pt x="301" y="313" on="1"/>
        <pt x="292" y="302" on="0"/>
      </contour>
      <contour>
        <pt x="130" y="540" on="0"/>
        <pt x="168" y="482" on="0"/>
        <pt x="170" y="452" on="1"/>
        <pt x="172" y="423" on="1"/>
        <pt x="98" y="383" on="1"/>
        <pt x="76" y="383" on="0"/>
        <pt x="31" y="424" on="0"/>
        <pt x="20" y="445" on="1"/>
        <pt x="9" y="466" on="1"/>
        <pt x="10" y="469" on="0"/>
        <pt x="13" y="479" on="0"/>
        <pt x="27" y="505" on="0"/>
        <pt x="36" y="514" on="1"/>
        <pt x="60" y="540" on="0"/>
      </contour>
      <contour>
        <pt x="303" y="410" on="0"/>
        <pt x="248" y="410" on="0"/>
        <pt x="205" y="448" on="0"/>
        <pt x="200" y="466" on="1"/>
        <pt x="195" y="485" on="1"/>
        <pt x="290" y="569" on="1"/>
        <pt x="320" y="555" on="0"/>
        <pt x="357" y="496" on="0"/>
        <pt x="360" y="474" on="1"/>
        <pt x="364" y="451" on="1"/>
        <pt x="351" y="435" on="0"/>
      </contour>
    </TTGlyph>
    <TTGlyph name="igrave" xMin="43" yMin="-32" xMax="312" yMax="544">
      <contour>
        <pt x="237" y="218" on="0"/>
        <pt x="213" y="143" on="0"/>
        <pt x="194" y="32" on="0"/>
        <pt x="194" y="-27" on="0"/>
        <pt x="194" y="-32" on="1"/>
        <pt x="148" y="-11" on="0"/>
        <pt x="80" y="33" on="0"/>
        <pt x="68" y="45" on="1"/>
        <pt x="57" y="57" on="1"/>
        <pt x="57" y="148" on="0"/>
        <pt x="79" y="304" on="0"/>
        <pt x="90" y="336" on="1"/>
        <pt x="101" y="369" on="1"/>
        <pt x="191" y="353" on="0"/>
        <pt x="262" y="323" on="1"/>
        <pt x="286" y="313" on="1"/>
        <pt x="277" y="302" on="0"/>
      </contour>
      <contour>
        <pt x="312" y="438" on="1"/>
        <pt x="215" y="394" on="0"/>
        <pt x="144" y="394" on="1"/>
        <pt x="80" y="394" on="0"/>
        <pt x="54" y="407" on="1"/>
        <pt x="43" y="412" on="1"/>
        <pt x="74" y="544" on="1"/>
      </contour>
    </TTGlyph>
    <TTGlyph name="infinity" xMin="73" yMin="62" xMax="668" yMax="426">
      <contour>
        <pt x="526" y="62" on="1"/>
        <pt x="433" y="62" on="0"/>
        <pt x="380" y="184" on="1"/>
        <pt x="346" y="121" on="0"/>
        <pt x="272" y="62" on="0"/>
        <pt x="226" y="62" on="1"/>
        <pt x="163" y="62" on="0"/>
        <pt x="117" y="114" on="1"/>
        <pt x="73" y="167" on="0"/>
        <pt x="73" y="325" on="0"/>
        <pt x="152" y="426" on="0"/>
        <pt x="216" y="426" on="1"/>
        <pt x="262" y="426" on="0"/>
        <pt x="332" y="367" on="0"/>
        <pt x="362" y="304" on="1"/>
        <pt x="421" y="426" on="0"/>
        <pt x="515" y="426" on="1"/>
        <pt x="579" y="426" on="0"/>
        <pt x="668" y="323" on="0"/>
        <pt x="668" y="163" on="0"/>
        <pt x="589" y="62" on="0"/>
      </contour>
      <contour>
        <pt x="397" y="217" on="1"/>
        <pt x="444" y="126" on="0"/>
        <pt x="529" y="126" on="1"/>
        <pt x="581" y="126" on="0"/>
        <pt x="644" y="195" on="0"/>
        <pt x="644" y="302" on="0"/>
        <pt x="615" y="336" on="1"/>
        <pt x="585" y="369" on="0"/>
        <pt x="498" y="369" on="0"/>
        <pt x="466" y="333" on="1"/>
        <pt x="433" y="299" on="0"/>
      </contour>
      <contour>
        <pt x="345" y="272" on="1"/>
        <pt x="294" y="363" on="0"/>
        <pt x="212" y="363" on="1"/>
        <pt x="162" y="363" on="0"/>
        <pt x="97" y="294" on="0"/>
        <pt x="97" y="187" on="0"/>
        <pt x="126" y="153" on="1"/>
        <pt x="157" y="119" on="0"/>
        <pt x="241" y="119" on="0"/>
        <pt x="305" y="184" on="0"/>
      </contour>
    </TTGlyph>
    <TTGlyph name="integral" xMin="-42" yMin="-237" xMax="395" yMax="665">
      <contour>
        <pt x="-42" y="-173" on="1"/>
        <pt x="-42" y="-127" on="0"/>
        <pt x="5" y="-127" on="1"/>
        <pt x="33" y="-127" on="0"/>
        <pt x="47" y="-158" on="1"/>
        <pt x="62" y="-188" on="0"/>
        <pt x="77" y="-188" on="1"/>
        <pt x="122" y="-188" on="0"/>
        <pt x="131" y="123" on="1"/>
        <pt x="131" y="182" on="0"/>
        <pt x="133" y="204" on="1"/>
        <pt x="142" y="469" on="0"/>
        <pt x="179" y="553" on="1"/>
        <pt x="202" y="608" on="0"/>
        <pt x="274" y="665" on="0"/>
        <pt x="352" y="665" on="0"/>
        <pt x="395" y="628" on="0"/>
        <pt x="395" y="580" on="0"/>
        <pt x="370" y="555" on="0"/>
        <pt x="320" y="555" on="0"/>
        <pt x="305" y="585" on="1"/>
        <pt x="292" y="616" on="0"/>
        <pt x="278" y="616" on="1"/>
        <pt x="230" y="616" on="0"/>
        <pt x="223" y="318" on="1"/>
        <pt x="220" y="223" on="1"/>
        <pt x="211" y="-41" on="0"/>
        <pt x="174" y="-125" on="1"/>
        <pt x="151" y="-178" on="0"/>
        <pt x="79" y="-237" on="0"/>
        <pt x="2" y="-237" on="0"/>
        <pt x="-42" y="-200" on="0"/>
      </contour>
    </TTGlyph>
    <TTGlyph name="j" xMin="-14" yMin="-140" xMax="316" yMax="566">
      <contour>
        <pt x="203" y="82" on="1"/>
        <pt x="194" y="27" on="0"/>
        <pt x="194" y="-32" on="0"/>
        <pt x="194" y="-38" on="1"/>
        <pt x="155" y="-74" on="0"/>
        <pt x="51" y="-125" on="0"/>
        <pt x="18" y="-132" on="1"/>
        <pt x="-14" y="-140" on="1"/>
        <pt x="21" y="-75" on="0"/>
        <pt x="76" y="180" on="0"/>
        <pt x="86" y="274" on="1"/>
        <pt x="96" y="369" on="1"/>
        <pt x="186" y="353" on="0"/>
        <pt x="257" y="323" on="1"/>
        <pt x="281" y="313" on="1"/>
        <pt x="227" y="233" on="0"/>
      </contour>
      <contour>
        <pt x="316" y="489" on="1"/>
        <pt x="272" y="366" on="1"/>
        <pt x="263" y="366" on="0"/>
        <pt x="214" y="382" on="0"/>
        <pt x="196" y="391" on="1"/>
        <pt x="149" y="413" on="0"/>
        <pt x="119" y="458" on="1"/>
        <pt x="138" y="493" on="0"/>
        <pt x="184" y="547" on="0"/>
        <pt x="198" y="556" on="1"/>
        <pt x="211" y="566" on="1"/>
        <pt x="254" y="523" on="0"/>
        <pt x="300" y="498" on="1"/>
      </contour>
    </TTGlyph>
    <TTGlyph name="k" xMin="32" yMin="-28" xMax="505" yMax="536">
      <contour>
        <pt x="362" y="536" on="1"/>
        <pt x="293" y="409" on="0"/>
        <pt x="227" y="202" on="1"/>
        <pt x="330" y="244" on="0"/>
        <pt x="394" y="404" on="1"/>
        <pt x="398" y="401" on="0"/>
        <pt x="411" y="392" on="0"/>
        <pt x="445" y="364" on="0"/>
        <pt x="458" y="350" on="1"/>
        <pt x="496" y="311" on="0"/>
        <pt x="505" y="278" on="1"/>
        <pt x="499" y="267" on="0"/>
        <pt x="459" y="218" on="0"/>
        <pt x="418" y="184" on="0"/>
        <pt x="348" y="148" on="0"/>
        <pt x="309" y="139" on="1"/>
        <pt x="379" y="100" on="0"/>
        <pt x="461" y="90" on="1"/>
        <pt x="458" y="77" on="0"/>
        <pt x="432" y="38" on="0"/>
        <pt x="403" y="9" on="0"/>
        <pt x="348" y="-21" on="0"/>
        <pt x="315" y="-28" on="1"/>
        <pt x="256" y="29" on="0"/>
        <pt x="200" y="114" on="1"/>
        <pt x="162" y="-28" on="1"/>
        <pt x="129" y="-21" on="0"/>
        <pt x="52" y="17" on="0"/>
        <pt x="32" y="39" on="1"/>
        <pt x="81" y="261" on="0"/>
        <pt x="125" y="426" on="1"/>
        <pt x="140" y="482" on="1"/>
        <pt x="196" y="503" on="0"/>
        <pt x="307" y="530" on="0"/>
        <pt x="334" y="533" on="1"/>
      </contour>
    </TTGlyph>
    <TTGlyph name="l" xMin="47" yMin="-49" xMax="336" yMax="546">
      <contour>
        <pt x="204" y="-17" on="1"/>
        <pt x="204" y="-49" on="1"/>
        <pt x="94" y="-4" on="0"/>
        <pt x="47" y="48" on="1"/>
        <pt x="55" y="136" on="0"/>
        <pt x="96" y="350" on="0"/>
        <pt x="112" y="413" on="1"/>
        <pt x="128" y="476" on="1"/>
        <pt x="173" y="503" on="0"/>
        <pt x="277" y="538" on="0"/>
        <pt x="306" y="542" on="1"/>
        <pt x="336" y="546" on="1"/>
        <pt x="297" y="462" on="0"/>
        <pt x="241" y="277" on="0"/>
        <pt x="229" y="206" on="1"/>
        <pt x="204" y="57" on="0"/>
      </contour>
    </TTGlyph>
    <TTGlyph name="less" xMin="65" yMin="27" xMax="500" yMax="551">
      <contour>
        <pt x="65" y="282" on="1"/>
        <pt x="149" y="342" on="0"/>
        <pt x="304" y="477" on="0"/>
        <pt x="340" y="514" on="1"/>
        <pt x="375" y="551" on="1"/>
        <pt x="393" y="509" on="0"/>
        <pt x="455" y="443" on="0"/>
        <pt x="478" y="432" on="1"/>
        <pt x="500" y="420" on="1"/>
        <pt x="240" y="265" on="1"/>
        <pt x="277" y="218" on="0"/>
        <pt x="392" y="141" on="0"/>
        <pt x="430" y="126" on="1"/>
        <pt x="469" y="111" on="1"/>
        <pt x="459" y="104" on="0"/>
        <pt x="425" y="81" on="0"/>
        <pt x="318" y="35" on="0"/>
        <pt x="266" y="27" on="1"/>
        <pt x="172" y="140" on="0"/>
        <pt x="92" y="246" on="1"/>
      </contour>
    </TTGlyph>
    <TTGlyph name="lessequal" xMin="39" yMin="-2" xMax="430" yMax="520">
      <contour>
        <pt x="39" y="-2" on="1"/>
        <pt x="69" y="111" on="1"/>
        <pt x="430" y="116" on="1"/>
        <pt x="406" y="21" on="1"/>
        <pt x="206" y="21" on="0"/>
        <pt x="82" y="4" on="1"/>
      </contour>
      <contour>
        <pt x="79" y="340" on="1"/>
        <pt x="152" y="380" on="0"/>
        <pt x="264" y="470" on="0"/>
        <pt x="283" y="495" on="1"/>
        <pt x="302" y="520" on="1"/>
        <pt x="314" y="490" on="0"/>
        <pt x="371" y="442" on="0"/>
        <pt x="393" y="433" on="1"/>
        <pt x="415" y="424" on="1"/>
        <pt x="248" y="321" on="1"/>
        <pt x="269" y="294" on="0"/>
        <pt x="345" y="247" on="0"/>
        <pt x="372" y="236" on="1"/>
        <pt x="400" y="226" on="1"/>
        <pt x="368" y="200" on="0"/>
        <pt x="263" y="154" on="0"/>
        <pt x="224" y="150" on="1"/>
        <pt x="170" y="238" on="0"/>
        <pt x="102" y="314" on="1"/>
      </contour>
    </TTGlyph>
    <TTGlyph name="logicalnot" xMin="68" yMin="-48" xMax="588" yMax="393">
      <contour>
        <pt x="68" y="281" on="1"/>
        <pt x="99" y="391" on="1"/>
        <pt x="588" y="393" on="1"/>
        <pt x="490" y="-48" on="1"/>
        <pt x="434" y="-33" on="0"/>
        <pt x="385" y="9" on="1"/>
        <pt x="406" y="47" on="0"/>
        <pt x="457" y="203" on="0"/>
        <pt x="475" y="295" on="1"/>
        <pt x="240" y="295" on="0"/>
        <pt x="111" y="284" on="1"/>
      </contour>
    </TTGlyph>
    <TTGlyph name="lozenge" xMin="78" yMin="-46" xMax="543" yMax="740">
      <contour>
        <pt x="543" y="347" on="1"/>
        <pt x="341" y="-46" on="1"/>
        <pt x="277" y="-46" on="1"/>
        <pt x="78" y="347" on="1"/>
        <pt x="279" y="740" on="1"/>
        <pt x="344" y="740" on="1"/>
      </contour>
      <contour>
        <pt x="470" y="345" on="1"/>
        <pt x="330" y="620" on="1"/>
        <pt x="317" y="651" on="0"/>
        <pt x="311" y="673" on="1"/>
        <pt x="309" y="673" on="1"/>
        <pt x="299" y="641" on="0"/>
        <pt x="289" y="620" on="1"/>
        <pt x="150" y="349" on="1"/>
        <pt x="291" y="71" on="1"/>
        <pt x="303" y="45" on="0"/>
        <pt x="309" y="20" on="1"/>
        <pt x="312" y="20" on="1"/>
        <pt x="317" y="42" on="0"/>
        <pt x="330" y="70" on="1"/>
      </contour>
    </TTGlyph>
    <TTGlyph name="lslash" xMin="46" yMin="-32" xMax="368" yMax="536">
      <contour>
        <pt x="333" y="309" on="1"/>
        <pt x="345" y="254" on="1"/>
        <pt x="280" y="248" on="1"/>
        <pt x="250" y="110" on="0"/>
        <pt x="240" y="4" on="1"/>
        <pt x="236" y="-32" on="1"/>
        <pt x="196" y="-22" on="0"/>
        <pt x="106" y="31" on="0"/>
        <pt x="88" y="59" on="1"/>
        <pt x="92" y="150" on="0"/>
        <pt x="105" y="234" on="1"/>
        <pt x="69" y="231" on="1"/>
        <pt x="46" y="297" on="1"/>
        <pt x="72" y="304" on="0"/>
        <pt x="117" y="309" on="1"/>
        <pt x="147" y="452" on="1"/>
        <pt x="184" y="480" on="0"/>
        <pt x="294" y="522" on="0"/>
        <pt x="331" y="529" on="1"/>
        <pt x="368" y="536" on="1"/>
        <pt x="325" y="437" on="0"/>
        <pt x="295" y="312" on="1"/>
      </contour>
    </TTGlyph>
    <TTGlyph name="m" xMin="49" yMin="-21" xMax="690" yMax="390">
      <contour>
        <pt x="265" y="1" on="1"/>
        <pt x="303" y="137" on="0"/>
        <pt x="303" y="218" on="1"/>
        <pt x="303" y="225" on="0"/>
        <pt x="302" y="230" on="1"/>
        <pt x="300" y="251" on="1"/>
        <pt x="242" y="201" on="0"/>
        <pt x="201" y="102" on="1"/>
        <pt x="195" y="30" on="0"/>
        <pt x="193" y="-14" on="1"/>
        <pt x="49" y="22" on="1"/>
        <pt x="77" y="208" on="0"/>
        <pt x="82" y="316" on="1"/>
        <pt x="84" y="356" on="1"/>
        <pt x="231" y="390" on="1"/>
        <pt x="207" y="247" on="1"/>
        <pt x="244" y="310" on="0"/>
        <pt x="348" y="371" on="0"/>
        <pt x="394" y="371" on="1"/>
        <pt x="422" y="329" on="0"/>
        <pt x="432" y="262" on="1"/>
        <pt x="465" y="313" on="0"/>
        <pt x="545" y="377" on="0"/>
        <pt x="574" y="377" on="1"/>
        <pt x="633" y="377" on="0"/>
        <pt x="690" y="244" on="1"/>
        <pt x="672" y="213" on="0"/>
        <pt x="634" y="56" on="0"/>
        <pt x="630" y="-21" on="1"/>
        <pt x="528" y="-7" on="0"/>
        <pt x="485" y="34" on="1"/>
        <pt x="519" y="158" on="0"/>
        <pt x="519" y="224" on="1"/>
        <pt x="519" y="229" on="0"/>
        <pt x="519" y="233" on="1"/>
        <pt x="517" y="251" on="1"/>
        <pt x="477" y="225" on="0"/>
        <pt x="438" y="164" on="1"/>
        <pt x="428" y="119" on="0"/>
        <pt x="416" y="15" on="1"/>
        <pt x="372" y="0" on="0"/>
        <pt x="293" y="0" on="1"/>
        <pt x="279" y="0" on="0"/>
      </contour>
    </TTGlyph>
    <TTGlyph name="macron" xMin="11" yMin="615" xMax="398" yMax="728">
      <contour>
        <pt x="398" y="710" on="1"/>
        <pt x="396" y="629" on="1"/>
        <pt x="11" y="615" on="1"/>
        <pt x="45" y="728" on="1"/>
        <pt x="91" y="710" on="0"/>
      </contour>
    </TTGlyph>
    <TTGlyph name="minus" xMin="54" yMin="143" xMax="477" yMax="264">
      <contour>
        <pt x="88" y="264" on="1"/>
        <pt x="477" y="264" on="1"/>
        <pt x="472" y="238" on="0"/>
        <pt x="439" y="157" on="1"/>
        <pt x="336" y="157" on="0"/>
        <pt x="124" y="146" on="1"/>
        <pt x="54" y="143" on="1"/>
      </contour>
    </TTGlyph>
    <TTGlyph name="mu" xMin="0" yMin="-121" xMax="504" yMax="373">
      <contour>
        <pt x="322" y="80" on="1"/>
        <pt x="255" y="3" on="0"/>
        <pt x="182" y="-29" on="1"/>
        <pt x="190" y="-77" on="0"/>
        <pt x="200" y="-110" on="1"/>
        <pt x="204" y="-121" on="1"/>
        <pt x="0" y="-121" on="1"/>
        <pt x="45" y="-42" on="0"/>
        <pt x="70" y="53" on="1"/>
        <pt x="66" y="91" on="0"/>
        <pt x="66" y="164" on="0"/>
        <pt x="78" y="268" on="0"/>
        <pt x="90" y="300" on="1"/>
        <pt x="101" y="331" on="1"/>
        <pt x="120" y="347" on="0"/>
        <pt x="229" y="373" on="0"/>
        <pt x="287" y="373" on="1"/>
        <pt x="278" y="357" on="0"/>
        <pt x="250" y="300" on="0"/>
        <pt x="213" y="154" on="0"/>
        <pt x="213" y="95" on="1"/>
        <pt x="213" y="80" on="0"/>
        <pt x="214" y="66" on="1"/>
        <pt x="224" y="69" on="0"/>
        <pt x="262" y="112" on="0"/>
        <pt x="276" y="139" on="1"/>
        <pt x="316" y="212" on="0"/>
        <pt x="340" y="336" on="1"/>
        <pt x="418" y="301" on="0"/>
        <pt x="504" y="301" on="1"/>
        <pt x="476" y="224" on="0"/>
        <pt x="440" y="61" on="0"/>
        <pt x="436" y="18" on="1"/>
        <pt x="433" y="-25" on="1"/>
        <pt x="405" y="-15" on="0"/>
        <pt x="338" y="46" on="0"/>
      </contour>
    </TTGlyph>
    <TTGlyph name="multiply" xMin="53" yMin="-54" xMax="506" yMax="415">
      <contour>
        <pt x="179" y="-30" on="1"/>
        <pt x="53" y="51" on="1"/>
        <pt x="202" y="189" on="1"/>
        <pt x="68" y="292" on="1"/>
        <pt x="190" y="415" on="1"/>
        <pt x="204" y="376" on="0"/>
        <pt x="256" y="296" on="0"/>
        <pt x="274" y="276" on="1"/>
        <pt x="293" y="255" on="1"/>
        <pt x="399" y="405" on="1"/>
        <pt x="506" y="294" on="1"/>
        <pt x="372" y="183" on="1"/>
        <pt x="499" y="74" on="1"/>
        <pt x="366" y="-54" on="1"/>
        <pt x="354" y="-2" on="0"/>
        <pt x="313" y="88" on="0"/>
        <pt x="298" y="107" on="1"/>
        <pt x="284" y="126" on="1"/>
      </contour>
    </TTGlyph>
</ttFont>
